v -0.5 -0.5 -0.5
v 0.5 -0.5 -0.5
v -0.5 0.5 -0.5
v 0.5 0.5 -0.5
v -0.5 -0.5 0.5
v 0.5 -0.5 0.5
v -0.5 0.5 0.5
v 0.5 0.5 0.5
v 0 0 -0.5
v -0.5 0 0
v 0 -0.5 0
v 0 0 0.5
v 0 0.5 0
v 0.5 0 0
v 0 -0.5 -0.5
v 0 0.5 -0.5
v -0.5 0 -0.5
v -0.5 0 0.5
v -0.5 -0.5 0
v 0.5 -0.5 0
v 0.5 0 0.5
v 0 0.5 0.5
v 0.5 0.5 0
v 0.25 -0.5 -0.5
v -0.5 0.5 0
v 0 -0.5 0.5
v 0.25 -0.5 0.5
v -0.5 0.5 0.25
v 0.5 0.25 -0.5
v 0.5 0.5 -0.25
v -0.25 -0.5 -0.25
v 0.5 -0.25 0.5
v -0.25 0.5 0.5
v 0.5 -0.5 -0.25
v -0.5 0.25 -0.5
v -0.5 -0.25 0.5
v 0.5 0.25 0.25
v -0.5 0.5 -0.25
v -0.25 0.25 -0.5
v 0.25 -0.25 -0.5
v -0.5 -0.25 0.25
v -0.5 0.25 -0.25
v 0.25 -0.5 -0.25
v -0.25 -0.5 0.25
v -0.25 0.25 0.5
v 0.25 -0.25 0.5
v 0.25 0.5 -0.25
v -0.25 0.5 0.25
v 0.5 -0.25 0.25
v 0.5 0.25 -0.25
v 0 -0.25 -0.5
v 0 0.25 -0.5
v -0.5 0 -0.25
v -0.5 0 0.25
v -0.25 -0.5 0
v 0.25 -0.5 0
v 0.25 0 0.5
v -0.5 -0.5 0.25
v 0 0.5 0.25
v 0.5 -0.25 -0.5
v 0.5 0.25 0
v -0.25 0.5 -0.5
v -0.25 -0.5 0.5
v 0.5 0 -0.5
v -0.5 -0.25 0
v -0.5 0.25 0
v 0 -0.5 -0.25
v 0 -0.5 0.25
v 0 0.25 0.5
v 0 -0.25 0.5
v 0.25 0.5 0
v -0.25 0.5 0
v 0.5 0 0.25
v 0.5 0 -0.25
f 61 74 50 
f 29 30 50 
f 34 73 49 
f 32 20 49 
f 59 72 48 
f 28 33 48 
f 62 71 47 
f 30 16 47 
f 57 70 46 
f 19 31 55 
f 27 32 46 
f 36 69 45 
f 33 18 45 
f 55 68 44 
f 63 58 44 
f 56 67 43 
f 24 34 43 
f 53 66 42 
f 38 35 42 
f 54 65 41 
f 58 36 41 
f 23 37 61 
f 51 64 40 
f 60 24 40 
f 52 35 39 
f 52 9 35 
f 35 62 39 
f 64 60 40 
f 65 19 58 
f 65 58 41 
f 66 25 38 
f 66 38 42 
f 67 15 24 
f 67 24 43 
f 68 26 63 
f 68 63 44 
f 69 22 33 
f 69 33 45 
f 70 26 27 
f 70 27 46 
f 71 23 30 
f 71 30 47 
f 72 25 28 
f 72 28 48 
f 73 21 32 
f 73 32 49 
f 74 64 29 
f 74 29 50 
f 24 15 51 
f 24 51 40 
f 61 14 74 
f 15 67 31 
f 62 16 52 
f 62 52 39 
f 34 14 73 
f 16 62 47 
f 35 17 53 
f 35 53 42 
f 59 13 72 
f 17 35 15 
f 36 18 54 
f 36 54 41 
f 62 13 71 
f 18 36 45 
f 58 19 55 
f 58 55 44 
f 57 12 70 
f 19 65 17 
f 34 20 56 
f 34 56 43 
f 27 6 32 
f 20 34 49 
f 32 21 57 
f 32 57 46 
f 33 7 18 
f 21 73 37 
f 33 22 59 
f 33 59 48 
f 24 2 34 
f 22 69 21 
f 30 23 61 
f 30 61 50 
f 58 5 36 
f 23 71 22 
f 35 3 62 
f 29 64 16 
f 60 64 74 
f 60 74 34 
f 28 25 66 
f 28 66 18 
f 38 25 72 
f 38 72 62 
f 27 26 68 
f 27 68 20 
f 63 26 70 
f 63 70 36 
f 15 1 17 
f 29 4 30 
f 9 51 15 
f 9 15 35 
f 16 4 29 
f 32 6 20 
f 9 52 16 
f 9 16 64 
f 17 1 19 
f 28 7 33 
f 10 53 17 
f 10 17 65 
f 18 7 28 
f 30 4 16 
f 10 54 18 
f 10 18 66 
f 19 1 15 
f 19 15 31 
f 11 55 31 
f 11 31 67 
f 20 6 27 
f 36 12 69 
f 11 56 20 
f 11 20 68 
f 21 8 22 
f 55 11 68 
f 12 57 21 
f 12 21 69 
f 36 5 63 
f 63 5 58 
f 56 11 67 
f 12 36 70 
f 22 8 23 
f 53 10 66 
f 13 59 22 
f 13 22 71 
f 62 3 38 
f 38 3 35 
f 54 10 65 
f 13 62 72 
f 23 8 21 
f 23 21 37 
f 14 61 37 
f 14 37 73 
f 34 2 60 
f 51 9 64 
f 60 2 24 
f 14 34 74 
