v -0.5 -0.5 -0.5
v 0.5 -0.5 -0.5
v -0.5 0.5 -0.5
v 0.5 0.5 -0.5
v -0.5 -0.5 0.5
v 0.5 -0.5 0.5
v -0.5 0.5 0.5
v 0.5 0.5 0.5
v 0 0 -0.5
v -0.5 0 0
v 0 -0.5 0
v 0 0 0.5
v 0 0.5 0
v 0.5 0 0
v 0 -0.5 -0.5
v 0 0.5 -0.5
v -0.5 0 -0.5
v -0.5 0 0.5
v -0.5 -0.5 0
v 0.5 -0.5 0
v 0.5 0 0.5
v 0 0.5 0.5
v 0.5 0.5 0
v 0.25 -0.5 -0.5
v -0.5 0 0.25
v 0 -0.5 0.5
v 0.25 -0.5 0.5
v -0.5 0.5 0.25
v 0.5 0.25 -0.5
v 0 0.25 -0.5
v -0.25 -0.5 -0.25
v 0.5 -0.25 0.5
v -0.25 0.5 0.5
v 0.5 -0.5 -0.25
v -0.5 0.25 -0.5
v -0.5 -0.25 0.5
v 0.5 0.25 0.25
v -0.25 0.5 -0.5
v -0.25 0.25 -0.5
v 0.25 -0.5 0
v -0.5 -0.25 0.25
v 0 -0.25 -0.5
v 0.25 -0.5 -0.25
v -0.5 -0.5 0.25
v -0.5 0.5 0
v 0.5 0.5 -0.25
v 0 0.5 0.25
v 0.25 0 0.5
v -0.25 -0.5 0
v -0.5 0 -0.25
f 15 1 17 
f 16 4 29 
f 28 7 33 
f 17 1 19 
f 47 45 28 
f 18 7 28 
f 19 15 31 
f 19 1 15 
f 48 26 27 
f 19 31 49 
f 20 6 27 
f 49 11 26 
f 21 8 22 
f 26 5 44 
f 36 5 26 
f 40 24 43 
f 24 34 43 
f 45 3 35 
f 38 3 45 
f 25 44 41 
f 44 36 41 
f 23 37 46 
f 42 9 29 
f 34 2 29 
f 30 35 39 
f 30 9 35 
f 35 38 39 
f 14 34 29 
f 14 37 32 
f 14 46 37 
f 23 21 37 
f 13 38 45 
f 13 22 46 
f 13 47 22 
f 50 10 45 
f 12 36 26 
f 12 21 33 
f 12 48 21 
f 11 40 20 
f 36 12 33 
f 11 31 24 
f 11 49 31 
f 10 25 18 
f 46 4 16 
f 10 17 44 
f 10 50 17 
f 9 30 16 
f 32 6 20 
f 24 15 42 
f 24 42 29 
f 46 14 29 
f 15 24 31 
f 38 16 30 
f 38 30 39 
f 34 14 32 
f 16 38 46 
f 35 17 50 
f 35 50 45 
f 47 13 45 
f 17 35 15 
f 36 18 25 
f 36 25 41 
f 38 13 46 
f 18 36 33 
f 44 19 49 
f 44 49 26 
f 48 12 26 
f 19 44 17 
f 34 20 40 
f 34 40 43 
f 27 6 32 
f 20 34 32 
f 32 21 48 
f 32 48 27 
f 33 7 18 
f 21 32 37 
f 33 22 47 
f 33 47 28 
f 24 2 34 
f 22 33 21 
f 9 15 35 
f 9 42 15 
f 44 5 36 
f 23 46 22 
f 35 3 38 
f 29 4 46 
f 29 2 24 
f 9 16 29 
f 23 8 21 
f 28 45 18 
f 25 10 44 
f 10 18 45 
f 22 8 23 
f 27 26 20 
f 40 11 24 
f 11 20 26 
