v 0.399607 0.912982 0.082324
v 0.399607 0.912982 -0.082324
v 0.266405 0.963861 0
v 0.262866 0.951057 0.16246
v 0.525731 0.850651 0
v 0.262866 0.951057 -0.16246
v 0.133071 0.987688 0.082242
v 0.133071 0.987688 -0.082242
v -2.2805943e-07 1.000036 0.071017265
v 0.519258 0.840178 0.156434
v 0.386187 0.891007 0.238677
v -0.707107 0.371748 0.601501
v 0.386187 0.891007 -0.238677
v 0.519258 0.840178 -0.156434
v -0.688191 0.587785 0.425325
v 0.132792 0.966393 -0.220117
v 0.264083 0.916244 -0.301259
v -0.647412 0.296005 -0.70231
v 0 0.961938 -0.273267
v 0.259892 0.862668 -0.433889
v 0.09987545 0.90385056 -0.42381668
v 0.70454025 0.6722418 -0.23569489
v -0.0037118196 0.80825424 -0.5950661
v 0 0.990439 -0.137952
v 0.383614 0.843911 -0.375039
v 0.264083 0.916244 0.301259
v 0.132792 0.966393 0.220117
v -0.587785 0.425325 -0.688191
v -0.646578 0.513375 -0.564254
v 0 0.961938 0.273267
v 0.12975693 0.90070343 0.42009354
v -0.099859476 0.9038429 0.4238205
v 0.0037118196 0.80825424 0.5950661
v 0.45236588 0.8088045 0.3874855
v -0.601501 0.707107 0.371748
v 0.62024 0.780204 -0.081142
v 0.62024 0.780204 0.081142
v 0.296005 0.70231 -0.647412
v -0.671608 0.6443119 -0.37622833
v 0.702046 0.693781 0.160622
v 0.7461339 0.6676005 -0.034426212
v 0.83966684 0.5441945 0.07853699
v -0.646578 -0.513375 -0.564254
v 0.5782976 0.7605643 -0.3096962
v 0.606825 0.758652 0.237086
v -0.399607 0.912982 -0.082324
v -0.399607 0.912982 0.082324
v -0.266405 0.963861 0
v -0.262866 0.951057 -0.16246
v -0.525731 0.850651 0
v -0.262866 0.951057 0.16246
v -0.133071 0.987688 -0.082242
v -0.133071 0.987688 0.082242
v -0.519258 0.840178 -0.156434
v -0.386187 0.891007 -0.238677
v -0.571252 -0.213023 0.792649
v -0.386187 0.891007 0.238677
v -0.519258 0.840178 0.156434
v -0.2620144 -0.8169098 0.5208664
v -0.132792 0.966393 0.220117
v -0.264083 0.916244 0.301259
v -0.513375 0.564254 -0.646578
v -0.259892 0.862668 0.433889
v -0.564254 0.646578 -0.513375
v -0.383614 0.843911 0.375039
v -0.264083 0.916244 -0.301259
v -0.132792 0.966393 -0.220117
v 0.516122 0.346153 -0.783452
v 0.783452 0.516122 -0.346153
v -0.12975693 0.90070343 -0.42009354
v -0.45236588 0.8088045 -0.3874855
v -0.62024 0.780204 0.081142
v -0.62024 0.780204 -0.081142
v -0.711282 0.702907 0
v -0.702046 0.693781 0.160622
v -0.702046 0.693781 -0.160622
v -0.6722412 -0.23576927 -0.7045593
v -0.80823565 0.59507966 0.0037566423
v 0.601501 -0.707107 0.371748
v -0.557415 0.7871418 0.27349472
v -0.606825 0.758652 -0.237086
v 0.399607 -0.912982 -0.082324
v 0.399607 -0.912982 0.082324
v 0.266405 -0.963861 0
v 0.262866 -0.951057 -0.16246
v 0.525731 -0.850651 0
v 0.262866 -0.951057 0.16246
v 0.133071 -0.987688 -0.082242
v 0.133071 -0.987688 0.082242
v -2.2805943e-07 -1.000036 -0.071017265
v 0.519258 -0.840178 -0.156434
v 0.386187 -0.891007 -0.238677
v -0.516122 -0.346153 0.783452
v 0.386187 -0.891007 0.238677
v 0.519258 -0.840178 0.156434
v -0.296005 -0.70231 0.647412
v 0.132792 -0.966393 0.220117
v 0.264083 -0.916244 0.301259
v -0.757935 0.453991 -0.46843
v 0 -0.961938 0.273267
v 0.259892 -0.862668 0.433889
v 0.09987545 -0.90385056 0.42381668
v -0.371748 0.601501 -0.707107
v -0.0037118196 -0.80825424 0.5950661
v 0 -0.990439 0.137952
v 0.383614 -0.843911 0.375039
v 0.264083 -0.916244 -0.301259
v 0.132792 -0.966393 -0.220117
v -0.371748 0.601501 0.707107
v 0.757935 0.453991 -0.46843
v 0 -0.961938 -0.273267
v 0.12975693 -0.90070343 -0.42009354
v -0.099859476 -0.9038429 -0.4238205
v 0.0037118196 -0.80825424 -0.5950661
v 0.45236588 -0.8088045 -0.3874855
v -0.7883053 -0.54623795 0.2906456
v 0.62024 -0.780204 0.081142
v 0.62024 -0.780204 -0.081142
v 0.711282 -0.702907 0
v 0.702046 -0.693781 0.160622
v 0.702046 -0.693781 -0.160622
v 0.513375 0.564254 -0.646578
v 0.80823565 -0.59507966 0.0037566423
v -0.516122 -0.346153 -0.783452
v 0.557415 -0.7871418 0.27349472
v 0.606825 -0.758652 -0.237086
v -0.399607 -0.912982 0.082324
v -0.399607 -0.912982 -0.082324
v -0.266405 -0.963861 0
v -0.262866 -0.951057 0.16246
v -0.525731 -0.850651 0
v -0.262866 -0.951057 -0.16246
v -0.133071 -0.987688 0.082242
v -0.133071 -0.987688 -0.082242
v -0.519258 -0.840178 0.156434
v -0.386187 -0.891007 0.238677
v -0.647412 -0.296005 0.70231
v -0.386187 -0.891007 -0.238677
v -0.519258 -0.840178 -0.156434
v -0.671608 -0.6443119 0.37622833
v -0.132792 -0.966393 -0.220117
v -0.264083 -0.916244 -0.301259
v 0.453991 0.46843 -0.757935
v -0.259892 -0.862668 -0.433889
v 0.371748 0.601501 -0.707107
v -0.383614 -0.843911 -0.375039
v -0.264083 -0.916244 0.301259
v -0.132792 -0.966393 0.220117
v -0.707107 0.371748 -0.601501
v -0.453991 0.46843 -0.757935
v -0.12975693 -0.90070343 0.42009354
v -0.45236588 -0.8088045 0.3874855
v -0.62024 -0.780204 -0.081142
v -0.62024 -0.780204 0.081142
v -0.711282 -0.702907 0
v -0.702046 -0.693781 -0.160622
v -0.702046 -0.693781 0.160622
v 0.646578 0.513375 -0.564254
v -0.83966684 -0.5441945 0.07853699
v 0.783452 -0.516122 -0.346153
v -0.557415 -0.7871418 -0.27349472
v -0.606825 -0.758652 0.237086
v 0.912982 -0.082324 -0.399607
v 0.912982 0.082324 -0.399607
v 0.963861 0 -0.266405
v 0.951057 -0.16246 -0.262866
v 0.850651 0 -0.525731
v -0.516122 0.346153 -0.783452
v -0.571252 0.213023 -0.792649
v 0.9750576 0.14417052 -0.19052696
v 0.9999622 -0.08105519 -0.047564507
v 0.840178 -0.156434 -0.519258
v 0.891007 -0.238677 -0.386187
v 0.78710556 -0.27348137 -0.55739594
v 0.891007 0.238677 -0.386187
v -0.757935 0.453991 0.46843
v 0.671608 -0.6443119 -0.37622833
v 0.7883053 0.54623795 0.2906456
v 0.8803854 0.3618579 -0.318882
v -0.783452 0.516122 -0.346153
v -0.792649 0.571252 -0.213023
v -0.2620144 0.8169098 -0.5208664
v 0.94074583 0.34594512 -0.056147575
v 0.8295413 0.53653336 -0.16944313
v 0.990439 0.137952 0
v -0.296005 0.70231 -0.647412
v 0.916244 -0.301259 -0.264083
v 0.96938217 -0.24246755 -0.07342434
v -0.783452 0.516122 0.346153
v -0.646578 -0.513375 0.564254
v 0.453991 -0.46843 0.757935
v 0.8959514 -0.4187641 -0.17242432
v 0.9216106 -0.38751268 0.071852684
v 0.843911 -0.375039 -0.383614
v 0.571252 -0.213023 -0.792649
v 0.671608 0.6443119 0.37622833
v 0.780204 -0.081142 -0.62024
v 0.707107 0.371748 0.601501
v 0.72384644 0.06782347 -0.69200134
v 0.693781 -0.160622 -0.702046
v 0.587785 0.425325 -0.688191
v 0.5442009 -0.078564644 -0.83966446
v -0.70231 -0.647412 -0.296005
v 0.8102951 0.22948074 -0.5472412
v 0.587785 -0.425325 -0.688191
v 0.912982 0.082324 0.399607
v 0.912982 -0.082324 0.399607
v 0.963861 0 0.266405
v 0.951057 0.16246 0.262866
v 0.850651 0 0.525731
v 0.951057 -0.16246 0.262866
v 0.987688 0.082242 0.133071
v 0.987688 -0.082242 0.133071
v 0.840178 0.156434 0.519258
v 0.891007 0.238677 0.386187
v 0.78710556 0.27348137 0.55739594
v 0.891007 -0.238677 0.386187
v 0.840178 -0.156434 0.519258
v 0.707107 0.371748 -0.601501
v 0.966393 -0.220117 0.132792
v 0.8819752 -0.36112118 0.31600952
v 0.296005 -0.70231 0.647412
v 0.371748 -0.601501 0.707107
v 0.82682526 -0.537405 0.17680359
v 0.757935 -0.453991 0.46843
v -0.646578 0.513375 0.564254
v 0.966393 0.220117 0.132792
v -0.513375 0.564254 0.646578
v 0.9122343 0.3621173 0.20903587
v 0.792649 -0.571252 -0.213023
v 0.843911 0.375039 0.383614
v 0.780204 -0.081142 0.62024
v 0.780204 0.081142 0.62024
v 0.702907 0 0.711282
v 0.693781 -0.160622 0.702046
v 0.693781 0.160622 0.702046
v -0.213023 0.792649 0.571252
v 0.544178 0.07855415 0.8396759
v -0.587785 -0.425325 -0.688191
v 0.7871094 -0.2734809 0.5573921
v 0.513375 -0.564254 -0.646578
v -0.912982 -0.082324 0.399607
v -0.912982 0.082324 0.399607
v -0.963861 0 0.266405
v -0.951057 -0.16246 0.262866
v -0.850651 0 0.525731
v -0.951057 0.16246 0.262866
v -0.647412 0.296005 0.70231
v -0.9790294 0.16091537 0.14427948
v -1.000273 -0.076833665 0.04976225
v -0.840178 -0.156434 0.519258
v -0.891007 -0.238677 0.386187
v -0.78710556 -0.27348137 0.55739594
v -0.891007 0.238677 0.386187
v -0.840178 0.156434 0.519258
v 0.707107 -0.371748 -0.601501
v 0.757935 0.453991 0.46843
v -0.8819752 0.36112118 0.31600952
v 0.647412 -0.296005 0.70231
v 0.783452 -0.516122 0.346153
v 0.346153 -0.783452 0.516122
v -0.9216106 0.38751268 0.071852684
v -0.82682526 0.537405 0.17680359
v 0.213023 -0.792649 0.571252
v 0.70231 -0.647412 0.296005
v -0.425325 0.688191 0.587785
v -0.9529502 -0.30066156 0.09377289
v -0.516122 0.346153 0.783452
v -0.8797178 -0.36827445 0.3137226
v -0.46843 0.757935 0.453991
v 0.571252 0.213023 0.792649
v -0.9233748 -0.3834362 -0.07038212
v -0.587785 0.425325 0.688191
v 0.516122 -0.346153 -0.783452
v -0.780204 0.081142 0.62024
v -0.780204 -0.081142 0.62024
v -0.702907 0 0.711282
v -0.693781 0.160622 0.702046
v -0.693781 -0.160622 0.702046
v -0.587785 -0.425325 0.688191
v -0.5442009 -0.078564644 0.83966446
v -0.213023 -0.792649 -0.571252
v -0.7871094 0.2734809 0.5573921
v 0.564254 -0.646578 -0.513375
v -0.912982 0.082324 -0.399607
v -0.912982 -0.082324 -0.399607
v -0.963861 0 -0.266405
v 0.2620144 0.8169098 0.5208664
v -0.850651 0 -0.525731
v -0.951057 -0.16246 -0.262866
v -0.987688 0.082242 -0.133071
v -0.987688 -0.082242 -0.133071
v -0.840178 0.156434 -0.519258
v 0.296005 0.70231 0.647412
v -0.78710556 0.27348137 -0.55739594
v -0.891007 -0.238677 -0.386187
v -0.840178 -0.156434 -0.519258
v 0.757935 -0.453991 -0.46843
v -0.966393 -0.220117 -0.132792
v -0.916244 -0.301259 -0.264083
v 0.564254 0.646578 -0.513375
v -0.862668 -0.433889 -0.259892
v -0.8123206 -0.57192135 -0.1400919
v -0.843911 -0.375039 -0.383614
v -0.9246273 0.22570705 -0.3203354
v -0.983184 0.19710219 -0.052288532
v -0.564254 -0.646578 0.513375
v -0.513375 -0.564254 0.646578
v -0.8959514 0.4187641 -0.17242432
v -0.843911 0.375039 -0.383614
v -0.780204 -0.081142 -0.62024
v -0.780204 0.081142 -0.62024
v 0.425325 -0.688191 0.587785
v 0.587785 -0.425325 0.688191
v -0.693781 0.160622 -0.702046
v -0.667614 -0.03441429 -0.7461281
v -0.544178 0.07855415 -0.8396759
v -0.564254 -0.646578 -0.513375
v -0.760376 -0.3098545 -0.5784302
v 0.646578 -0.513375 -0.564254
v -0.082324 -0.399607 0.912982
v 0.082324 -0.399607 0.912982
v 0 -0.266405 0.963861
v -0.16246 -0.262866 0.951057
v 0 -0.525731 0.850651
v 0.16246 -0.262866 0.951057
v -0.082242 -0.133071 0.987688
v 0.082242 -0.133071 0.987688
v -0.425325 0.688191 -0.587785
v -0.156434 -0.519258 0.840178
v -0.238677 -0.386187 0.891007
v -0.27348328 -0.55740356 0.787117
v 0.238677 -0.386187 0.891007
v 0.156434 -0.519258 0.840178
v 0.371748 -0.601501 -0.707107
v 0.220117 -0.132792 0.966393
v 0.301259 -0.264083 0.916244
v -0.70231 0.647412 0.296005
v -0.296005 0.70231 0.647412
v 0.433889 -0.259892 0.862668
v 0.38345337 -0.07040024 0.92337036
v 0.5719948 -0.13995838 0.8122711
v 0.08213711 0.047680378 0.99983907
v 0.375039 -0.383614 0.843911
v -0.301259 -0.264083 0.916244
v -0.220117 -0.132792 0.966393
v -0.358229 -0.131655 0.924305
v -0.433889 -0.259892 0.862668
v -0.34595108 0.05613804 0.94074154
v -0.296005 -0.70231 -0.647412
v -0.757935 -0.453991 0.46843
v -0.375039 -0.383614 0.843911
v -0.137952 0 0.990439
v 0.081142 -0.62024 0.780204
v -0.081142 -0.62024 0.780204
v 0 -0.711282 0.702907
v 0.160622 -0.702046 0.693781
v -0.160622 -0.702046 0.693781
v -0.346153 -0.783452 -0.516122
v -0.453991 -0.46843 -0.757935
v 0.27334595 -0.5574188 0.7871399
v 0.647412 -0.296005 -0.70231
v 0.082324 0.399607 0.912982
v -0.082324 0.399607 0.912982
v 0 0.266405 0.963861
v 0.16246 0.262866 0.951057
v 0 0.525731 0.850651
v -0.425325 -0.688191 0.587785
v 0.647412 0.296005 0.70231
v -0.14125061 0.18860054 0.9760885
v 0.156434 0.519258 0.840178
v 0.238677 0.386187 0.891007
v 0.27348328 0.55740356 0.787117
v -0.238677 0.386187 0.891007
v -0.156434 0.519258 0.840178
v 0.453991 -0.46843 -0.757935
v -0.453991 -0.46843 0.757935
v -0.301259 0.264083 0.916244
v -0.371748 -0.601501 0.707107
v -0.433889 0.259892 0.862668
v -0.5672188 0.13750458 0.8163719
v -0.375039 0.383614 0.843911
v 0.301259 0.264083 0.916244
v 0.3011799 0.093997955 0.952734
v 0.647412 0.296005 -0.70231
v 0.433889 0.259892 0.862668
v -0.688191 -0.587785 -0.425325
v 0.375039 0.383614 0.843911
v -0.081142 0.62024 0.780204
v 0.081142 0.62024 0.780204
v 0 0.711282 0.702907
v -0.160622 0.702046 0.693781
v 0.160622 0.702046 0.693781
v -0.371748 -0.601501 -0.707107
v -0.757935 -0.453991 -0.46843
v -0.27334595 0.5574188 0.7871399
v 0.419281 0.7406254 -0.5324478
v -0.082324 0.399607 -0.912982
v 0.082324 0.399607 -0.912982
v 0 0.266405 -0.963861
v -0.16246 0.262866 -0.951057
v 0 0.525731 -0.850651
v 0.16246 0.262866 -0.951057
v -0.082242 0.133071 -0.987688
v 0.082242 0.133071 -0.987688
v -0.707107 -0.371748 0.601501
v -0.156434 0.519258 -0.840178
v -0.238677 0.386187 -0.891007
v -0.27348328 0.55740356 -0.787117
v 0.238677 0.386187 -0.891007
v 0.156434 0.519258 -0.840178
v 0.425325 -0.688191 -0.587785
v 0.220117 0.132792 -0.966393
v 0.301259 0.264083 -0.916244
v 0.213023 0.792649 -0.571252
v 0.688191 0.587785 -0.425325
v 0.433889 0.259892 -0.862668
v 0.3834381 0.0703907 -0.9233742
v 0.5720482 0.13994312 -0.81222916
v 0.082140446 -0.047677517 -0.9998387
v 0.375039 0.383614 -0.843911
v -0.301259 0.264083 -0.916244
v -0.220117 0.132792 -0.966393
v -0.358229 0.131655 -0.924305
v -0.433889 0.259892 -0.862668
v -0.34593582 -0.05615431 -0.9407444
v -0.513375 -0.564254 -0.646578
v 0.707107 -0.371748 0.601501
v -0.375039 0.383614 -0.843911
v -0.137952 0 -0.990439
v 0.081142 0.62024 -0.780204
v -0.081142 0.62024 -0.780204
v 0 0.711282 -0.702907
v 0.160622 0.702046 -0.693781
v -0.160622 0.702046 -0.693781
v 0.516122 -0.346153 0.783452
v -0.46843 -0.757935 -0.453991
v 0.27334595 0.5574188 -0.7871399
v 0.2620144 -0.8169098 -0.5208664
v 0.082324 -0.399607 -0.912982
v -0.082324 -0.399607 -0.912982
v 0 -0.266405 -0.963861
v 0.16246 -0.262866 -0.951057
v 0 -0.525731 -0.850651
v 0.564254 -0.646578 0.513375
v -0.346153 0.783452 0.516122
v -0.14124775 -0.18860626 -0.9760833
v 0.156434 -0.519258 -0.840178
v 0.238677 -0.386187 -0.891007
v 0.27348328 -0.55740356 -0.787117
v -0.238677 -0.386187 -0.891007
v -0.156434 -0.519258 -0.840178
v 0.516122 0.346153 0.783452
v 0.688191 -0.587785 0.425325
v -0.36148453 -0.31873322 -0.88061523
v 0.46843 -0.757935 0.453991
v 0.513375 -0.564254 0.646578
v -0.5365143 -0.1694156 -0.82956696
v 0.646578 -0.513375 0.564254
v 0.301259 -0.264083 -0.916244
v 0.30117607 -0.09398556 -0.95273685
v -0.453991 0.46843 0.757935
v 0.433889 -0.259892 -0.862668
v -0.783452 -0.516122 -0.346153
v 0.375039 -0.383614 -0.843911
v -0.081142 -0.62024 -0.780204
v 0.081142 -0.62024 -0.780204
v 0 -0.711282 -0.702907
v -0.160622 -0.702046 -0.693781
v 0.160622 -0.702046 -0.693781
v -0.601501 -0.707107 -0.371748
v -0.425325 -0.688191 -0.587785
v -0.27334595 -0.5574188 -0.7871399
v 0.296005 -0.70231 -0.647412
v 0.646578 0.513375 0.564254
v 0.564254 0.646578 0.513375
v 0.513375 0.564254 0.646578
v 0.587785 0.425325 0.688191
v -0.564254 0.646578 0.513375
v 0.425325 0.688191 0.587785
v 0.453991 0.46843 0.757935
v 0.371748 0.601501 0.707107
f 1 2 3 
f 4 1 3 
f 5 2 1 
f 6 3 2 
f 7 3 8 
f 9 7 8 
f 4 3 7 
f 6 8 3 
f 10 1 11 
f 34 10 11 
f 5 1 10 
f 4 11 1 
f 13 2 14 
f 44 13 14 
f 6 2 13 
f 5 14 2 
f 16 17 21 
f 19 16 21 
f 6 17 16 
f 20 21 17 
f 120 123 224 
f 360 124 455 
f 425 317 169 
f 157 140 116 
f 8 16 24 
f 9 8 24 
f 6 16 8 
f 19 24 16 
f 25 17 13 
f 44 25 13 
f 20 17 25 
f 6 13 17 
f 26 27 31 
f 288 26 31 
f 4 27 26 
f 30 31 27 
f 205 241 376 
f 33 31 32 
f 71 39 81 
f 30 32 31 
f 11 26 34 
f 463 202 195 
f 4 26 11 
f 288 34 26 
f 9 27 7 
f 200 174 362 
f 30 27 9 
f 4 7 27 
f 36 37 41 
f 22 36 41 
f 5 37 36 
f 40 41 37 
f 280 406 190 
f 469 114 282 
f 140 190 351 
f 40 42 41 
f 14 36 44 
f 412 115 439 
f 5 36 14 
f 22 44 36 
f 45 37 10 
f 34 45 10 
f 40 37 45 
f 5 10 37 
f 46 47 48 
f 49 46 48 
f 50 47 46 
f 51 48 47 
f 52 48 53 
f 9 52 53 
f 49 48 52 
f 51 53 48 
f 54 46 55 
f 71 54 55 
f 50 46 54 
f 49 55 46 
f 57 47 58 
f 80 57 58 
f 51 47 57 
f 50 58 47 
f 60 61 32 
f 30 60 32 
f 51 61 60 
f 63 32 61 
f 235 342 259 
f 340 436 342 
f 314 259 436 
f 436 259 342 
f 53 60 9 
f 205 362 256 
f 51 60 53 
f 30 9 60 
f 65 61 57 
f 80 65 57 
f 63 61 65 
f 51 57 61 
f 66 67 70 
f 182 66 70 
f 49 67 66 
f 19 70 67 
f 240 225 221 
f 23 70 21 
f 225 260 221 
f 19 21 70 
f 55 66 71 
f 124 77 458 
f 49 66 55 
f 182 71 66 
f 24 67 52 
f 9 24 52 
f 19 67 24 
f 49 52 67 
f 72 73 74 
f 75 72 74 
f 50 73 72 
f 76 74 73 
f 194 160 298 
f 239 319 77 
f 75 74 78 
f 76 78 74 
f 58 72 80 
f 205 274 362 
f 50 72 58 
f 75 80 72 
f 81 73 54 
f 71 81 54 
f 76 73 81 
f 50 54 73 
f 82 83 84 
f 85 82 84 
f 86 83 82 
f 87 84 83 
f 88 84 89 
f 90 88 89 
f 85 84 88 
f 87 89 84 
f 91 82 92 
f 115 91 92 
f 86 82 91 
f 85 92 82 
f 94 83 95 
f 125 94 95 
f 87 83 94 
f 86 95 83 
f 97 98 102 
f 100 97 102 
f 87 98 97 
f 101 102 98 
f 314 428 259 
f 43 427 318 
f 235 259 240 
f 240 259 428 
f 89 97 105 
f 90 89 105 
f 87 97 89 
f 100 105 97 
f 106 98 94 
f 125 106 94 
f 101 98 106 
f 87 94 98 
f 107 108 112 
f 439 107 112 
f 85 108 107 
f 111 112 108 
f 329 182 186 
f 114 112 113 
f 361 222 223 
f 111 113 112 
f 92 107 115 
f 463 195 274 
f 85 107 92 
f 439 115 107 
f 90 108 88 
f 435 186 182 
f 111 108 90 
f 85 88 108 
f 117 118 119 
f 120 117 119 
f 86 118 117 
f 121 119 118 
f 473 360 455 
f 239 43 319 
f 120 119 123 
f 121 123 119 
f 95 117 125 
f 470 450 474 
f 86 117 95 
f 120 125 117 
f 126 118 91 
f 115 126 91 
f 121 118 126 
f 86 91 118 
f 127 128 129 
f 130 127 129 
f 131 128 127 
f 132 129 128 
f 133 129 134 
f 90 133 134 
f 130 129 133 
f 132 134 129 
f 135 127 136 
f 152 135 136 
f 131 127 135 
f 130 136 127 
f 138 128 139 
f 161 138 139 
f 132 128 138 
f 131 139 128 
f 141 142 113 
f 111 141 113 
f 132 142 141 
f 144 113 142 
f 101 106 261 
f 125 456 106 
f 313 261 456 
f 456 261 106 
f 134 141 90 
f 256 362 174 
f 132 141 134 
f 111 90 141 
f 146 142 138 
f 161 146 138 
f 144 142 146 
f 132 138 142 
f 147 148 151 
f 59 147 151 
f 130 148 147 
f 100 151 148 
f 280 190 308 
f 104 151 102 
f 190 307 308 
f 100 102 151 
f 136 147 152 
f 200 362 195 
f 130 147 136 
f 59 152 147 
f 105 148 133 
f 90 105 133 
f 100 148 105 
f 130 133 148 
f 153 154 155 
f 156 153 155 
f 131 154 153 
f 157 155 154 
f 303 155 159 
f 469 282 350 
f 156 155 303 
f 157 159 155 
f 139 153 161 
f 471 318 437 
f 131 153 139 
f 156 161 153 
f 162 154 135 
f 152 162 135 
f 157 154 162 
f 131 135 154 
f 163 164 165 
f 166 163 165 
f 167 164 163 
f 170 165 164 
f 171 165 170 
f 358 96 59 
f 166 165 171 
f 368 307 152 
f 172 163 173 
f 174 172 173 
f 167 163 172 
f 166 173 163 
f 175 164 204 
f 150 62 103 
f 170 164 175 
f 167 204 164 
f 170 179 183 
f 104 59 151 
f 149 18 295 
f 253 351 406 
f 335 474 450 
f 42 183 184 
f 357 222 361 
f 179 184 183 
f 340 344 436 
f 171 170 185 
f 368 59 96 
f 183 185 170 
f 280 308 377 
f 204 179 175 
f 351 190 406 
f 170 175 179 
f 187 188 192 
f 320 284 241 
f 166 188 187 
f 280 377 93 
f 205 320 241 
f 123 192 193 
f 412 241 284 
f 188 193 192 
f 173 187 194 
f 174 173 194 
f 166 187 173 
f 192 194 187 
f 76 181 78 
f 239 360 427 
f 348 93 352 
f 166 171 188 
f 39 64 29 
f 329 103 62 
f 167 197 199 
f 200 199 197 
f 419 199 202 
f 77 316 458 
f 329 62 64 
f 200 202 199 
f 409 150 103 
f 472 318 427 
f 167 199 204 
f 28 62 150 
f 174 197 172 
f 192 230 160 
f 200 197 174 
f 167 172 197 
f 206 207 208 
f 209 206 208 
f 210 207 206 
f 211 208 207 
f 212 208 213 
f 171 212 213 
f 209 208 212 
f 211 213 208 
f 214 206 215 
f 216 214 215 
f 210 206 214 
f 209 215 206 
f 217 207 218 
f 240 217 218 
f 211 207 217 
f 210 218 207 
f 220 221 193 
f 188 220 193 
f 211 221 220 
f 332 352 377 
f 315 169 317 
f 123 193 224 
f 465 274 376 
f 221 224 193 
f 213 220 171 
f 472 427 394 
f 211 220 213 
f 188 171 220 
f 280 137 406 
f 240 221 217 
f 352 93 377 
f 211 217 221 
f 103 186 409 
f 435 409 186 
f 209 227 229 
f 183 229 227 
f 42 229 183 
f 387 203 464 
f 387 318 471 
f 358 59 104 
f 215 229 231 
f 216 215 231 
f 209 229 215 
f 329 186 103 
f 185 227 212 
f 171 185 212 
f 183 227 185 
f 209 212 227 
f 232 233 234 
f 235 232 234 
f 210 233 232 
f 236 234 233 
f 342 234 238 
f 472 394 350 
f 235 234 342 
f 236 238 234 
f 218 232 240 
f 387 43 318 
f 210 232 218 
f 235 240 232 
f 216 233 214 
f 121 177 230 
f 236 233 216 
f 210 214 233 
f 242 243 244 
f 245 242 244 
f 246 243 242 
f 247 244 243 
f 250 244 249 
f 454 459 445 
f 245 244 250 
f 247 249 244 
f 251 242 252 
f 253 251 252 
f 246 242 251 
f 245 252 242 
f 254 243 255 
f 283 254 255 
f 247 243 254 
f 246 255 243 
f 249 258 262 
f 306 249 262 
f 247 258 249 
f 157 162 140 
f 140 351 116 
f 78 262 263 
f 28 168 18 
f 258 263 262 
f 28 29 62 
f 250 249 306 
f 29 64 62 
f 472 350 359 
f 315 295 18 
f 283 258 254 
f 28 18 149 
f 247 254 258 
f 39 99 180 
f 472 359 437 
f 245 267 269 
f 313 445 457 
f 159 267 272 
f 144 359 282 
f 269 267 159 
f 309 180 310 
f 425 169 168 
f 253 252 269 
f 245 269 252 
f 437 359 146 
f 459 457 445 
f 473 394 360 
f 314 457 459 
f 245 250 267 
f 275 276 277 
f 278 275 277 
f 246 276 275 
f 279 277 276 
f 381 277 281 
f 279 137 56 
f 278 277 381 
f 279 281 277 
f 255 275 283 
f 177 298 160 
f 246 275 255 
f 278 283 275 
f 253 276 251 
f 205 376 274 
f 279 276 253 
f 246 251 276 
f 285 286 287 
f 305 285 287 
f 289 286 285 
f 290 287 286 
f 291 287 292 
f 250 291 292 
f 305 287 291 
f 290 292 287 
f 293 285 305 
f 295 293 305 
f 289 285 293 
f 295 99 149 
f 296 286 297 
f 319 296 297 
f 290 286 296 
f 289 297 286 
f 299 300 272 
f 267 299 272 
f 290 300 299 
f 302 272 300 
f 240 428 225 
f 159 272 303 
f 428 459 225 
f 302 303 272 
f 292 299 250 
f 394 427 360 
f 290 299 292 
f 267 250 299 
f 304 300 296 
f 319 304 296 
f 302 300 304 
f 290 296 300 
f 305 306 309 
f 376 241 335 
f 28 149 29 
f 269 159 116 
f 450 376 335 
f 78 309 262 
f 412 335 241 
f 306 262 309 
f 99 29 149 
f 295 305 310 
f 39 29 99 
f 309 310 305 
f 359 350 282 
f 250 306 291 
f 157 116 159 
f 305 291 306 
f 311 312 316 
f 77 311 316 
f 289 312 311 
f 315 316 312 
f 348 56 93 
f 144 146 359 
f 280 93 137 
f 315 317 316 
f 297 311 319 
f 174 194 298 
f 289 311 297 
f 77 319 311 
f 295 312 293 
f 450 465 376 
f 315 312 295 
f 289 293 312 
f 321 322 323 
f 324 321 323 
f 325 322 321 
f 326 323 322 
f 327 323 328 
f 343 327 328 
f 324 323 327 
f 326 328 323 
f 330 321 331 
f 332 330 331 
f 325 321 330 
f 324 331 321 
f 333 322 334 
f 361 333 334 
f 326 322 333 
f 325 334 322 
f 336 337 341 
f 384 336 341 
f 326 337 336 
f 340 341 337 
f 76 81 39 
f 238 341 342 
f 435 182 23 
f 340 342 341 
f 328 336 343 
f 313 222 261 
f 326 336 328 
f 384 343 336 
f 344 337 333 
f 361 344 333 
f 340 337 344 
f 326 333 337 
f 345 346 347 
f 348 345 347 
f 324 346 345 
f 349 347 346 
f 281 347 349 
f 455 124 458 
f 348 347 281 
f 357 104 264 
f 331 345 352 
f 332 331 352 
f 324 345 331 
f 348 352 345 
f 353 346 327 
f 343 353 327 
f 349 346 353 
f 324 327 346 
f 354 355 356 
f 357 354 356 
f 325 355 354 
f 358 356 355 
f 161 203 471 
f 387 471 203 
f 357 356 104 
f 358 104 356 
f 334 354 361 
f 121 126 177 
f 325 354 334 
f 357 361 354 
f 332 355 330 
f 387 395 43 
f 358 355 332 
f 325 330 355 
f 363 364 365 
f 366 363 365 
f 367 364 363 
f 370 365 364 
f 343 365 370 
f 23 182 70 
f 366 365 343 
f 115 284 177 
f 371 363 372 
f 373 371 372 
f 367 363 371 
f 366 372 363 
f 374 364 375 
f 396 374 375 
f 370 364 374 
f 367 375 364 
f 370 378 349 
f 357 264 222 
f 156 203 161 
f 380 349 378 
f 470 474 439 
f 281 349 381 
f 412 439 474 
f 380 381 349 
f 313 223 222 
f 343 370 353 
f 412 284 115 
f 349 353 370 
f 382 378 374 
f 396 382 374 
f 380 378 382 
f 370 374 378 
f 221 260 224 
f 386 383 384 
f 366 384 383 
f 137 93 56 
f 238 384 341 
f 123 230 192 
f 386 384 238 
f 71 64 39 
f 372 383 388 
f 373 372 388 
f 366 383 372 
f 386 388 383 
f 329 64 71 
f 470 439 114 
f 78 181 309 
f 366 343 384 
f 389 390 391 
f 392 389 391 
f 367 390 389 
f 393 391 390 
f 395 464 304 
f 302 304 464 
f 392 391 33 
f 393 33 391 
f 375 389 396 
f 115 177 126 
f 367 389 375 
f 392 396 389 
f 373 390 371 
f 295 310 99 
f 393 390 373 
f 367 371 390 
f 398 399 400 
f 401 398 400 
f 402 399 398 
f 403 400 399 
f 404 400 405 
f 420 404 405 
f 401 400 404 
f 403 405 400 
f 407 398 408 
f 409 407 408 
f 402 398 407 
f 401 408 398 
f 410 399 411 
f 438 410 411 
f 403 399 410 
f 402 411 399 
f 413 414 418 
f 461 413 418 
f 403 414 413 
f 417 418 414 
f 101 261 264 
f 202 418 419 
f 261 222 264 
f 417 419 418 
f 405 413 420 
f 302 464 303 
f 403 413 405 
f 461 420 413 
f 421 414 410 
f 438 421 410 
f 417 414 421 
f 403 410 414 
f 422 423 424 
f 425 422 424 
f 401 423 422 
f 426 424 423 
f 317 424 426 
f 161 437 146 
f 425 424 317 
f 463 274 465 
f 408 422 429 
f 409 408 429 
f 401 422 408 
f 425 429 422 
f 430 423 404 
f 420 430 404 
f 426 423 430 
f 401 404 423 
f 431 432 433 
f 434 431 433 
f 402 432 431 
f 435 433 432 
f 313 456 445 
f 79 445 456 
f 434 433 23 
f 435 23 433 
f 411 431 438 
f 177 284 320 
f 402 431 411 
f 434 438 431 
f 409 432 407 
f 472 437 318 
f 435 432 409 
f 402 407 432 
f 440 441 442 
f 443 440 442 
f 444 441 440 
f 447 442 441 
f 420 442 447 
f 309 181 180 
f 443 442 420 
f 191 436 344 
f 448 440 449 
f 450 448 449 
f 444 440 448 
f 443 449 440 
f 451 441 452 
f 473 451 452 
f 447 441 451 
f 444 452 441 
f 447 455 426 
f 279 56 281 
f 362 274 195 
f 358 332 96 
f 348 281 56 
f 317 426 458 
f 406 137 253 
f 455 458 426 
f 368 152 59 
f 420 447 430 
f 314 436 191 
f 426 430 447 
f 379 96 332 
f 473 455 451 
f 368 96 379 
f 447 451 455 
f 76 39 181 
f 463 460 461 
f 443 461 460 
f 454 225 459 
f 202 461 418 
f 317 458 316 
f 463 461 202 
f 39 180 181 
f 449 460 465 
f 450 449 465 
f 443 460 449 
f 463 465 460 
f 125 79 456 
f 114 439 112 
f 314 459 428 
f 443 420 461 
f 466 467 468 
f 469 466 468 
f 444 467 466 
f 470 468 467 
f 464 203 303 
f 156 303 203 
f 469 468 114 
f 470 114 468 
f 452 466 473 
f 239 124 360 
f 444 466 452 
f 469 473 466 
f 450 467 448 
f 161 471 437 
f 470 467 450 
f 444 448 467 
f 475 476 477 
f 478 475 477 
f 196 476 475 
f 480 477 476 
f 481 477 482 
f 373 481 482 
f 478 477 481 
f 480 482 477 
f 257 475 198 
f 216 257 198 
f 196 475 257 
f 478 198 475 
f 34 476 196 
f 412 474 335 
f 480 476 34 
f 454 265 260 
f 279 253 137 
f 393 294 288 
f 480 288 294 
f 454 79 265 
f 33 288 31 
f 319 395 304 
f 393 288 33 
f 454 260 225 
f 482 294 373 
f 319 43 395 
f 480 294 482 
f 393 373 294 
f 125 265 79 
f 200 195 202 
f 120 265 125 
f 480 34 288 
f 369 453 271 
f 236 369 271 
f 478 453 369 
f 386 271 453 
f 473 350 394 
f 469 350 473 
f 236 271 238 
f 386 238 271 
f 198 369 216 
f 177 160 230 
f 478 369 198 
f 236 216 369 
f 388 453 481 
f 373 388 481 
f 386 453 388 
f 478 481 453 
f 239 77 124 
f 40 196 178 
f 329 71 182 
f 260 265 224 
f 113 282 114 
f 144 282 113 
f 40 178 42 
f 229 42 178 
f 315 18 169 
f 34 196 45 
f 18 168 169 
f 40 45 196 
f 231 178 257 
f 216 231 257 
f 229 178 231 
f 196 257 178 
f 226 228 479 
f 15 226 479 
f 273 228 226 
f 266 479 228 
f 35 479 270 
f 80 35 270 
f 15 479 35 
f 266 270 479 
f 12 226 176 
f 283 12 176 
f 273 226 12 
f 15 176 226 
f 109 228 462 
f 396 109 462 
f 266 228 109 
f 273 462 228 
f 446 339 237 
f 63 446 237 
f 266 339 446 
f 392 237 339 
f 32 237 33 
f 387 464 395 
f 63 237 32 
f 392 33 237 
f 270 446 65 
f 80 270 65 
f 266 446 270 
f 63 65 446 
f 396 339 109 
f 120 224 265 
f 392 339 396 
f 266 109 339 
f 189 338 263 
f 258 189 263 
f 15 338 189 
f 75 263 338 
f 253 269 351 
f 310 180 99 
f 269 116 351 
f 75 78 263 
f 176 189 258 
f 283 176 258 
f 15 189 176 
f 152 140 162 
f 80 338 35 
f 102 264 104 
f 75 338 80 
f 15 35 338 
f 268 248 381 
f 380 268 381 
f 273 248 268 
f 278 381 248 
f 205 256 320 
f 174 298 256 
f 177 320 298 
f 298 320 256 
f 462 268 382 
f 396 462 382 
f 273 268 462 
f 380 382 268 
f 283 248 12 
f 192 160 194 
f 278 248 283 
f 273 12 248 
f 158 122 301 
f 416 158 301 
f 201 122 158 
f 397 301 122 
f 44 301 397 
f 368 308 307 
f 416 301 44 
f 429 168 150 
f 219 158 110 
f 204 219 110 
f 201 158 219 
f 416 110 158 
f 145 122 143 
f 438 145 143 
f 397 122 145 
f 201 143 122 
f 397 38 415 
f 20 397 415 
f 409 429 150 
f 434 415 38 
f 21 415 23 
f 454 445 79 
f 20 415 21 
f 434 23 415 
f 28 150 168 
f 44 397 25 
f 425 168 429 
f 20 25 397 
f 438 38 145 
f 121 230 123 
f 434 38 438 
f 397 145 38 
f 69 22 184 
f 179 69 184 
f 416 22 69 
f 332 377 379 
f 361 191 344 
f 42 184 41 
f 152 307 140 
f 22 41 184 
f 110 69 179 
f 204 110 179 
f 416 69 110 
f 368 379 308 
f 140 307 190 
f 101 264 102 
f 377 308 379 
f 416 44 22 
f 68 385 419 
f 417 68 419 
f 201 385 68 
f 199 419 385 
f 314 191 457 
f 361 223 191 
f 313 457 223 
f 223 457 191 
f 143 68 421 
f 438 143 421 
f 201 68 143 
f 417 421 68 
f 204 385 219 
f 239 427 43 
f 199 385 204 
f 201 219 385 
