v 0.399607 0.912982 0.082324
v 0.399607 0.912982 -0.082324
v 0.266405 0.963861 0
v 0.220117 -0.132792 0.966393
v -0.068542 -0.55205536 0.8353672
v 0.22974586 0.5438614 0.81230164
v 0.238677 0.386187 -0.891007
v 0.18930702 0.9725363 -0.16212082
v 0.05075957 1.0002408 0.07387352
v 0.519258 0.840178 0.156434
v 0.3013518 0.93031836 0.23018265
v -0.707107 0.371748 0.601501
v 0.386187 0.891007 -0.238677
v 0.55565643 0.83336526 -0.07307625
v -0.7010069 0.6164303 0.36518097
v -0.238677 0.386187 0.891007
v 0 -0.525731 -0.850651
v -0.30998993 -0.57850647 -0.7603569
v 0.453991 -0.46843 -0.757935
v 0.082324 0.399607 0.912982
v 0.09987545 0.90385056 -0.42381668
v 0.70454025 0.6722418 -0.23569489
v -0.0037118196 0.80825424 -0.5950661
v -0.156434 0.519258 0.840178
v 0.30804873 0.87925243 -0.37449646
v 0.707107 -0.371748 0.601501
v 0.067145824 0.9698076 0.24443436
v -0.425325 -0.688191 -0.587785
v -0.646578 0.513375 -0.564254
v 0.5720482 0.13994312 -0.81222916
v 0.12975693 0.90070343 0.42009354
v -0.099859476 0.9038429 0.4238205
v 0.0037118196 0.80825424 0.5950661
v 0.45236588 0.8088045 0.3874855
v 0.16246 0.262866 -0.951057
v 0.04343033 -0.6632767 0.75019836
v 0.64733934 0.7484417 0.17168236
v 0.22625828 0.7479534 -0.63022614
v -0.671608 0.6443119 -0.37622833
v 0.238677 -0.386187 0.891007
v 0.7461339 0.6676005 -0.034426212
v 0.83966684 0.5441945 0.07853699
v -0.646578 -0.513375 -0.564254
v 0.5782976 0.7605643 -0.3096962
v -0.27348328 -0.55740356 0.787117
v -0.399607 0.912982 -0.082324
v -0.399607 0.912982 0.082324
v -0.266405 0.963861 0
v 0.38345337 -0.07040024 0.92337036
v 0.5483322 0.2876587 0.7879181
v -0.20576334 0.95731163 0.22432327
v -0.133071 0.987688 -0.082242
v -0.133071 0.987688 0.082242
v -0.5616331 0.8067882 -0.19690132
v -0.3061188 0.9282851 -0.23164177
v 0.36805725 -0.3135891 -0.8798523
v -0.386187 0.891007 0.238677
v -0.5519963 0.8354017 0.068696976
v -0.2620144 -0.8169098 0.5208664
v 0.156434 -0.519258 0.840178
v 0.3798151 -0.6705208 -0.64364624
v -0.513375 0.564254 -0.646578
v -0.34678817 0.8340092 0.43764877
v -0.564254 0.646578 -0.513375
v -0.14125061 0.18860054 0.9760885
v 0.5719948 -0.13995838 0.8122711
v -0.046412706 0.98242736 -0.20345306
v 0.6049576 0.346838 -0.72309494
v 0.7484665 0.5190582 -0.42422104
v -0.12975693 0.90070343 -0.42009354
v -0.45236588 0.8088045 -0.3874855
v 0.70102453 -0.6162529 0.3652153
v -0.68212736 0.7313547 -0.09131622
v -0.3258953 -0.33839798 -0.88908005
v -0.702046 0.693781 0.160622
v 0 -0.266405 0.963861
v -0.6722412 -0.23576927 -0.7045593
v -0.80823565 0.59507966 0.0037566423
v -0.082324 0.399607 0.912982
v -0.57495975 0.76107025 0.31375122
v -0.16246 -0.262866 0.951057
v 0.399607 -0.912982 -0.082324
v 0.399607 -0.912982 0.082324
v 0.266405 -0.963861 0
v -0.757935 -0.453991 0.46843
v 0.22975063 -0.5438576 -0.8122864
v -0.4198532 -0.43370056 0.8006706
v -0.27348328 0.55740356 -0.787117
v 0.18930702 -0.9725363 0.16212082
v 0.05075957 -1.0002408 -0.07387352
v 0.5613451 -0.8069217 -0.19719887
v 0.3013518 -0.93031836 -0.23018265
v -0.5484009 -0.2877655 0.7878723
v 0.386187 -0.891007 0.238677
v 0.5519963 -0.8354017 0.068696976
v -0.016268253 0.6446266 0.7689476
v -0.3676529 0.31506348 0.87968445
v 0.264083 -0.916244 0.301259
v -0.7983866 0.45251846 -0.4078045
v -0.238677 0.386187 -0.891007
v 0.34697628 -0.83412933 0.43724823
v 0.09987545 -0.90385056 0.42381668
v -0.3804474 0.67264175 -0.6405678
v -0.0037118196 -0.80825424 0.5950661
v -0.3804474 -0.67264175 0.6405678
v -0.5672188 0.13750458 0.8163719
v 0.30117607 -0.09398556 -0.95273685
v 0.067145824 -0.9698076 -0.24443436
v 0.23137474 0.5420227 -0.81295395
v 0.082242 -0.133071 0.987688
v 0.160622 0.702046 0.693781
v 0.12975693 -0.90070343 -0.42009354
v -0.099859476 -0.9038429 -0.4238205
v 0.0037118196 -0.80825424 -0.5950661
v 0.45236588 -0.8088045 -0.3874855
v -0.7883053 -0.54623795 0.2906456
v -0.53458595 0.41400146 0.74209976
v 0.6821451 -0.73134726 -0.091290474
v -0.156434 -0.519258 -0.840178
v 0.702046 -0.693781 0.160622
v -0.14463615 0.08105564 -0.9901283
v 0.513375 0.564254 -0.646578
v 0.80823565 -0.59507966 0.0037566423
v -0.062836766 0.5532341 -0.8352852
v 0.5749512 -0.76112795 0.31380463
v 0.16246 -0.262866 0.951057
v -0.399607 -0.912982 0.082324
v -0.399607 -0.912982 -0.082324
v -0.266405 -0.963861 0
v -0.262866 -0.951057 0.16246
v -0.525731 -0.850651 0
v 0.16246 -0.262866 -0.951057
v -0.133071 -0.987688 0.082242
v -0.133071 -0.987688 -0.082242
v -0.6440735 -0.37853622 0.67024994
v -0.386187 -0.891007 0.238677
v -0.01623249 -0.64460754 -0.76895523
v 0.082324 0.399607 -0.912982
v 0.513375 -0.564254 0.646578
v -0.671608 -0.6443119 0.37622833
v -0.132792 -0.966393 -0.220117
v -0.2983545 -0.93119955 -0.22753716
v 0.453991 0.46843 -0.757935
v -0.34682965 -0.83391 -0.43797684
v 0.371748 0.601501 -0.707107
v 0.08213711 0.047680378 0.99983907
v -0.264083 -0.916244 0.301259
v -0.046412706 -0.98242736 0.20345306
v -0.64393234 0.3786564 -0.670311
v -0.4198208 0.43388367 -0.8006611
v -0.12975693 -0.90070343 0.42009354
v -0.45236588 -0.8088045 0.3874855
v -0.5365143 -0.1694156 -0.82956696
v -0.588354 -0.795933 0.16776466
v 0.46843 -0.757935 0.453991
v -0.6920026 -0.72384524 -0.06770182
v -0.702046 -0.693781 0.160622
v 0.646578 0.513375 -0.564254
v -0.83966684 -0.5441945 0.07853699
v 0 0.266405 -0.963861
v -0.5476346 -0.8097689 -0.2306366
v 0.082242 0.133071 -0.987688
v 0.912982 -0.082324 -0.399607
v 0.912982 0.082324 -0.399607
v 0.963861 0 -0.266405
v 0.220117 0.132792 -0.966393
v 0.81783676 -0.03185463 -0.57870483
v -0.5483322 0.2876587 -0.7879181
v 0.564254 0.646578 0.513375
v 0.9750576 0.14417052 -0.19052696
v 0.9999622 -0.08105519 -0.047564507
v -0.2192564 -0.7513313 -0.6284523
v 0.9296279 -0.21788836 -0.3115425
v 0.8089409 -0.23078632 -0.54808044
v 0.891007 0.238677 -0.386187
v -0.7758026 0.48537064 0.41020966
v 0.671608 -0.6443119 -0.37622833
v 0.7883053 0.54623795 0.2906456
v 0.8803854 0.3618579 -0.318882
v -0.36223984 -0.20938301 0.9121132
v -0.792649 0.571252 -0.213023
v -0.2620144 0.8169098 -0.5208664
v 0.94074583 0.34594512 -0.056147575
v 0.8295413 0.53653336 -0.16944313
v 0 -0.266405 -0.963861
v 0.3834381 0.0703907 -0.9233742
v 0.367939 0.31178284 -0.88090706
v 0.96938217 -0.24246755 -0.07342434
v 0.31233215 -0.5761032 0.7609749
v -0.646578 -0.513375 0.564254
v 0.5344429 -0.41377258 0.74238205
v 0.8959514 -0.4187641 -0.17242432
v 0.9216106 -0.38751268 0.071852684
v -0.238677 -0.386187 0.891007
v 0.564254 -0.646578 0.513375
v 0.671608 0.6443119 0.37622833
v -0.16246 0.262866 -0.951057
v 0.64393234 0.3786564 0.670311
v 0.72384644 0.06782347 -0.69200134
v 0.693781 -0.160622 -0.702046
v 0.3676796 -0.31245995 0.88080406
v 0.5442009 -0.078564644 -0.83966446
v -0.70231 -0.647412 -0.296005
v 0.8102951 0.22948074 -0.5472412
v 0 0.266405 0.963861
v 0.912982 0.082324 0.399607
v 0.912982 -0.082324 0.399607
v 0.963861 0 0.266405
v 0.951057 0.16246 0.262866
v 0.16246 0.262866 0.951057
v 0.951057 -0.16246 0.262866
v 0.082324 -0.399607 -0.912982
v 0.987688 -0.082242 0.133071
v -0.31120872 0.5768738 0.76088715
v 0.891007 0.238677 0.386187
v 0.78710556 0.27348137 0.55739594
v 0.891007 -0.238677 0.386187
v 0.160622 -0.702046 -0.693781
v 0.707107 0.371748 -0.601501
v 0.966393 -0.220117 0.132792
v 0.8819752 -0.36112118 0.31600952
v 0.22647285 -0.7487793 0.62921524
v -0.36235046 0.20947456 -0.9120693
v 0.82682526 -0.537405 0.17680359
v 0.77581596 -0.48541164 0.41030884
v -0.646578 0.513375 0.564254
v 0.9902423 0.14447531 0.08016777
v -0.513375 0.564254 0.646578
v 0.9122343 0.3621173 0.20903587
v 0.792649 -0.571252 -0.213023
v -0.14464664 -0.08106899 0.99012494
v -0.601501 -0.707107 -0.371748
v 0.8359909 0.06443697 0.55189896
v -0.160622 0.702046 -0.693781
v 0.7238655 -0.06794995 0.69198227
v 0.693781 0.160622 0.702046
v 0.2620144 -0.8169098 -0.5208664
v 0.544178 0.07855415 0.8396759
v 0.082140446 -0.047677517 -0.9998387
v 0.810297 -0.22937965 0.5472641
v 0.513375 -0.564254 -0.646578
v -0.912982 -0.082324 0.399607
v -0.912982 0.082324 0.399607
v -0.963861 0 0.266405
v -0.951057 -0.16246 0.262866
v 0.419281 0.7406254 -0.5324478
v 0.37979126 0.670496 0.6436806
v -0.647412 0.296005 0.70231
v -0.9733405 0.15652132 0.1897049
v -1.000273 -0.076833665 0.04976225
v -0.082324 0.399607 -0.912982
v -0.891007 -0.238677 0.386187
v -0.78710556 -0.27348137 0.55739594
v -0.891007 0.238677 0.386187
v -0.46843 -0.757935 -0.453991
v 0.6440735 -0.37853622 -0.67024994
v 0.8008032 0.42024994 0.43304443
v -0.8819752 0.36112118 0.31600952
v 0.647412 -0.296005 0.70231
v -0.5364723 -0.41679573 -0.73926926
v 0.646578 0.513375 0.564254
v -0.9216106 0.38751268 0.071852684
v -0.82682526 0.537405 0.17680359
v -0.34593582 -0.05615431 -0.9407444
v 0.36810303 0.31380653 0.8797245
v -0.425325 0.688191 0.587785
v -0.9529502 -0.30066156 0.09377289
v 0.3011799 0.093997955 0.952734
v -0.8797178 -0.36827445 0.3137226
v -0.46843 0.757935 0.453991
v 0.453991 0.46843 0.757935
v -0.9233748 -0.3834362 -0.07038212
v -0.688191 -0.587785 -0.425325
v 0.5484009 -0.2877655 -0.7878723
v 0.238677 -0.386187 -0.891007
v -0.8360386 -0.06428614 0.5518074
v -0.14124775 -0.18860626 -0.9760833
v -0.72381973 0.06781763 0.6920471
v -0.693781 -0.160622 0.702046
v 0.646578 -0.513375 0.564254
v -0.5442009 -0.078564644 0.83966446
v 0.04343033 0.6632767 -0.75019836
v -0.81031036 0.22942829 0.5472336
v 0.564254 -0.646578 -0.513375
v -0.912982 0.082324 -0.399607
v -0.912982 -0.082324 -0.399607
v -0.963861 0 -0.266405
v 0.2620144 0.8169098 0.5208664
v -0.513375 -0.564254 -0.646578
v -0.951057 -0.16246 -0.262866
v -0.082324 -0.399607 -0.912982
v -0.987688 -0.082242 -0.133071
v -0.22188187 0.74777985 0.6324539
v -0.564254 0.646578 0.513375
v -0.807621 0.22542763 -0.5529785
v -0.891007 -0.238677 -0.386187
v -0.8333969 -0.07311106 -0.55561066
v 0.8005543 -0.4503317 -0.4061699
v -0.966393 -0.220117 -0.132792
v -0.89306545 -0.36970997 -0.2655716
v 0.564254 0.646578 -0.513375
v 0 0.525731 0.850651
v -0.8123206 -0.57192135 -0.1400919
v -0.79895115 -0.4613905 -0.39577484
v -0.9246273 0.22570705 -0.3203354
v -0.9888912 0.16637696 -0.07722378
v -0.564254 -0.646578 0.513375
v -0.513375 -0.564254 0.646578
v -0.8959514 0.4187641 -0.17242432
v -0.34595108 0.05613804 0.94074154
v -0.160622 -0.702046 0.693781
v -0.7326431 0.12997437 -0.67185974
v 0.425325 -0.688191 0.587785
v 0.513375 0.564254 0.646578
v 0.238677 0.386187 0.891007
v -0.667614 -0.03441429 -0.7461281
v -0.544178 0.07855415 -0.8396759
v -0.564254 -0.646578 -0.513375
v -0.760376 -0.3098545 -0.5784302
v 0.646578 -0.513375 -0.564254
v -0.082324 -0.399607 0.912982
v 0.082324 -0.399607 0.912982
f 1 2 3 
f 11 1 3 
f 14 2 1 
f 8 3 2 
f 9 3 8 
f 198 271 50 
f 11 3 9 
f 202 107 186 
f 10 1 11 
f 34 10 11 
f 14 1 10 
f 218 114 137 
f 13 2 14 
f 44 13 14 
f 8 2 13 
f 212 291 185 
f 8 25 21 
f 67 8 21 
f 317 153 316 
f 277 291 74 
f 120 123 224 
f 253 269 85 
f 223 317 168 
f 157 140 116 
f 39 99 181 
f 9 8 67 
f 56 107 202 
f 86 275 56 
f 17 119 291 
f 44 25 13 
f 279 93 281 
f 8 13 25 
f 11 27 31 
f 288 11 31 
f 28 255 318 
f 88 124 100 
f 256 241 19 
f 33 31 32 
f 71 39 54 
f 27 32 31 
f 199 30 68 
f 56 202 274 
f 234 124 88 
f 288 34 11 
f 143 68 187 
f 200 174 256 
f 247 169 34 
f 11 9 27 
f 14 37 41 
f 22 14 41 
f 132 212 185 
f 202 186 30 
f 196 257 178 
f 269 116 85 
f 140 190 85 
f 37 42 41 
f 277 185 291 
f 61 115 237 
f 17 291 212 
f 22 44 14 
f 35 187 166 
f 34 37 10 
f 266 270 294 
f 14 10 37 
f 46 47 48 
f 55 46 48 
f 58 47 46 
f 51 48 47 
f 52 48 53 
f 9 52 53 
f 55 48 52 
f 51 53 48 
f 54 46 55 
f 71 54 55 
f 58 46 54 
f 317 223 264 
f 57 47 58 
f 80 57 58 
f 51 47 57 
f 44 301 246 
f 119 137 18 
f 27 51 32 
f 300 304 303 
f 63 32 51 
f 235 66 259 
f 201 191 66 
f 271 314 247 
f 191 259 66 
f 53 51 9 
f 109 38 145 
f 187 30 186 
f 27 9 51 
f 63 51 57 
f 80 63 57 
f 198 314 271 
f 162 166 239 
f 55 67 70 
f 182 55 70 
f 161 255 144 
f 69 22 184 
f 240 225 221 
f 23 70 21 
f 132 275 212 
f 67 21 70 
f 226 228 294 
f 260 77 153 
f 69 44 22 
f 182 71 55 
f 246 145 38 
f 9 67 52 
f 132 56 275 
f 55 52 67 
f 204 219 69 
f 75 58 73 
f 105 308 307 
f 219 158 69 
f 107 166 186 
f 260 319 77 
f 75 73 78 
f 197 251 160 
f 88 100 150 
f 277 74 264 
f 69 301 44 
f 75 80 58 
f 35 160 138 
f 124 138 251 
f 251 138 160 
f 58 54 73 
f 82 83 84 
f 92 82 84 
f 95 83 82 
f 89 84 83 
f 90 84 89 
f 6 265 271 
f 92 84 90 
f 311 45 105 
f 91 82 92 
f 115 91 92 
f 95 82 91 
f 6 271 247 
f 94 83 95 
f 125 94 95 
f 89 83 94 
f 278 248 283 
f 89 98 102 
f 148 89 102 
f 114 237 112 
f 101 102 98 
f 191 26 259 
f 43 289 318 
f 235 259 240 
f 240 259 26 
f 132 239 107 
f 90 89 148 
f 191 280 26 
f 266 63 270 
f 101 98 94 
f 125 101 94 
f 80 294 270 
f 89 94 98 
f 92 108 112 
f 237 92 112 
f 177 284 320 
f 196 169 261 
f 200 274 202 
f 114 112 113 
f 214 228 117 
f 108 113 112 
f 38 109 282 
f 107 239 166 
f 124 282 109 
f 237 115 92 
f 265 50 271 
f 234 103 182 
f 34 169 196 
f 92 90 108 
f 246 301 122 
f 120 95 118 
f 117 12 248 
f 68 122 158 
f 18 260 74 
f 260 43 319 
f 120 118 123 
f 239 121 162 
f 69 158 301 
f 218 86 61 
f 158 122 301 
f 120 125 95 
f 35 162 160 
f 197 160 121 
f 121 160 162 
f 95 91 118 
f 127 128 129 
f 130 127 129 
f 131 128 127 
f 142 129 128 
f 133 129 134 
f 90 133 134 
f 130 129 133 
f 142 134 129 
f 154 127 136 
f 152 154 136 
f 131 127 154 
f 130 136 127 
f 142 128 161 
f 145 122 143 
f 37 196 178 
f 131 161 128 
f 141 142 113 
f 108 141 113 
f 80 270 63 
f 144 113 142 
f 15 294 80 
f 125 155 101 
f 313 101 155 
f 264 121 277 
f 134 141 90 
f 118 230 123 
f 142 141 134 
f 108 90 141 
f 225 72 224 
f 161 144 142 
f 32 293 33 
f 103 71 182 
f 147 148 151 
f 59 147 151 
f 130 148 147 
f 223 168 150 
f 135 190 308 
f 104 151 102 
f 190 307 308 
f 148 102 151 
f 136 147 152 
f 200 256 274 
f 130 147 136 
f 59 152 147 
f 174 298 256 
f 90 148 133 
f 278 106 248 
f 130 133 148 
f 68 158 219 
f 68 143 122 
f 131 154 156 
f 157 156 154 
f 303 156 159 
f 258 176 263 
f 197 100 251 
f 157 159 156 
f 109 145 143 
f 232 318 255 
f 131 156 161 
f 246 122 145 
f 265 238 50 
f 74 291 119 
f 176 15 263 
f 236 50 238 
f 163 164 165 
f 173 163 165 
f 167 164 163 
f 170 165 164 
f 171 165 170 
f 311 105 59 
f 173 165 171 
f 105 307 152 
f 174 163 173 
f 234 23 282 
f 167 163 174 
f 113 172 114 
f 175 164 204 
f 150 62 103 
f 170 164 175 
f 167 204 164 
f 170 179 183 
f 104 59 151 
f 101 222 102 
f 253 85 135 
f 111 6 247 
f 42 183 184 
f 283 176 258 
f 179 184 183 
f 179 69 184 
f 171 170 227 
f 236 198 50 
f 183 227 170 
f 135 308 87 
f 204 179 175 
f 85 190 135 
f 170 175 179 
f 173 188 192 
f 320 284 241 
f 144 172 113 
f 135 87 93 
f 256 320 241 
f 123 192 193 
f 61 241 284 
f 188 193 192 
f 229 42 178 
f 174 173 298 
f 37 178 42 
f 192 298 173 
f 73 181 78 
f 75 263 15 
f 180 93 87 
f 173 171 188 
f 39 64 29 
f 45 87 105 
f 35 7 187 
f 200 199 167 
f 30 199 202 
f 77 316 153 
f 103 62 64 
f 200 202 199 
f 88 150 103 
f 28 318 289 
f 167 199 204 
f 149 62 150 
f 38 282 23 
f 192 230 298 
f 200 167 174 
f 172 137 114 
f 206 207 208 
f 209 206 208 
f 233 207 206 
f 211 208 207 
f 227 208 213 
f 171 227 213 
f 209 208 227 
f 211 213 208 
f 233 206 215 
f 216 233 215 
f 111 247 288 
f 209 215 206 
f 217 207 240 
f 152 307 140 
f 211 207 217 
f 233 240 207 
f 220 221 193 
f 188 220 193 
f 211 221 220 
f 266 294 228 
f 312 168 317 
f 123 193 224 
f 56 274 19 
f 221 224 193 
f 213 220 171 
f 28 289 18 
f 211 220 213 
f 188 171 220 
f 100 223 150 
f 240 221 217 
f 117 228 226 
f 211 217 221 
f 247 34 288 
f 234 88 103 
f 209 227 229 
f 183 229 227 
f 42 229 183 
f 273 203 304 
f 273 318 232 
f 311 59 104 
f 215 229 257 
f 216 215 257 
f 209 229 215 
f 120 72 125 
f 204 68 219 
f 257 261 198 
f 216 257 198 
f 196 261 257 
f 189 191 201 
f 204 69 179 
f 279 253 135 
f 236 235 233 
f 66 235 238 
f 28 18 172 
f 42 184 41 
f 236 238 235 
f 22 41 184 
f 273 43 318 
f 233 235 240 
f 34 196 37 
f 124 251 100 
f 118 177 230 
f 236 233 216 
f 198 261 314 
f 242 243 244 
f 245 242 244 
f 276 243 242 
f 249 244 243 
f 250 244 249 
f 72 280 195 
f 245 244 250 
f 199 68 204 
f 276 242 252 
f 253 276 252 
f 15 226 294 
f 245 252 242 
f 254 243 283 
f 17 137 119 
f 249 243 254 
f 276 283 243 
f 249 258 262 
f 306 249 262 
f 35 166 162 
f 157 154 140 
f 140 85 116 
f 78 262 263 
f 260 289 43 
f 258 263 262 
f 149 29 62 
f 250 249 306 
f 29 64 62 
f 28 172 144 
f 312 295 149 
f 283 258 254 
f 140 307 190 
f 249 254 258 
f 234 282 124 
f 28 144 255 
f 245 267 269 
f 313 195 139 
f 159 267 272 
f 18 74 119 
f 269 267 159 
f 312 149 168 
f 109 187 7 
f 253 252 269 
f 245 269 252 
f 180 281 93 
f 280 139 195 
f 266 214 293 
f 191 139 280 
f 245 250 267 
f 172 18 137 
f 35 138 7 
f 33 288 31 
f 279 278 276 
f 106 278 281 
f 279 135 93 
f 214 117 97 
f 279 281 278 
f 177 298 230 
f 124 109 138 
f 276 278 283 
f 283 248 12 
f 17 212 86 
f 256 19 274 
f 279 276 253 
f 111 288 33 
f 285 286 287 
f 305 285 287 
f 297 286 285 
f 290 287 286 
f 306 287 292 
f 250 306 292 
f 305 287 306 
f 290 292 287 
f 295 285 305 
f 187 68 30 
f 297 285 295 
f 295 99 149 
f 296 286 297 
f 319 296 297 
f 290 286 296 
f 239 185 277 
f 299 300 272 
f 267 299 272 
f 290 300 299 
f 239 277 121 
f 240 26 225 
f 159 272 303 
f 26 280 225 
f 300 303 272 
f 292 299 250 
f 18 289 260 
f 290 299 292 
f 267 250 299 
f 304 300 296 
f 319 304 296 
f 105 152 59 
f 290 296 300 
f 305 306 309 
f 19 241 61 
f 197 223 100 
f 269 159 116 
f 86 19 61 
f 78 309 262 
f 247 314 169 
f 306 262 309 
f 99 29 149 
f 295 305 99 
f 39 29 99 
f 309 99 305 
f 120 224 72 
f 298 320 256 
f 157 116 159 
f 86 212 275 
f 297 312 316 
f 77 297 316 
f 309 181 99 
f 264 223 121 
f 149 150 168 
f 63 293 32 
f 25 246 38 
f 312 317 316 
f 261 169 314 
f 166 187 186 
f 132 185 239 
f 77 319 297 
f 87 308 105 
f 86 56 19 
f 197 121 223 
f 297 295 312 
f 321 322 76 
f 81 321 76 
f 5 322 321 
f 126 76 322 
f 231 76 110 
f 146 231 110 
f 81 76 231 
f 126 110 76 
f 5 321 194 
f 45 5 194 
f 283 12 176 
f 81 194 321 
f 40 322 60 
f 189 40 60 
f 126 322 40 
f 5 60 322 
f 4 201 49 
f 268 4 49 
f 126 201 4 
f 72 225 280 
f 73 54 39 
f 238 49 66 
f 234 182 23 
f 201 66 49 
f 110 4 146 
f 313 222 101 
f 126 4 110 
f 268 146 4 
f 73 39 181 
f 189 201 40 
f 132 107 56 
f 126 40 201 
f 21 38 23 
f 229 178 257 
f 81 231 180 
f 310 180 231 
f 281 180 310 
f 74 260 153 
f 72 195 125 
f 266 228 214 
f 194 180 87 
f 45 194 87 
f 81 180 194 
f 25 38 21 
f 17 86 137 
f 177 320 298 
f 161 232 255 
f 218 137 86 
f 152 140 154 
f 266 293 63 
f 12 226 176 
f 311 36 5 
f 161 203 232 
f 273 232 203 
f 222 36 104 
f 311 104 36 
f 60 36 189 
f 118 91 177 
f 5 36 60 
f 222 189 36 
f 15 176 226 
f 273 304 43 
f 311 5 45 
f 117 226 12 
f 20 79 205 
f 210 20 205 
f 302 79 20 
f 65 205 79 
f 146 205 65 
f 23 182 70 
f 210 205 146 
f 115 284 177 
f 6 20 315 
f 97 117 106 
f 302 20 6 
f 210 315 20 
f 16 79 24 
f 214 16 24 
f 65 79 16 
f 302 24 79 
f 65 97 310 
f 125 195 155 
f 156 203 161 
f 236 216 198 
f 218 61 237 
f 281 310 106 
f 319 43 304 
f 97 106 310 
f 313 189 222 
f 146 65 231 
f 61 284 115 
f 310 231 65 
f 189 139 191 
f 214 97 16 
f 313 139 189 
f 65 16 97 
f 221 225 224 
f 156 303 203 
f 210 268 265 
f 44 246 25 
f 238 268 49 
f 123 230 192 
f 265 268 238 
f 71 64 39 
f 109 143 187 
f 6 315 265 
f 210 265 315 
f 304 203 303 
f 103 64 71 
f 218 237 114 
f 78 181 309 
f 210 146 268 
f 7 138 109 
f 75 78 263 
f 102 222 104 
f 75 15 80 
f 74 153 264 
f 317 264 153 
f 293 96 33 
f 111 33 96 
f 24 96 214 
f 115 177 91 
f 302 96 24 
f 293 214 96 
f 117 248 106 
f 313 155 195 
f 111 96 6 
f 302 6 96 
