v 0.2620144 0.8169098 0.5208664
v 0.9644451 -0.11619794 0.27775002
v -0.96285534 0.11988914 0.28043652
v -0.19445992 0.86382675 -0.48035812
v -0.056643844 -0.651844 0.77012634
v 0.22974586 0.5438614 0.81230164
v 0.18287134 0.49139977 -0.86129475
v 0.22626698 0.97605973 -0.107687
v 0.05075957 1.0002408 0.07387352
v 0.3688247 0.9175551 0.1978941
v -0.8360386 -0.06428614 0.5518074
v 0.3676796 -0.31245995 0.88080406
v 0.51240855 0.8616519 -0.10559511
v 0.9902423 0.14447531 0.08016777
v -0.72277164 0.5367408 0.4555416
v 0.93741226 0.007581711 -0.3636055
v 0.8005543 -0.4503317 -0.4061699
v -0.30998993 -0.57850647 -0.7603569
v 0.41465378 -0.37926435 -0.8369827
v 0.14388847 0.34560966 0.932765
v 0.04559517 0.87731075 -0.4969654
v 0.6438942 -0.09883118 0.77090454
v -0.9772477 -0.14907894 -0.18013382
v -0.86039925 -0.38267303 -0.36889458
v 0.30804873 0.87925243 -0.37449646
v -0.22188187 0.74777985 0.6324539
v 0.009881973 0.9344959 0.3856964
v 0.5903473 -0.5777035 -0.5716171
v -0.91416025 -0.27641314 0.32979393
v 0.55530167 0.022829771 -0.8434086
v 0.37979126 0.670496 0.6436806
v -0.9418373 0.009198785 -0.34918213
v 0.72757745 0.60816 0.34031677
v 0.45236588 0.8088045 0.3874855
v 0.94074583 0.34594512 -0.056147575
v -0.14464664 -0.08106899 0.99012494
v 0.64733934 0.7484417 0.17168236
v 0.22625828 0.7479534 -0.63022614
v -0.671608 0.6443119 -0.37622833
v 0.14847374 -0.45077515 0.8850765
v 0.8254955 0.58458555 -0.05031109
v 0.367939 0.31178284 -0.88090706
v 0.22647285 -0.7487793 0.62921524
v 0.62545896 0.73855877 -0.2821064
v 0.34394455 0.025462627 0.9472561
v -0.49043897 0.8800639 0.042019367
v -0.34593582 -0.05615431 -0.9407444
v 0.8052387 0.33834743 0.50006485
v 0.866717 -0.47715116 -0.1903553
v 0.89111805 -0.32646048 0.33201027
v 0.8897209 0.32577056 -0.33582878
v -0.18947661 0.9857162 0.11302996
v -0.5803318 -0.47577095 -0.6761131
v -0.50204945 0.6566086 0.5734863
v -0.3061188 0.9282851 -0.23164177
v 0.59065056 0.57815075 0.5708351
v -0.36216092 0.86397886 0.36782455
v 0.8007575 -0.6079234 0.0995841
v -0.19456482 -0.86377335 0.48039246
v -0.56991005 -0.5904417 0.57956123
v 0.3798151 -0.6705208 -0.64364624
v -0.9888912 0.16637696 -0.07722378
v 0.7675686 -0.25857735 0.60080147
v -0.5865154 0.57536316 -0.57852364
v -0.10536337 0.20850754 0.97851706
v -0.36223984 -0.20938301 0.9121132
v -0.046412706 0.98242736 -0.20345306
v 0.63668823 0.36627483 -0.6879692
v 0.7484665 0.5190582 -0.42422104
v 0.8102951 0.22948074 -0.5472412
v -0.45236588 0.8088045 -0.3874855
v 0.7231312 -0.5360656 0.4557686
v -0.6280348 0.778087 -0.13035965
v -0.3258953 -0.33839798 -0.88908005
v 0.544178 0.07855415 0.8396759
v -0.14370632 -0.339262 0.9370909
v 0.2620144 -0.8169098 -0.5208664
v -0.31120872 0.5768738 0.76088715
v 0.6427593 -0.29584312 -0.7202091
v -0.57495975 0.76107025 0.31375122
v -0.2192564 -0.7513313 -0.6284523
v 0.3521086 -0.9410201 -0.006788725
v -0.06425834 -0.54745483 -0.8453436
v 0.8359909 0.06443697 0.55189896
v 0.0721674 -0.7755432 -0.6384449
v 0.22975063 -0.5438576 -0.8122864
v -0.33831692 -0.50610924 0.8020172
v -0.6693616 -0.65096474 -0.3697834
v 0.18930702 -0.9725363 0.16212082
v 0.05075957 -1.0002408 -0.07387352
v 0.9122343 0.3621173 0.20903587
v 0.3013518 -0.93031836 -0.23018265
v -0.5824089 -0.056393623 -0.82665634
v 0.671608 -0.6443119 -0.37622833
v 0.5519963 -0.8354017 0.068696976
v -0.08731985 0.53780365 0.85072136
v -0.3676529 0.31506348 0.87968445
v 0.3551132 -0.87338114 0.35800457
v -0.7983866 0.45251846 -0.4078045
v 0.082140446 -0.047677517 -0.9998387
v 0.6447201 0.28945923 0.7218628
v 0.04432726 -0.87446785 0.5014229
v -0.3804474 0.67264175 -0.6405678
v 0.99543583 -0.14295757 -0.058070183
v -0.3804474 -0.67264175 0.6405678
v -0.8651787 0.47920203 -0.19109917
v 0.34402466 -0.025411129 -0.9472122
v -0.008064032 -0.932775 -0.39014244
v 0.92626 0.15945911 0.35446167
v 0.15019894 -0.18099785 0.97689056
v 0.07212067 0.77540207 0.6385956
v -0.36235046 0.20947456 -0.9120693
v 0.7734661 0.03283739 -0.6450157
v 0.9216106 -0.38751268 0.071852684
v 0.45236588 -0.8088045 -0.3874855
v -0.7220955 -0.61177063 0.34436798
v -0.53458595 0.41400146 0.74209976
v 0.6270152 -0.77935874 -0.1293354
v -0.73345184 -0.28198004 -0.63064194
v -0.41484356 -0.775506 -0.49660873
v -0.14463615 0.08105564 -0.9901283
v -0.8333969 -0.07311106 -0.55561066
v 0.14753914 -0.34508324 -0.9322481
v -0.06685603 0.6539879 -0.7658119
v 0.5749512 -0.76112795 0.31380463
v -0.34595108 0.05613804 0.94074154
v -0.45883304 -0.8935234 -0.0038513541
v -0.6050987 0.037424326 0.81096745
v 0.9750576 0.14417052 -0.19052696
v 0.31233215 -0.5761032 0.7609749
v -0.102478504 -0.20633316 -0.97911644
v 0.5344429 -0.41377258 0.74238205
v -0.18452717 -0.9869033 -0.010365248
v -0.9216106 0.38751268 0.071852684
v -0.6337223 -0.2855358 0.73314476
v -0.31126785 -0.92723656 0.23020935
v 0.41489792 0.3791523 0.83695316
v -0.8917227 0.32572722 0.33125687
v -1.000273 -0.076833665 0.04976225
v 0.50172615 -0.6558819 0.5744114
v -0.79645437 0.6145898 0.09744406
v -0.24242961 -0.95284176 -0.21770859
v 0.40781403 0.5444851 -0.73724747
v 0.8089409 -0.23078632 -0.54808044
v -0.77599525 -0.34875822 0.53644943
v 0.08213711 0.047680378 0.99983907
v -0.9246273 0.22570705 -0.3203354
v -0.046412706 -0.98242736 0.20345306
v -0.61167336 0.34424686 -0.72324944
v -0.33997822 0.50471115 -0.8023815
v -0.94703054 -0.34453672 0.02356714
v -0.45236588 -0.8088045 0.3874855
v 0.9296279 -0.21788836 -0.3115425
v -0.6286025 -0.76797676 0.16875839
v -0.7787533 0.1909666 -0.61185837
v -0.7630758 -0.65454173 -0.09486961
v -0.76726913 0.2582593 0.6014137
v 0.5098915 0.6662693 -0.56142235
v -0.83966684 -0.5441945 0.07853699
v -0.1440649 0.33791733 -0.93754387
v -0.5476346 -0.8097689 -0.2306366
v 0.15020657 0.1809845 -0.9768925
f 10 13 8 
f 139 3 62 
f 20 45 137 
f 19 28 61 
f 34 33 37 
f 74 93 47 
f 10 8 9 
f 118 94 49 
f 43 130 5 
f 29 159 116 
f 42 68 30 
f 33 56 48 
f 110 40 12 
f 44 158 25 
f 123 107 19 
f 123 83 131 
f 8 25 21 
f 67 8 21 
f 5 40 76 
f 131 83 74 
f 84 2 109 
f 132 140 72 
f 112 93 149 
f 23 32 24 
f 39 99 106 
f 9 8 67 
f 19 107 30 
f 86 123 19 
f 73 39 106 
f 44 25 13 
f 109 91 48 
f 8 13 25 
f 111 1 27 
f 1 10 27 
f 20 96 65 
f 150 124 160 
f 79 28 19 
f 126 66 36 
f 71 39 73 
f 83 123 86 
f 113 30 68 
f 19 30 79 
f 113 68 70 
f 1 34 10 
f 143 68 42 
f 65 97 126 
f 31 56 34 
f 10 9 27 
f 13 37 41 
f 44 13 41 
f 7 143 42 
f 91 33 48 
f 58 72 125 
f 29 116 145 
f 116 60 145 
f 130 132 12 
f 140 43 98 
f 61 115 77 
f 122 32 155 
f 23 24 151 
f 24 88 156 
f 34 37 10 
f 115 94 118 
f 13 10 37 
f 94 28 17 
f 55 46 52 
f 101 22 84 
f 31 34 1 
f 29 151 159 
f 20 146 45 
f 97 117 128 
f 65 96 97 
f 73 46 55 
f 71 73 55 
f 11 128 157 
f 93 112 47 
f 88 24 53 
f 80 57 46 
f 52 46 57 
f 152 60 116 
f 48 56 101 
f 111 31 1 
f 120 18 81 
f 57 27 52 
f 35 91 14 
f 12 132 22 
f 137 56 31 
f 132 63 22 
f 124 150 103 
f 7 38 143 
f 42 30 107 
f 27 9 52 
f 101 75 22 
f 70 69 51 
f 101 56 137 
f 29 3 139 
f 55 67 4 
f 103 64 71 
f 50 58 114 
f 69 44 41 
f 63 72 50 
f 155 149 93 
f 20 65 146 
f 67 21 4 
f 24 32 122 
f 53 119 93 
f 2 50 114 
f 4 71 55 
f 158 143 38 
f 9 67 52 
f 45 146 110 
f 55 52 67 
f 70 68 69 
f 141 46 73 
f 100 131 121 
f 68 158 69 
f 147 62 106 
f 159 151 156 
f 18 74 83 
f 145 11 29 
f 62 3 134 
f 131 74 47 
f 69 158 44 
f 141 80 46 
f 162 160 7 
f 124 7 160 
f 25 38 21 
f 135 11 145 
f 162 42 107 
f 101 84 48 
f 146 36 110 
f 25 158 38 
f 90 82 89 
f 160 112 150 
f 92 82 90 
f 5 87 105 
f 118 82 92 
f 115 118 92 
f 95 82 118 
f 6 137 31 
f 98 82 95 
f 125 98 95 
f 89 82 98 
f 11 157 3 
f 89 98 102 
f 148 89 102 
f 85 77 108 
f 66 128 135 
f 110 12 45 
f 11 3 29 
f 85 61 77 
f 39 64 99 
f 123 100 107 
f 90 89 148 
f 132 72 63 
f 117 15 157 
f 139 62 23 
f 96 20 6 
f 43 5 102 
f 40 5 130 
f 122 155 93 
f 77 92 108 
f 137 45 75 
f 110 76 40 
f 81 18 83 
f 48 84 109 
f 78 54 117 
f 94 17 49 
f 38 7 124 
f 107 100 162 
f 119 24 122 
f 77 115 92 
f 141 15 80 
f 124 103 4 
f 34 56 33 
f 92 90 108 
f 76 36 66 
f 58 95 118 
f 62 134 106 
f 124 4 21 
f 18 53 74 
f 141 106 134 
f 155 32 147 
f 100 121 162 
f 75 45 22 
f 85 86 61 
f 12 22 45 
f 58 125 95 
f 155 147 99 
f 76 66 87 
f 121 160 162 
f 62 32 23 
f 17 28 79 
f 136 127 133 
f 72 140 125 
f 142 133 127 
f 146 65 36 
f 97 128 126 
f 140 130 43 
f 119 53 24 
f 154 127 136 
f 152 154 136 
f 128 66 126 
f 61 28 115 
f 142 127 161 
f 57 26 27 
f 78 117 97 
f 74 53 93 
f 155 99 149 
f 109 2 14 
f 80 54 57 
f 120 108 142 
f 15 54 80 
f 125 140 98 
f 84 22 63 
f 47 121 131 
f 133 142 90 
f 118 49 58 
f 109 14 91 
f 108 90 142 
f 99 64 149 
f 161 120 142 
f 27 26 111 
f 103 71 4 
f 136 148 59 
f 6 20 137 
f 126 36 65 
f 112 149 150 
f 85 83 86 
f 104 2 114 
f 161 88 120 
f 148 102 59 
f 78 97 96 
f 135 128 11 
f 130 140 132 
f 59 152 136 
f 144 17 79 
f 90 148 133 
f 120 53 18 
f 136 133 148 
f 105 152 59 
f 68 143 158 
f 127 154 156 
f 106 99 147 
f 84 63 2 
f 138 15 141 
f 117 157 128 
f 154 159 156 
f 47 112 121 
f 71 64 39 
f 127 156 161 
f 50 2 63 
f 137 75 101 
f 130 12 40 
f 36 76 110 
f 86 19 61 
f 26 96 111 
f 87 60 105 
f 123 131 100 
f 138 3 157 
f 104 16 129 
f 5 105 59 
f 153 16 104 
f 105 60 152 
f 144 16 153 
f 26 78 96 
f 113 16 144 
f 108 81 85 
f 51 16 70 
f 150 64 103 
f 129 16 51 
f 113 70 16 
f 129 51 35 
f 50 72 58 
f 98 43 102 
f 29 139 151 
f 111 6 31 
f 117 54 15 
f 157 15 138 
f 51 41 35 
f 51 69 41 
f 104 129 14 
f 54 78 26 
f 35 14 129 
f 135 60 87 
f 152 116 154 
f 145 60 135 
f 111 96 6 
f 153 104 49 
f 87 5 76 
f 120 81 108 
f 154 116 159 
f 156 88 161 
f 58 49 114 
f 24 156 151 
f 104 114 49 
f 91 41 33 
f 144 153 17 
f 37 33 41 
f 49 17 153 
f 73 106 141 
f 88 53 120 
f 66 135 87 
f 151 139 23 
f 119 122 93 
f 160 121 112 
f 162 7 42 
f 147 32 62 
f 41 91 35 
f 104 14 2 
f 54 26 57 
f 79 30 113 
f 3 138 134 
f 5 59 102 
f 115 28 94 
f 149 64 150 
f 38 124 21 
f 138 141 134 
f 79 113 144 
f 81 83 85 
