v -0.452589 0.744444 -0.206816
v 0.31178892 -0.36227036 0.8769736
v 0.24404968 0.21624851 0.114896774
v 0.24495888 0.036815643 0.8426132
v 0.35290587 -0.049416065 0.4540825
v -0.33684683 -0.032843113 0.0041618347
v -0.0884331 0.12573 -0.258533
v 0.27943993 -0.06322336 0.8620968
v -0.26514912 0.034009933 0.81324005
v 0.149341 -0.451522 0.166423
v -0.23546 -0.269794 -0.12322
v 0.114009 -0.358339 -0.0759521
v 0.101546 -0.475382 0.663157
v -0.30414438 0.08877373 0.06332874
v -0.288313 -0.71953 0.0292002
v 0.358602 -0.37797 0.17897
v -0.19563198 -0.44325048 0.28827667
v 0.316102 -0.419396 0.649153
v -0.252371 -0.581833 0.652832
v 0.0876766 -0.391182 0.901606
v 0.16204596 0.28302288 0.30991364
v 0.177264 0.282839 0.0875537
v 0.158786 0.0751889 -0.141343
v -0.177164 0.238112 -0.093383
v 0.0010380745 -0.51573944 0.5296173
v -0.0774719 -0.570173 0.85133
v -0.23666811 0.50323105 -0.076776505
v -0.026529312 -0.3424034 0.8912544
v -0.24918652 0.17891073 0.06109619
v 0.37104928 -0.031095922 0.23759079
v 0.25404972 0.21410897 0.2127428
v -0.10947895 0.10780096 -0.39656305
v 0.146074 0.206063 0.488052
v -0.354445 -0.427851 -0.0878125
v 0.184529 0.181235 -0.238574
v 0.229877 0.446038 -0.0428095
v 0.326584 0.303676 -0.375494
v 0.257915 0.488969 -0.517721
v 0.187711 0.730295 -0.437134
v 0.2114602 0.12858003 -0.46190065
v 0.271501 0.201979 -0.579853
v 0.20144463 0.33859348 -0.6510825
v 0.323288 -0.645898 -0.0650069
v 0.277559 -0.660659 0.872426
v 0.15321 -0.671553 0.116597
v 0.153343 -0.652512 -0.0628489
v 0.129752 -0.680413 0.714233
v 0.310744 -0.658159 0.12474
v 0.270197 -0.670204 0.705429
v 0.125665 -0.664371 0.877017
v 0.264169 0.646946 -0.369897
v -0.15673 -0.332639 0.924128
v 0.263204 0.560375 -0.137191
v -0.13936698 0.14898974 -0.2677498
v 0.432195 0.751246 -0.233457
v 0.424574 0.680439 -0.150855
v 0.379346 0.604049 -0.213075
v 0.04583168 -0.1887207 -0.19731688
v -0.0796433 -0.304819 -0.108871
v -0.177314 0.204818 -0.0510199
v -0.27249718 0.023551464 -0.059671402
v 0.1774714 0.7873564 -0.32636642
v -0.37301278 -0.51828337 0.09612274
v -0.033854008 -0.30775452 0.9220295
v -0.367842 0.597467 -0.17194
v -0.013534883 0.8354385 -0.28999466
v -0.32839763 0.35358945 -0.40202868
v -0.274851 -0.146856 -0.114171
v 0.029859781 0.32320714 0.19963646
v 0.04978323 -0.45621085 0.20175552
v 0 0.499175 0.0586613
v -4.33681e-19 0.723906 -0.0597107
v -0.23828208 0.16350675 -0.37015533
v -0.017968059 -0.45586395 0.67663574
v 0 -0.533724 0.415511
v -0.0632284 0.496693 0.0522852
v 0.038118362 0.7543335 -0.105545044
v -0.18886262 0.8981021 -0.22636148
v -0.13087285 0.80052567 -0.2087326
v 0.32751274 0.7580104 -0.26737976
v 0 0.130478 0.891171
v -0.35320377 -0.11872959 0.65623856
v -0.280089 -0.425608 0.586435
v -0.033693314 -0.121025085 -0.21565104
v 0.22249117 0.89161503 -0.25468934
v 0.103699684 0.8154051 -0.2193268
v 0.2118038 0.7584423 -0.20259356
v -0.165912 0.939303 -0.292739
v 0.17119229 0.78047466 -0.37882423
v -0.178799 0.187723 0.48375
v -0.22541809 -0.014012337 0.89738464
v -0.12279987 0.4534607 -0.59135437
v 0.199751 0.790382 -0.244881
v -0.358205 0.712515 -0.324745
v 0.3159542 0.76347274 -0.23860705
v -0.104904 -0.328487 0.922781
v -0.3586855 -0.06848025 0.45491028
v 0.19803375 -0.48060256 0.4201267
v -0.180783 0.946411 -0.244635
v -0.37968087 -0.16621208 0.11078453
v -0.2131455 0.8429469 -0.25092405
v -0.15574 -0.680004 0.892121
v -0.035742283 0.7407837 -0.08893585
v -0.153047 -0.720555 0.741401
v -0.0899111 -0.634521 0.847274
v -0.33023772 0.012306929 0.43784046
v -0.28053665 0.10913944 0.38323212
v -0.330786 0.26947 -0.445487
v -0.007525444 -0.09525859 1.0256022
v -0.3441236 -0.28740692 -0.08114874
v 0.0987466 0.656786 -0.062447
v -0.119063 -0.647679 0.702012
v 0.03914261 -0.45297432 0.68421936
v -0.154044 0.222564 -0.638941
v -0.12668133 0.33709967 0.009584248
v 0 0.760454 -0.0953915
v -0.34177 0.649107 -0.318477
v -0.2772789 0.09188032 0.47261333
v -0.149341 -0.451522 0.166423
v -0.18183714 0.8046555 -0.22910342
v -0.114009 -0.358339 -0.0759521
v -0.101546 -0.475382 0.663157
v -0.23642147 -0.438273 0.42107922
v -0.025716782 -0.37467575 0.84978867
v -0.358602 -0.37797 0.17897
v -0.34451818 -0.25729322 0.67082596
v -0.316102 -0.419396 0.649153
v -0.21492767 -0.25799942 0.9198618
v -0.0876766 -0.391182 0.901606
v -0.236564 -0.444228 0.584476
v -0.177264 0.282839 0.0875537
v -0.158786 0.0751889 -0.141343
v -0.412958 0.685943 -0.291128
v -0.15501964 0.1850179 0.6897712
v -0.1132431 0.11598778 0.87744904
v -0.285841 -0.20501995 0.86497307
v -0.11288071 0.2957878 0.3197174
v -0.34464836 -0.0521338 0.6568222
v -0.0781392 -0.343402 -0.0680291
v -0.04608799 0.10035101 -0.44980547
v -0.145237 -0.635178 0.13052
v -0.146074 0.206063 0.488052
v -0.15840402 0.31915987 -0.01987639
v -0.184529 0.181235 -0.238574
v -0.229877 0.446038 -0.0428095
v -0.326584 0.303676 -0.375494
v -0.257915 0.488969 -0.517721
v -0.187711 0.730295 -0.437134
v -0.233098 0.21084 -0.267301
v -0.271501 0.201979 -0.579853
v -0.18259048 0.2057743 0.42956543
v -0.323288 -0.645898 -0.0650069
v -0.277559 -0.660659 0.872426
v -0.15321 -0.671553 0.116597
v -0.153343 -0.652512 -0.0628489
v -0.129752 -0.680413 0.714233
v -0.310744 -0.658159 0.12474
v -0.270197 -0.670204 0.705429
v -0.125665 -0.664371 0.877017
v -0.264169 0.646946 -0.369897
v 0.21070862 0.72264576 -0.4222889
v -0.263204 0.560375 -0.137191
v -0.35686302 0.6824422 -0.32887888
v -0.432195 0.751246 -0.233457
v -0.424574 0.680439 -0.150855
v -0.36597756 0.59550714 -0.20963764
v -0.14684826 0.909215 -0.22515692
v -0.2032466 0.9028206 -0.32052565
v -0.1479969 0.929605 -0.28401947
v 4.9684197e-05 -0.520288 0.35062408
v -0.258236 0.693552 -0.356883
v -0.10313487 0.8152218 -0.2195046
v -0.16260827 0.79562557 -0.3372773
v -0.321008 0.352655 -0.511417
v -0.2329483 0.034077644 0.8592968
v 0.124072075 0.8923607 -0.28626442
v -0.23471546 0.7428713 -0.30633926
v -0.199751 0.790382 -0.244881
v -0.0449537 0.11665 -0.27594
v 0.033124924 -0.064502716 1.0399637
v -0.092315674 -0.4529462 0.21348572
v -0.10309982 -0.46858954 0.6103153
v 0.1352329 0.91302717 -0.23394364
v -0.148915 0.00578811 -0.165362
v -0.387436 -0.440321 0.0296682
v -0.092430115 0.08403015 0.9154892
v -0.305787 0.218563 -0.547441
v -0.14195442 -0.4639028 0.5819454
v -0.390758 0.753705 -0.27032
v 0.223323 -0.431749 0.300839
v 0.262599 -0.446574 0.214165
v -0.088917255 0.16655731 0.82458305
v -0.253217 0.578269 -0.474783
v 0.320467 -0.390454 0.538527
v 0.218649 -0.474853 0.619945
v 0.19621 -0.447285 0.538732
v -0.292915 -0.260195 -0.110308
v 0.23912576 -0.33952233 -0.117925085
v 0.12147 -0.249274 -0.145022
v -0.36003637 -0.044188052 0.06676102
v 0.328715 -0.192761 -0.0778193
v 0.138015 -0.443895 0.192281
v -0.31404734 -0.012608051 0.75437737
v 0.196917 0.927676 -0.311546
v -0.117988 -0.635837 0.0828
v -0.294318 0.572729 -0.209871
v -0.335047 -0.66747 -0.026194
v 0.21439743 -0.23222351 0.9210062
v 0.117499 -0.281642 0.935739
v 0.211816 -0.394732 0.922409
v 0.21393871 -0.33393288 0.919837
v 0.36614466 -0.13530922 0.046300888
v -0.06405562 -0.4336236 0.8517997
v 0.385194 -0.351205 0.0306159
v 0.3794651 -0.25490952 0.03556633
v -0.2003622 0.7646429 -0.21513987
v -0.173109 0.951035 -0.277835
v 0.043414116 0.8075428 -0.18460464
v -0.16204977 0.28309917 0.3096714
v -0.23912576 -0.33952233 -0.117925085
v -0.203233 0.797472 -0.273932
v -0.262868 -0.552296 0.920108
v 0.350232 0.00253885 0.0908221
v 0.25746393 0.61708546 -0.4357891
v 0.34283814 -0.3791237 0.77570677
v -0.129481 0.307575 0.259519
v 0.33277965 -0.23708797 0.75660324
v -0.172796 -0.723594 0.0247169
v 0.28574562 -0.20496178 0.8650646
v -0.295399 0.395443 -0.540067
v -0.28283 -0.632563 0.691009
v 0.207634 0.937732 -0.29671
v 0.34423113 -0.05123496 0.65774727
v -0.08503246 0.3166511 0.24629593
v -0.187443 -0.669698 -0.0818819
v -0.210129 0.15949 -0.56385
v -0.128964 0.142918 -0.232488
v 0.170184 0.299829 0.20555
v -0.225435 0.891324 -0.293612
v -0.447397 0.702392 -0.15815
v 0.227226 0.252859 0.204008
v -0.0495204 -0.395304 0.851292
v 0.14959049 0.22414017 0.43572998
v 0.14951134 -0.48588228 0.530571
v 0.24835205 -0.05907917 0.89323807
v 0.2259965 0.095846176 0.79361343
v -0.058332443 -0.4657879 0.64286804
v 0.13756847 0.15120506 0.8150692
v 0.19738007 0.0828495 0.8497238
v -0.401583 0.612716 -0.19176
v -0.20757 0.117335 -0.0616182
v -0.21852398 -0.44465232 0.48125458
v -0.43241 0.746455 -0.258303
v -0.271214 0.498067 -0.167977
v 0.2620268 0.7478981 -0.2855606
v -0.17394519 0.87510777 -0.330698
v 0.29867196 0.04748869 0.6614914
v -0.2639799 -0.298522 0.90102434
v -0.112805 -0.624088 0.888986
v 0.19503999 0.18431473 -0.02444458
v 0.28785038 0.103076935 0.040412903
v -0.388682 0.680406 -0.144893
v -0.15595245 -0.026880264 0.95142365
v -0.0007779598 0.65366364 -0.010271072
v 0.150018 0.148066 -0.170355
v -0.12499714 0.33949614 -0.66391134
v 0.15201771 0.2882401 0.023097694
v 0.172619 0.221245 -0.0722104
v -0.29309627 -0.41232038 0.5368185
v 0.294876 0.383503 -0.203773
v -0.26603222 -0.028524399 -0.09542847
v 0.248629 0.311098 -0.153862
v -0.316601 -0.396416 0.250199
v 0.23911 0.14497 -0.502892
v 0.324701 0.24108 -0.502727
v 0.278147 0.181024 -0.423508
v 0.263786 0.27805 -0.630217
v 0.250979 0.388662 -0.601302
v 0.318198 0.390558 -0.446528
v 0.314593 0.32071 -0.563292
v 0.338046 -0.680095 0.0309463
v 0.228165 -0.692422 0.147407
v 0.12828 -0.689708 0.0245746
v 0.238161 -0.677382 -0.0918856
v 0.229681 -0.733842 0.0266899
v 0.20056 -0.687393 0.898863
v 0.107919 -0.696884 0.796995
v 0.199176 -0.699686 0.68654
v 0.291818 -0.690195 0.788408
v 0.198244 -0.736784 0.793448
v 0.307855 -0.55258 0.89062
v 0.294592 -0.571581 0.678753
v 0.335563 -0.561971 0.78431
v 0.059572995 -0.4588544 0.79474473
v 0.110927 -0.595142 0.691599
v 0.102733 -0.558625 0.896274
v 0.0716769 -0.583028 0.796447
v 0.203007 -0.591569 0.647127
v 0.2081151 -0.542246 0.9314577
v 0.339121 -0.546516 0.150832
v 0.352933 -0.520557 -0.0885122
v 0.383244 -0.532332 0.0297109
v 0.132569 -0.534652 -0.0767316
v 0.24402 -0.524662 -0.124285
v 0.143499 -0.577512 0.141914
v 0.241073 -0.571789 0.188527
v -0.064392805 -0.18391895 -0.19732237
v 0.0999951 -0.56397 0.0317575
v 0.271576 0.561647 -0.416318
v 0.282894 0.56989 -0.257283
v 0.23666716 0.503212 -0.07677841
v 0.216036 0.894273 -0.311279
v 0.213045 0.609177 -0.109989
v 0.34761992 0.58598447 -0.19937183
v 0.422878 0.632073 -0.168661
v 0.32688 0.680784 -0.145207
v 0.326345 0.612341 -0.141546
v 0.312594 0.674309 -0.341185
v 0.379053 0.63587 -0.283895
v 0.3154 0.606871 -0.278418
v 0.417773 0.731266 -0.288914
v 0.460287 0.727236 -0.177367
v 0.454185 0.684351 -0.230461
v -0.282371 -0.626877 0.167977
v -0.030880272 0.35343757 0.038333043
v 0.08623493 0.32179397 0.06681538
v 0.12636513 0.31240547 0.23950052
v -0.16561794 0.613224 -0.078624725
v -0.289278 0.358786 -0.584918
v -0.274305 0.331026 -0.617491
v -0.199052 0.0623656 -0.105989
v 0.20661846 0.7643897 -0.22700357
v -0.253551 -0.622939 0.912658
v -0.290901 0.186126 -0.509143
v -0.281161 -0.710704 0.0910758
v -0.0969194 -0.478778 0.897495
v 0.061839342 -0.42951155 0.07326031
v -0.27843365 -0.4131828 0.3082787
v 0.144853 -0.503338 0.468859
v 0.037535667 -0.43715096 0.72997284
v 0.025257826 -0.3425541 0.8904934
v 0.0321101 -0.404726 0.804765
v 0.08939648 0.8205022 -0.2331599
v -0.339263 -0.356428 0.715872
v 0.031675145 0.32916465 0.07462835
v 0.08808255 0.34749836 0.027407229
v 0.12122917 -0.4673202 0.59949684
v 0.14684981 0.90923667 -0.2251637
v 0.124296 0.487548 0.0340513
v 0.113961935 0.43483567 0.040830225
v -0.331012 0.0171674 0.0389716
v -0.3153959 -0.3953864 0.58605725
v 0.214286 0.629383 -0.484754
v -0.1302875 0.91853887 -0.24716687
v -0.101981 -0.43742 0.118873
v -0.20044136 -0.10402393 -0.1575079
v 0.12414837 0.34256458 -0.6629472
v 0.12550099 0.3794136 -0.6451645
v 0.20630336 0.8602662 -0.31873822
v -0.21421605 0.76050615 -0.25772762
v -0.149721 0.3008 -0.00470029
v -0.277858 0.727498 -0.319523
v 0.22053888 0.85140234 -0.2743218
v -0.24396133 -0.061523438 0.8983803
v -2.7418137e-06 0.035495758 -0.24049783
v 0.0766662 0.0457919 -0.217551
v 0.035570145 0.0264287 -0.23321843
v 0 0.101519 -0.264918
v -0.24088 -0.688682 0.691628
v 0.0838463 0.11062 -0.238883
v -0.348561 -0.464054 0.158716
v -0.293784 -0.559568 0.181063
v -0.379176 -0.364086 0.102343
v -0.046957195 0.12070158 -0.30341136
v -0.167426 0.259011 -0.0241111
v 0.202175 0.775482 -0.251997
v 0.1234169 0.26234245 -0.66086817
v 0.1657834 0.6131439 -0.07860184
v -0.028809667 0.24946022 0.43797684
v 0.19167352 0.8674574 -0.33058524
v 0.128934 0.593549 -0.0276065
v 0.23877716 0.66889954 -0.436697
v -0.148661 -0.727347 0.795626
v 0.2255 0.918412 -0.287909
v 0.182289 0.937359 -0.304334
v 0.155831 0.94592 -0.253016
v 0.199042 0.926972 -0.236591
v 0.198381 0.950853 -0.26973
v -0.10200727 0.24080467 0.43865204
v -0.18776512 -0.48237926 0.46935272
v 0.179801 0.930945 -0.23207
v 0.204856 0.767832 -0.258627
v 0.19388676 0.7776003 -0.29829502
v -0.174532 -0.282877 -0.121531
v -0.2461 -0.678205 0.889508
v -0.120922 0.124855 -0.209363
v -0.279361 0.583208 -0.137022
v -0.10934353 0.8132081 -0.32419968
v 0.123622894 0.8104477 -0.32761288
v 0.0494105 0.797681 -0.413491
v -0.090631485 -0.05610943 0.9877014
v -0.149733 -0.3934 0.920339
v 0.08114716 0.8236009 -0.25611916
v 0.20809877 0.7622153 -0.27976894
v -0.115859 -0.693483 0.748115
v -0.36769676 -0.31146336 0.36845398
v 0.23150206 0.75654316 -0.26060104
v -0.125551 0.112279 -0.490196
v -0.132936 0.312061 0.210485
v 0.249966 0.723503 -0.332259
v 0.32003 0.739642 -0.304714
v -0.149034 0.119255 -0.152767
v -0.010472059 -0.0729163 1.0027313
v 0.04223728 0.6996193 -0.05590439
v 0 0.785709 -0.129116
v 0.09612274 0.7760229 -0.16918945
v -0.447289 0.655956 -0.196803
v -0.141316 -0.607217 -0.0730372
v -0.012295961 0.82101345 -0.37879753
v 0.06631756 0.815608 -0.37706757
v -0.17918 0.290497 -0.0609743
v -0.11728048 0.3769226 -0.6475773
v -0.2640686 0.75269985 -0.1961379
v -0.0771327 -0.378765 -0.022981
v 0.21314585 0.84294724 -0.250924
v 0.21708742 0.8562417 -0.2983988
v -0.157976 -0.694713 0.696986
v -0.108551025 -0.065506935 0.974638
v -0.07948136 0.82249683 -0.2771759
v 0.203233 0.797472 -0.273932
v -0.216965 0.931825 -0.261167
v -0.340742 -0.597899 -0.0798229
v 0.253217 0.578269 -0.474783
v 0.23804782 -0.43701777 0.42252037
v -0.198896 -0.723335 0.85193
v 0.079904556 -0.07290107 0.9841356
v -0.22177446 0.17488956 0.41695213
v 0.057645798 -0.46510315 0.64559364
v -0.043735504 -0.4500847 0.6946678
v -0.380591 0.614582 -0.245535
v -0.13514577 0.9129307 -0.23394358
v -0.2526598 -0.20513725 0.89755726
v 0.14523709 -0.49268723 0.35151863
v -0.319732 -0.633454 0.786428
v -0.331331 -0.556659 0.842236
v 0.13701443 -0.5103213 0.4165355
v 0.06654453 -0.51031685 0.5279503
v -0.246831 -0.711912 0.845432
v -0.12919426 0.78164864 -0.4114895
v 0.14562988 -0.031373978 0.95799255
v -0.33483636 -0.3745885 0.83547735
v -0.393743 0.706765 -0.3123
v -0.35513055 0.0037060976 0.119306564
v 0.18530178 -0.48324445 0.47233105
v 0.19908142 -0.033483982 0.92660904
v -0.19763851 0.5070572 -0.54110336
v 0.103500366 0.07361603 0.9179535
v -0.106684 -0.534636 0.682874
v -0.227442 -0.724741 0.0933852
v 0 -0.0809251 1.049
v -0.0968098 -0.40841603 -0.021043219
v -0.202175 0.775482 -0.251997
v -0.20191002 0.3385334 -0.65095425
v -0.08515519 0.8254014 -0.26788187
v -0.060355663 0.12609148 -0.53840494
v -0.0060886145 -0.43540692 0.061897278
v 0.047985077 0.08841705 0.9241829
v -0.126096 0.69557 -0.127071
v -0.22249117 0.8916145 -0.2546891
v -0.153645 -0.534978 0.650489
v -0.24136782 0.6581297 -0.44243813
v 0.011152267 -0.0010108948 0.9896469
v 0.0666008 -0.0038909912 0.9797058
v 0.06955671 -0.069687486 0.9917431
v 0.005107999 -0.09035325 1.0442984
v -0.27622 0.344814 -0.176785
v -0.34947044 -0.363847 0.24993777
v -0.262599 -0.446574 0.214165
v -0.223323 -0.431749 0.300839
v -0.0504326 0.666442 -0.034872
v 0.40304673 0.7544868 -0.20642519
v -0.19622672 -0.4472925 0.54103327
v -0.218649 -0.474853 0.619945
v -0.114552 -0.619641 -0.0267392
v -0.257025 -0.429064 0.536591
v -0.328715 -0.192761 -0.0778193
v -0.20235872 0.76614416 -0.2902527
v -0.12147 -0.249274 -0.145022
v -0.21544 0.938681 -0.279423
v -0.00224185 0.83241415 -0.24613762
v -0.380321 0.61857 -0.152413
v 0.126096 0.69557 -0.127071
v -0.308043 -0.017929077 -0.041941643
v -0.0705061 -0.461083 0.663389
v -0.211816 -0.394732 0.922409
v -0.117499 -0.281642 0.935739
v 0.097548485 -0.051803112 0.98392105
v -0.31178188 -0.3621788 0.8769746
v 0.216862 0.918936 -0.303965
v -0.385194 -0.351205 0.0306159
v -0.0803711 0.0844567 -0.225271
v -0.36614037 -0.13531685 0.04631996
v 0.24868679 0.70544815 -0.16110754
v -0.18727493 0.6625347 -0.13344955
v -0.31408072 0.75949574 -0.21305466
v -0.08336848 -0.58975315 0.73935556
v -0.05348748 -0.38824844 -0.007724762
v -0.38601717 -0.10974562 0.18765926
v -0.075748205 -0.5231935 0.47085476
v -0.364087 -0.605614 -0.0296813
v -0.21145922 0.12857962 -0.46190095
v -0.052200317 -0.19195557 0.97003174
v -0.105712 -0.548895 -0.0268432
v -0.34176522 -0.3190985 0.6455803
v -0.37825152 -0.051480845 0.22639132
v -0.33956957 -0.32143974 0.7659874
v -0.32830715 -0.05116779 0.75247
v -0.16352081 -0.27666473 0.93154716
v -0.2803917 -0.063705444 0.8608208
v -0.248651 0.737773 -0.18066
v -0.036048412 0.028629303 -0.23332071
v -0.314639 0.343639 -0.292523
v -0.062475085 -0.51094246 0.5290451
v -0.247008 0.54474 -0.114114
v -0.14951944 -0.54304767 0.9238384
v -0.13731432 0.3090253 0.12813377
v -0.170184 0.299829 0.20555
v -0.24948567 0.20894718 0.11454964
v -0.227226 0.252859 0.204008
v -0.156436 -0.650983 0.672896
v -0.19702148 -0.051888466 0.93304825
v -0.326452 0.645309 -0.138504
v -0.18104 0.470039 0.00485434
v -0.17486191 0.08439255 0.86948967
v -0.14766645 0.14545918 0.81633186
v -0.21331608 0.14558992 0.6738367
v -0.233311 0.142158 -0.432916
v 0.18666077 -0.068099976 0.94137573
v -0.27066588 0.08489692 0.66756344
v -0.12394774 0.20713365 0.5449467
v -0.22121286 0.15125394 0.49146032
v 0.18472314 0.75996184 -0.19361567
v -0.35122323 0.023438945 0.22229958
v -0.19356763 -0.47490406 0.3730278
v -0.0804386 -0.407577 0.025012
v -0.291391 0.478507 -0.418527
v -0.3872615 -0.14691329 0.27801132
v -0.32160473 0.009271741 0.65788174
v 0.0771688 0.744134 -0.128582
v -0.1958077 0.1850338 -0.022327423
v 0.09284973 0.82058406 -0.29660654
v -0.0987466 0.656786 -0.062447
v 0.18183726 0.80465627 -0.2291036
v -0.19354326 0.26008165 -0.11504829
v -0.150018 0.148066 -0.170355
v -0.172619 0.221245 -0.0722104
v -0.21143472 0.402096 -0.029799342
v -0.294876 0.383503 -0.203773
v -0.28026164 0.21585631 -0.35056353
v -0.248629 0.311098 -0.153862
v -0.324701 0.24108 -0.502727
v -0.23911 0.14497 -0.502892
v -0.1968813 0.14909458 -0.34152603
v -0.278147 0.181024 -0.423508
v -0.318198 0.390558 -0.446528
v -0.250979 0.388662 -0.601302
v -0.263786 0.27805 -0.630217
v -0.314593 0.32071 -0.563292
v -0.238161 -0.677382 -0.0918856
v -0.12828 -0.689708 0.0245746
v -0.228165 -0.692422 0.147407
v -0.338046 -0.680095 0.0309463
v -0.229681 -0.733842 0.0266899
v -0.291818 -0.690195 0.788408
v -0.199176 -0.699686 0.68654
v -0.107919 -0.696884 0.796995
v -0.20056 -0.687393 0.898863
v -0.198244 -0.736784 0.793448
v -0.294592 -0.571581 0.678753
v -0.307855 -0.55258 0.89062
v -0.335563 -0.561971 0.78431
v -0.102733 -0.558625 0.896274
v -0.110927 -0.595142 0.691599
v -0.0428926 0.103386 -0.257977
v -0.0716769 -0.583028 0.796447
v -0.203007 -0.591569 0.647127
v 0.225435 0.891324 -0.293612
v -0.352933 -0.520557 -0.0885122
v -0.339121 -0.546516 0.150832
v -0.383244 -0.532332 0.0297109
v -0.132569 -0.534652 -0.0767316
v -0.24402 -0.524662 -0.124285
v -0.143499 -0.577512 0.141914
v -0.241073 -0.571789 0.188527
v -0.09751389 -0.43678603 0.03542705
v -0.0999951 -0.56397 0.0317575
v -0.21995 0.228648 -0.628685
v -0.282894 0.56989 -0.257283
v -0.271576 0.561647 -0.416318
v -0.1232679 0.30968806 0.04982078
v -0.32688 0.680784 -0.145207
v -0.422878 0.632073 -0.168661
v -0.321376 0.576724 -0.185683
v -0.213045 0.609177 -0.109989
v -0.326345 0.612341 -0.141546
v -0.379053 0.63587 -0.283895
v -0.312594 0.674309 -0.341185
v -0.3154 0.606871 -0.278418
v -0.460287 0.727236 -0.177367
v -0.417773 0.731266 -0.288914
v -0.454185 0.684351 -0.230461
v -0.08445364 0.32251564 0.06614423
v -0.21061206 0.09657383 0.8184738
v -0.233064 -0.638226 0.175543
v -0.09098484 0.22486138 0.49272823
v -0.16940689 0.6806679 -0.47523117
v -0.175228 0.201681 -0.146613
v -0.051145554 0.1278801 0.888504
v -0.17517067 0.18063194 0.54090786
v -0.28588 0.662049 -0.349089
v -0.049877167 -0.32235718 -0.09428406
v -0.2099 -0.457622 0.202318
v 0.022978783 -0.07980752 1.0438752
v -0.27108002 -0.45281982 0.9143486
v 0.12920046 0.7816429 -0.4115219
v -0.06923294 0.182374 -0.61569786
v -0.088079154 0.34749657 0.027409256
v 0.13180542 0.104003906 0.88093567
v -0.124296 0.487548 0.0340513
v 0.21965885 -0.44310725 0.48456383
v -0.11065292 0.51319885 -0.55583763
v -0.214286 0.629383 -0.484754
v -0.32961845 0.75814486 -0.26693153
v -0.327044 -0.674066 0.0872825
v -0.255976 0.429549 -0.563622
v -0.168725 0.158519 -0.103729
v -0.219301 0.191387 -0.600189
v -0.181753 0.135303 -0.0848536
v -0.31429958 -0.12111902 -0.074812174
v -0.017520905 -0.28251266 -0.14136696
v -0.0766662 0.0457919 -0.217551
v -0.058383532 0.44030532 0.05503958
v -0.09328747 0.13044932 -0.28997576
v -0.0838463 0.11062 -0.238883
v -0.114603 0.104637 -0.445501
v -0.289471 0.569074 -0.162469
v -0.153665 0.185489 -0.611191
v -0.137484 0.129002 -0.534091
v -0.1342268 0.26230907 -0.65937996
v -0.076107025 0.742568 -0.12667084
v -0.128934 0.593549 -0.0276065
v -0.21939564 0.707695 -0.42845917
v -0.0943475 -0.648249 0.746058
v -0.199042 0.926972 -0.236591
v -0.155831 0.94592 -0.253016
v -0.182289 0.937359 -0.304334
v -0.2255 0.918412 -0.287909
v -0.198381 0.950853 -0.26973
v -0.208287 -0.52835 0.637223
v -0.19454265 0.7900163 -0.29716063
v 0.358205 0.712515 -0.324745
v -0.460792 0.730831 -0.231063
v -0.08973992 0.82079524 -0.23311055
v -0.119478 -0.295776 -0.113872
v -0.21708637 0.8562408 -0.29840028
v -0.296601 -0.602967 -0.109127
v -0.1591084 0.816977 -0.22032487
v -0.14359927 0.8037796 -0.3375368
v -0.124910355 0.812469 -0.32661533
v -0.267679 0.610284 -0.129549
v -0.04634857 -0.4417076 0.11598587
v -0.307295 0.256707 -0.578835
v -0.08287826 0.8230387 -0.2489419
v -0.40542424 0.7361107 -0.17367387
v -0.019987106 0.80278206 -0.4124012
v -0.2284441 0.75940883 -0.24543285
v 0.18676758 0.6629505 -0.13343239
v -0.018273592 0.18554115 0.81272125
v -0.249966 0.723503 -0.332259
v -0.330812 0.76374245 -0.23771816
v -0.32003 0.739642 -0.304714
v -0.18754482 0.75791526 -0.19278646
v 0.402685 0.758643 -0.236201
v -0.022921562 0.7682123 -0.4469862
v -0.072690964 0.7865639 -0.16869736
v -0.17009664 0.7809591 -0.37841988
v 0.20324755 0.90282154 -0.32052565
v -0.239082 0.578957 -0.111996
v 0.00038285553 -0.07736671 0.995303
v -0.288912 -0.666279 -0.0831981
v -0.22083509 0.2470603 0.27202225
v -0.19168377 0.8674755 -0.33058
v -0.36835194 -0.15836191 0.45483398
v -0.12402344 0.8923521 -0.28626156
v -0.04116106 -0.23894405 -0.17237663
v 0.180783 0.946411 -0.244635
v -0.246529 0.67248 -0.397952
v -0.343967 0.620068 -0.286887
v -0.192516 0.777938 -0.227759
v -0.16347694 -0.48169518 0.5190582
v -0.267222 0.417414 -0.116444
v -0.18380165 -0.45554113 0.5337677
v -0.19188714 0.26310253 0.3071041
v -0.354786 -0.614851 0.0904298
v 0.18201256 -0.45606232 0.53596115
v -0.37481225 -0.31369376 0.17788458
v -0.38031828 -0.4028709 -0.037210226
v -0.14660895 -0.49270058 0.35358047
v -0.259412 0.1698 -0.542722
v 0.214224 0.916672 -0.246046
v -0.22580749 0.73739624 -0.34059906
v -0.248106 -0.06932104 -0.12369156
v -0.25636622 0.21063454 0.2110548
v -0.046341896 0.82828474 -0.3359127
v -0.194944 0.134806 -0.523346
v -0.26153278 0.7466116 -0.28804016
v -0.308326 -0.632734 0.733956
v 0.01187253 0.83152556 -0.34122086
v -0.278055 0.600765 -0.320108
v -0.0840444 -0.64607 0.797118
v -0.20629597 0.8602469 -0.31874156
v -0.202463 0.304851 -0.656009
v -0.186967 -0.607615 -0.104287
v -0.069999695 -0.0755406 0.9855652
v -0.148115 -0.512563 0.149929
v 0.20786285 0.04148674 0.8781204
v -0.295245 0.436762 -0.484187
v -0.126715 0.537337 0.0111468
v -0.241923 -0.609859 -0.117359
v -0.26979 -0.455493 0.624003
v -0.20750171 0.88750875 -0.2362043
v -0.03514862 -0.089044094 1.0216465
v -0.101319 -0.442167 0.150389
v -0.120968 0.319807 0.0225689
v -0.041140556 -0.0039634705 0.9871979
v -0.3060379 -0.067371845 0.82159233
v 0.317818 -0.392423 0.305485
v 0.33563575 -0.38503358 0.42573428
v -0.300873 -0.335808 -0.11045
v 0.23248029 -0.4357594 0.35940933
v 0.27844426 -0.41311336 0.3091346
v -0.203436 -0.628169 0.923071
v 0.0359638 0.781745 -0.13792
v 0.2099 -0.457622 0.202318
v 0.274846 -0.418754 0.252658
v 0.194817 -0.437402 0.239358
v 0.231211 -0.430966 0.245486
v 0.34920532 -0.36401483 0.25052428
v 0.312495 -0.42258 0.208415
v 0.316601 -0.396416 0.250199
v -0.02180256 0.23099011 0.5078559
v 0.291362 -0.413379 0.536815
v 0.30832905 -0.40815902 0.4284575
v -0.11603117 0.8059523 -0.3742733
v 0.26979 -0.455493 0.624003
v 0.236564 -0.444228 0.584476
v 0.315111 -0.397679 0.592146
v 0.280089 -0.425608 0.586435
v 0.156119 -0.458526 0.595789
v -0.402685 0.758643 -0.236201
v 0.164011 -0.483033 0.631406
v 0.191143 -0.453861 0.591118
v -0.185474 -0.638484 0.162245
v 0.24757063 -0.4319089 0.53087664
v 0.300873 -0.335808 -0.11045
v 0.23546 -0.269794 -0.12322
v 0.283535 -0.198083 -0.11242
v 0.34412238 -0.28739214 -0.081148624
v 0.292915 -0.260195 -0.110308
v 0.119478 -0.295776 -0.113872
v -0.265715 0.160342 -0.469212
v 0.176383 -0.34915 -0.10631
v 0.174532 -0.282877 -0.121531
v 0.102981 -0.465723 0.632974
v 0.16830063 -0.13316345 -0.17228317
v 0.17170143 -0.2271924 -0.14425993
v 0.21329498 -0.2046938 -0.13916063
v -0.0359638 0.781745 -0.13792
v -0.19780664 -0.4803953 0.41766304
v 0.274851 -0.146856 -0.114171
v 0.30789757 -0.017365456 -0.041832924
v -0.113033 -0.684171 0.844965
v 0.2687025 -0.014238 -0.0873642
v -0.106751 -0.633108 0.0275567
v 0.40571427 0.73620677 -0.17381215
v 0.24612522 -0.07073076 -0.12548256
v 0.3141682 -0.12108421 -0.074919224
v 0.191876 0.948989 -0.288378
v -0.268509 -0.018423 0.854481
v -0.444197 0.711394 -0.263256
v 0.20041847 -0.10403967 -0.15751839
v 0.199052 0.0623656 -0.105989
v 0.148915 0.00578811 -0.165362
v 0.190658 0.0074224 -0.137241
v -0.201014 0.943338 -0.25145
v 0.0552219 -0.529321 0.415644
v -0.153584 -0.625261 0.914716
v -0.13060498 0.15194607 -0.576457
v -0.288523 -0.704927 -0.0329901
v 0.25092697 -0.1895523 0.8980408
v -0.224501 0.676789 -0.452578
v -0.294197 -0.618974 0.884469
v 0.25985336 -0.27284053 0.9000659
v -0.32675 0.280027 -0.535933
v -0.368236 -0.614976 0.0306267
v -0.260651 -0.513618 0.642398
v 0.16584396 -0.27565765 0.9309883
v 0.14772224 -0.39234024 0.9203105
v 0.104904 -0.328487 0.922781
v 0.15673 -0.332639 0.924128
v 0.36501887 -0.24193001 -0.029941082
v 0.17396188 0.8751526 -0.33068883
v -0.335933 -0.414813 0.716014
v -0.167034 0.18223 -0.122798
v -0.15734851 -0.45858118 0.59528905
v -0.31354 -0.474577 0.887895
v 0.33690214 -0.03170395 0.004921913
v -0.312606 0.638668 -0.319124
v 0.186655 0.907214 -0.322451
v 0.37966967 -0.16602993 0.11079788
v -0.337524 -0.478425 0.840051
v 0.379176 -0.364086 0.102343
v -0.104202 0.191409 0.755412
v 0.38182402 -0.28793356 0.10080302
v -0.196917 0.927676 -0.311546
v 0.3575225 -0.34295988 0.40529633
v 0.201014 0.943338 -0.25145
v -0.216862 0.918936 -0.303965
v 0.3808732 -0.26280695 0.28754044
v 0.37450057 -0.31667864 0.17738247
v -0.318789 -0.39181018 0.30561447
v -0.1537 0.943252 -0.269054
v -0.18075716 0.24328506 0.01373291
v -0.191876 0.948989 -0.288378
v -0.199905 0.685497 -0.462496
v -0.315639 -0.625673 0.839496
v -0.15107536 -0.44721198 0.240551
v -0.232047 0.565216 -0.501918
v -0.11367712 -0.45289943 0.0949913
v -0.238328 0.704586 -0.373617
v 0.36533403 -0.11136913 0.45596313
v 0.38699418 -0.17177874 0.274724
v -0.16037703 0.90936995 -0.31428814
v -0.186655 0.907214 -0.322451
v 0.38435978 -0.085008085 0.18787289
v 0.38316655 -0.09163135 0.26827145
v -0.3439498 -0.4554966 0.78350544
v -0.115674 0.055105 -0.187883
v 0.24379373 0.6857023 -0.39032173
v -0.20380926 0.2312912 -0.17670703
v 0.32997203 0.028543472 0.05083084
v 0.3599267 -0.044727564 0.06588745
v -0.012386322 0.09068298 0.92708206
v 0.17284775 0.011428833 0.92331696
v -0.12156868 -0.15557098 -0.18915796
v -0.33078384 -0.23552942 0.7653694
v 0.14578152 -0.44807708 0.23770714
v -0.244434 -0.716483 0.736358
v 0.3753407 -0.06379533 0.12600136
v -0.216036 0.894273 -0.311279
v 0.192516 0.777938 -0.227759
v 0.046779633 -0.44171047 0.11634064
v 0.19466329 0.7897798 -0.2965412
v 0.3351121 -0.37607527 0.83512974
v 0.334716 -0.360298 0.654176
v 0.0003156662 0.82447004 -0.21144676
v 0.335933 -0.414813 0.716014
v 0.339263 -0.356428 0.715872
v 0.029524751 0.83341205 -0.2889657
v -0.0552219 -0.529321 0.415644
v -0.032131076 -0.41454983 0.78551483
v 0.34065318 -0.29051256 0.71079063
v -0.12826538 0.30099082 -0.6672216
v -0.179801 0.930945 -0.23207
v -0.312495 -0.42258 0.208415
v -0.23126554 0.76069856 -0.22060823
v 3.0272331e-05 -0.3957653 -0.016433716
v 0.30582237 -0.06773758 0.8220825
v -0.384792 0.647908 -0.143704
v -0.198408 -0.728532 0.734591
v 0.390758 0.753705 -0.27032
v 0.31247568 -0.21881795 0.8205776
v 0.354275 -0.10889745 0.64694595
v -0.276152 -0.679477 0.14116
v -0.06483078 -0.2747116 0.94158936
v 0.32824326 -0.050828323 0.7524891
v -0.23197734 0.10787392 0.7542362
v 0.33621454 -0.10346961 0.7522049
v -0.079624176 -0.026322365 -0.21001053
v -0.097144604 0.8214054 -0.29880428
v 0.17745 0.953646 -0.260405
v -0.226436 0.912723 -0.26973
v -0.15200733 0.28825656 0.023082852
v -0.22053897 0.8514029 -0.27432114
v 0.1537 0.943252 -0.269054
v -0.213772 0.26767 -0.647803
v -0.23856053 0.23668504 0.15749216
v -0.246645 0.312827 -0.640337
v -0.30148804 0.038333893 -0.0068626404
v 0.35483456 -0.20359802 0.5975952
v -0.176383 -0.34915 -0.10631
v -0.2094307 -0.5419604 0.9313796
v 0.3362707 -0.3597964 0.5658016
v -0.144853 -0.503338 0.468859
v -0.272045 0.45855 -0.143225
v 0.21544 0.938681 -0.279423
v 0.3430931 -0.3091944 0.64563084
v -0.283587 -0.684515 0.738785
v -0.333345 0.309542 -0.480189
v 0.22988 0.247545 0.157829
v -0.37536 0.738148 -0.30116
v 0.104263306 -0.025177002 0.97538376
v -0.214224 0.916672 -0.246046
v 0.173937 0.295795 0.151795
v 0.201028 0.279793 0.204606
v 0.208445 0.255016 0.0997486
v 0.204742 0.274117 0.153286
v 0.19184351 0.2630272 0.3073387
v -0.274846 -0.418754 0.252658
v 0.166122 0.2964 0.255682
v 0.197174 0.276415 0.252836
v -0.305291 -0.427537 -0.115465
v -0.30391 -0.498066 0.668956
v -0.151829 -0.713932 0.849146
v -0.378455 -0.525308 -0.0356201
v 0.22443926 0.17176437 0.41744995
v 0.16232109 0.79617643 -0.3372668
v -0.1362567 0.7493496 -0.44278526
v 0.19475985 -0.4434981 0.2874298
v -0.32641843 -0.5471436 0.72500145
v -0.3058884 -0.40941462 0.42271614
v 0.22089136 0.24686599 0.2721491
v -0.07729077 0.69564056 -0.48278046
v 0.216965 0.931825 -0.261167
v -0.272516 0.239582 -0.609537
v 0.19123024 0.1796062 0.48228264
v -0.271665 0.531425 -0.180446
v 0.18263721 0.2057209 0.4293518
v -0.290372 0.624108 -0.317788
v -0.298509 0.427522 -0.236282
v 0.159856 0.939686 -0.239651
v -0.419572 0.658706 -0.261892
v -0.38216573 -0.2540726 0.27773285
v 0.24098587 0.1186825 0.67221355
v 0.195015 0.146226 0.738197
v 0.23372126 0.11268139 0.7323761
v -0.136552 -0.67511 -0.0280042
v 0.248651 0.737773 -0.18066
v 0.17788434 0.13113403 0.8075714
v -0.24435616 0.37247932 -0.09170079
v 0.15071154 0.1743474 0.7452049
v 0.22629598 0.7370944 -0.34043407
v 0.165912 0.939303 -0.292739
v -0.160058 0.168229 -0.195838
v 0.237857 -0.0169093 0.886885
v -0.16811916 0.9033747 -0.22266129
v -0.417303 0.633713 -0.225256
v 0.2500289 0.12330854 0.48146725
v 0.12555793 0.20682025 0.54469013
v 0.19160546 0.1701647 0.5409212
v -0.1613487 0.7965257 -0.2164923
v -0.113288 -0.573273 0.0910993
v -0.3752699 -0.06423223 0.12503242
v 0.18465579 0.16732268 0.6832514
v -0.17745 0.953646 -0.260405
v -0.460337 0.681448 -0.17325
v -0.15147519 0.17293787 0.748724
v -0.0473693 -0.423079 0.799815
v -0.16653094 0.42149454 0.013533786
v -0.182701 -0.527846 -0.109937
v -0.015110016 0.16250229 0.8515358
v -0.12888321 0.91637886 -0.26487184
v 0.34203637 0.03906536 0.24781704
v -0.0576974 -0.360469 0.893822
v -0.25113 -0.502745 0.197094
v 0.33406985 0.0062999725 0.42617798
v 0.30586222 0.051488042 0.4678917
v 0.28311348 0.10757542 0.3751831
v 0.32896733 -0.008762836 0.6596184
v -0.471552 0.708579 -0.199184
v 0.14367127 0.8033955 -0.3375795
v 0.31510162 -0.014523745 0.75359154
v 0.27204704 0.03790438 0.7954979
v -0.1717081 -0.2271781 -0.1442585
v 0.2896304 0.04472086 0.72624207
v -0.12958884 0.81576 -0.2165817
v -0.248642 -0.724519 0.790895
v -0.30200958 0.29119635 -0.2942934
v 0.268509 -0.018423 0.854481
v 0.291897 -0.0177918 0.816142
v 0.181753 0.135303 -0.0848536
v 0.0705061 -0.461083 0.663389
v 0.29938406 0.03589058 -0.0137043
v 0.20757 0.117335 -0.0616182
v -0.07395792 -0.5131054 0.35189056
v 0.1297092 0.91804737 -0.24759698
v 0.12862837 0.91613114 -0.26448178
v 0.28716564 0.13691711 0.09736633
v -0.136631 -0.686121 0.0787634
v 0.25089073 0.18196917 0.07121277
v -0.176191 -0.716151 0.0857864
v -0.28326273 0.042562723 0.758152
v -0.27859622 0.55535233 -0.34227133
v -0.0641499 -0.454693 0.696538
v -0.113975525 -0.01368618 -0.19010067
v -0.288217 -0.679435 0.838379
v -0.18821716 -0.09938812 0.9395561
v -0.19388103 0.7776027 -0.29831696
v -0.0060619116 -0.09574363 1.0354315
v -0.19666672 0.37563133 -0.63510513
v -0.3963046 0.712482 -0.15570605
v -0.0840611 -0.222685 -0.173847
v 0.3605219 -0.0016665459 0.15839672
v -0.24876165 0.7022066 -0.15948439
v -0.296456 0.295786 -0.60247
v 0.32239997 0.082746744 0.14511251
v 0.26017588 0.2030288 0.15530396
v 0 -0.53078 0.469003
v 0.149034 0.119255 -0.152767
v 0.167034 0.18223 -0.122798
v 0.177314 0.204818 -0.0510199
v 0.168725 0.158519 -0.103729
v 0.20381397 0.23129755 -0.1767106
v 0.177164 0.238112 -0.093383
v 0.160058 0.168229 -0.195838
v 0.175228 0.201681 -0.146613
v 0.149721 0.3008 -0.00470029
v 0.167426 0.259011 -0.0241111
v 0.17918 0.290497 -0.0609743
v 0.168557 0.27236 -0.0447148
v 0.15658017 0.80487865 -0.21830285
v 0.18047237 0.24311388 0.012051582
v 0.233098 0.21084 -0.267301
v 0.26422 0.274293 -0.228207
v 0.19356501 0.2601085 -0.11506069
v -0.375881 0.662505 -0.310821
v 0.314639 0.343639 -0.292523
v 0.27622 0.344814 -0.176785
v 0.30201292 0.2911954 -0.29428482
v -0.26422 0.274293 -0.228207
v 0.21143615 0.40209258 -0.029801786
v -0.33622217 -0.10423303 0.7525959
v 0.267222 0.417414 -0.116444
v 0.1604923 0.90969133 -0.31419468
v 0.15840307 0.31916168 -0.019875526
v 0.24433583 0.3724647 -0.091674685
v 0.1969099 0.14909458 -0.3415146
v 0.23826969 0.16349792 -0.37014484
v 0.28026223 0.2158606 -0.3505783
v 0.13723052 0.7978747 -0.37476063
v -0.37947652 -0.25510216 0.035511017
v 0.265715 0.160342 -0.469212
v 0.18461466 0.7727123 -0.21288443
v 0.233311 0.142158 -0.432916
v 0.305787 0.218563 -0.547441
v 0.307399 0.208213 -0.46356
v 0.259412 0.1698 -0.542722
v 0.290901 0.186126 -0.509143
v 0.330786 0.26947 -0.445487
v 0.31171 0.235804 -0.406418
v 0.32675 0.280027 -0.535933
v 0.321008 0.352655 -0.511417
v 0.173109 0.951035 -0.277835
v 0.333345 0.309542 -0.480189
v 0.272516 0.239582 -0.609537
v 0.296456 0.295786 -0.60247
v 0.307295 0.256707 -0.578835
v 0.240548 0.35766 -0.62796
v 0.289278 0.358786 -0.584918
v 0.246645 0.312827 -0.640337
v 0.274305 0.331026 -0.617491
v 0.295245 0.436762 -0.484187
v 0.255976 0.429549 -0.563622
v 0.295399 0.395443 -0.540067
v 0.335047 -0.66747 -0.026194
v 0.288313 -0.71953 0.0292002
v 0.233667 -0.718383 -0.0394682
v 0.288912 -0.666279 -0.0831981
v 0.288523 -0.704927 -0.0329901
v 0.276152 -0.679477 0.14116
v 0.227442 -0.724741 0.0933852
v 0.327044 -0.674066 0.0872825
v 0.281161 -0.710704 0.0910758
v 0.136631 -0.686121 0.0787634
v 0.172796 -0.723594 0.0247169
v 0.182766 -0.687312 0.135767
v 0.176191 -0.716151 0.0857864
v 0.187443 -0.669698 -0.0818819
v 0.136552 -0.67511 -0.0280042
v 0.179633 -0.708233 -0.0350267
v 0.2461 -0.678205 0.889508
v 0.198896 -0.723335 0.85193
v 0.248642 -0.724519 0.790895
v 0.288217 -0.679435 0.838379
v 0.246831 -0.711912 0.845432
v 0.113033 -0.684171 0.844965
v 0.148661 -0.727347 0.795626
v 0.15574 -0.680004 0.892121
v 0.151829 -0.713932 0.849146
v 0.157976 -0.694713 0.696986
v 0.198408 -0.728532 0.734591
v 0.115859 -0.693483 0.748115
v 0.153047 -0.720555 0.741401
v 0.283587 -0.684515 0.738785
v 0.24088 -0.688682 0.691628
v 0.244434 -0.716483 0.736358
v 0.342489 -0.483419 0.78141
v 0.101319 -0.442167 0.150389
v 0.30391 -0.498066 0.668956
v 0.3264177 -0.5471457 0.7250005
v 0.31354 -0.474577 0.887895
v 0.331331 -0.556659 0.842236
v 0.337524 -0.478425 0.840051
v 0.319732 -0.633454 0.786428
v 0.294197 -0.618974 0.884469
v 0.315639 -0.625673 0.839496
v 0.28283 -0.632563 0.691009
v 0.308326 -0.632734 0.733956
v -0.16045 0.112915 -0.441079
v -0.0543417 -0.44245 0.745122
v 0.0774719 -0.570173 0.85133
v 0.0969194 -0.478778 0.897495
v 0.0640558 -0.43362355 0.8518002
v 0.106684 -0.534636 0.682874
v 0.083367765 -0.5897627 0.7393613
v 0.069956 -0.47422 0.735292
v -0.176513 0.760515 -0.410655
v 0.0840444 -0.64607 0.797118
v 0.119063 -0.647679 0.702012
v 0.0943475 -0.648249 0.746058
v 0.112805 -0.624088 0.888986
v 0.0899111 -0.634521 0.847274
v 0.252371 -0.581833 0.652832
v 0.208287 -0.52835 0.637223
v 0.260651 -0.513618 0.642398
v 0.20034 -0.651356 0.660475
v 0.244653 -0.641994 0.666514
v 0.15335 -0.595644 0.66033
v 0.156436 -0.650983 0.672896
v 0.153645 -0.534978 0.650489
v 0.149543 -0.554429 0.922812
v -0.237614 0.630468 -0.469873
v -0.3355131 -0.38513544 0.42618132
v 0.203436 -0.628169 0.923071
v 0.153584 -0.625261 0.914716
v 0.262868 -0.552296 0.920108
v 0.253551 -0.622939 0.912658
v 0.27108288 -0.45370102 0.9144378
v 0.348561 -0.464054 0.158716
v 0.37301326 -0.5182867 0.09612274
v 0.387436 -0.440321 0.0296682
v -0.118034 0.096215 -0.193935
v 0.368236 -0.614976 0.0306267
v 0.325558 -0.615423 0.139592
v 0.354786 -0.614851 0.0904298
v 0.340742 -0.597899 -0.0798229
v 0.378455 -0.525308 -0.0356201
v 0.364087 -0.605614 -0.0296813
v 0.354445 -0.427851 -0.0878125
v 0.38031942 -0.40286696 -0.03720832
v -0.0619855 -0.419454 0.0516405
v 0.182701 -0.527846 -0.109937
v 0.12704 -0.448099 -0.0735785
v 0.179139 -0.436248 -0.106528
v 0.304443 -0.521287 -0.117606
v 0.305291 -0.427537 -0.115465
v 0.241923 -0.609859 -0.117359
v 0.296601 -0.602967 -0.109127
v 0.141316 -0.607217 -0.0730372
v 0.186967 -0.607615 -0.104287
v 0.148115 -0.512563 0.149929
v 0.188536 -0.577394 0.174934
v 0.25113 -0.502745 0.197094
v 0.196177 -0.511769 0.183546
v 0.233064 -0.638226 0.175543
v 0.145237 -0.635178 0.13052
v 0.185474 -0.638484 0.162245
v 0.293784 -0.559568 0.181063
v 0.282371 -0.626877 0.167977
v 0.304357 -0.484216 0.189956
v 0.105712 -0.548895 -0.0268432
v 0.09751385 -0.4367858 0.03542696
v 0.096809864 -0.40841612 -0.021043383
v -0.043458223 0.3284626 0.072262526
v 0.106751 -0.633108 0.0275567
v 0.114552 -0.619641 -0.0267392
v 0.113288 -0.573273 0.0910993
v 0.117988 -0.635837 0.0828
v -0.164011 -0.483033 0.631406
v 0.1136772 -0.45289958 0.09499152
v 0.271184 0.525759 -0.460079
v -0.38186157 -0.28851053 0.10012418
v 0.32839796 0.35358787 -0.40202844
v 0.291391 0.478507 -0.418527
v 0.278055 0.600765 -0.320108
v 0.2826588 0.52919906 -0.26291418
v -0.069956 -0.47422 0.735292
v 0.2785961 0.5553503 -0.3422742
v 0.247008 0.54474 -0.114114
v 0.271214 0.498067 -0.167977
v 0.277875 0.55689 -0.190965
v 0.271665 0.531425 -0.180446
v 0.298509 0.427522 -0.236282
v -0.258116 0.645451 -0.13607
v 0.272045 0.45855 -0.143225
v 0.317802 0.38717 -0.32759
v 0.277858 0.727498 -0.319523
v 0.267679 0.610284 -0.129549
v 0.326452 0.645309 -0.138504
v -0.1683197 0.023166656 0.91944885
v 0.258116 0.645451 -0.13607
v 0.289471 0.569074 -0.162469
v 0.324346 0.587714 -0.15672
v 0.239082 0.578957 -0.111996
v 0.279361 0.583208 -0.137022
v 0.401583 0.612716 -0.19176
v 0.380321 0.61857 -0.152413
v -0.244653 -0.641994 0.666514
v 0.367842 0.597467 -0.17194
v 0.388682 0.680406 -0.144893
v 0.430349 0.658277 -0.154382
v 0.384792 0.647908 -0.143704
v 0.294439 0.591849 -0.266039
v 0.33709964 0.59185314 -0.23652458
v 0.294318 0.572729 -0.209871
v 0.28588 0.662049 -0.349089
v 0.312606 0.638668 -0.319124
v 0.290372 0.624108 -0.317788
v 0.375881 0.662505 -0.310821
v 0.343967 0.620068 -0.286887
v 0.35686207 0.6824429 -0.32887936
v 0.34177 0.649107 -0.318477
v 0.380591 0.614582 -0.245535
v -0.13724001 -0.5102429 0.41654348
v 0.393743 0.706765 -0.3123
v 0.444197 0.711394 -0.263256
v 0.419572 0.658706 -0.261892
v 0.412958 0.685943 -0.291128
v 0.452589 0.744444 -0.206816
v 0.471552 0.708579 -0.199184
v 0.43241 0.746455 -0.258303
v 0.460792 0.730831 -0.231063
v 0.447289 0.655956 -0.196803
v 0.447397 0.702392 -0.15815
v 0.460337 0.681448 -0.17325
v 0.417303 0.633713 -0.225256
v -0.202195 0.446614 -0.579567
v -0.28835773 0.14984751 0.14562893
v -0.271184 0.525759 -0.460079
v 0.258236 0.693552 -0.356883
v 0.226436 0.912723 -0.26973
v 0.08109331 0.29894924 0.3195305
v 0.08045161 0.31281233 0.26550674
v -0.23309231 -0.43527526 0.35966778
v -0.084777 0.331134 0.0392602
v -0.0735327 0.221293 0.545706
v -0.2130127 -0.20468235 -0.13925457
v 0.237614 0.630468 -0.469873
v -0.430349 0.658277 -0.154382
v 0.13500452 0.31014395 0.13005447
v -0.283535 -0.198083 -0.11242
v -0.324346 0.587714 -0.15672
v -0.185308 0.513743 -0.0172354
v -0.102981 -0.465723 0.632974
v 0.05771202 0.22738296 0.5093379
v 0.060699522 0.21773756 0.6980653
v -0.05957289 -0.45885417 0.7947445
v -0.093048096 -0.017906189 0.97811127
v 0.007888675 0.22301203 0.6995435
v -0.20182 0.742487 -0.402976
v 0.1232996 0.19999903 0.69129705
v -0.3518772 -0.35513926 0.41921997
v 0.111325 0.219111 0.491389
v 0.37536 0.738148 -0.30116
v -0.31065845 -0.21700153 0.8234596
v 0.035033 0.18494 0.809623
v 0.08809161 0.19641495 0.75803375
v 0.018914461 0.20669842 0.76358604
v 0.049726486 0.12696457 0.8898201
v -0.19526148 0.1395905 0.75988007
v -0.231211 -0.430966 0.245486
v 0.0344822 0.159128 0.852718
v 0.08525276 0.1765976 0.8064461
v -0.334716 -0.360298 0.654176
v 0.082948685 0.15337753 0.84612656
v -0.36504602 -0.24215698 -0.029944897
v 0.23471737 0.74287033 -0.30633163
v -0.166122 0.2964 0.255682
v -0.25746083 0.6171036 -0.43578434
v 0.13046062 0.80063295 -0.20869994
v 0.0012558103 -0.41889954 0.021558762
v -0.0406901 0.0790388 -0.244814
v 0.053661644 -0.3881588 -0.007825851
v -0.0688023 -0.319918 0.921674
v -0.0643107 0.550463 0.0321785
v 0.0804386 -0.407577 0.025012
v 0.0781392 -0.343402 -0.0680291
v 0.0771327 -0.378765 -0.022981
v 0.101981 -0.43742 0.118873
v 0.0918712 -0.426509 0.0746889
v -0.28562355 0.7001405 -0.3427391
v 0.015013933 -0.3793869 0.83948517
v 0.032518 -0.377955 0.851217
v -0.07858276 -0.06654763 0.9886024
v 0.227222 0.886884 -0.273083
v -0.17742705 0.7877475 -0.32629442
v 0.0021529943 -0.0659399 1.0474267
v -0.227222 0.886884 -0.273083
v 0.017615318 -0.4279709 0.74472046
v 0.0473693 -0.423079 0.799815
v 0.0641499 -0.454693 0.696538
v 0.0543417 -0.44245 0.745122
v 0.0576974 -0.360469 0.893822
v 0.0495204 -0.395304 0.851292
v -0.138015 -0.443895 0.192281
v -0.28265867 0.5291997 -0.26291466
v -0.16797638 -0.13348293 -0.1723957
v -0.33627188 -0.35904175 0.5685253
v -0.194817 -0.437402 0.239358
v -0.179139 -0.436248 -0.106528
v 0.06519586 0.24607086 0.44116974
v 0.11411834 0.23701859 0.4386711
v -0.304357 -0.484216 0.189956
v 0.12835503 0.2935338 0.31458282
v -0.031808615 0.33781314 0.0487628
v -0.10690379 0.2055614 0.6937709
v 0.084777 0.331134 0.0392602
v 0.16811955 0.9033757 -0.22266161
v 0.0436281 0.336529 0.047541
v -0.05528903 0.21872485 0.6989565
v -0.294439 0.591849 -0.266039
v -0.190658 0.0074224 -0.137241
v 0.12331378 0.3096694 0.049892485
v 0.18886292 0.8981031 -0.22636166
v 0.12668133 0.3370999 0.009584188
v 0.120968 0.319807 0.0225689
v 0 0.450581 0.0596803
v 0.058383614 0.4403056 0.055039614
v 0.12957898 0.8157197 -0.21657835
v 0.0632284 0.496693 0.0522852
v -0.197174 0.276415 0.252836
v 0.20750195 0.88750905 -0.23620433
v -0.012908459 -0.45622873 0.19053459
v 0.0443635 0.35226464 0.036401957
v -0.173937 0.295795 0.151795
v 0.19339073 -0.4748845 0.37257957
v 0.18104 0.470039 0.00485434
v 0.16653192 0.4214973 0.013533846
v -0.201028 0.279793 0.204606
v -0.20034 -0.651356 0.660475
v 0.13549423 0.5118866 -0.55241394
v -0.233667 -0.718383 -0.0394682
v 0.05324045 0.51431274 -0.5581646
v 0.07605171 0.7601061 -0.44647694
v -0.092803955 -0.42783976 0.080596924
v -0.325558 -0.615423 0.139592
v 0.025965214 0.7062912 -0.48093796
v 0.199905 0.685497 -0.462496
v 0.14867043 0.6840019 -0.47900963
v 0.150533 0.744043 -0.44196
v -0.01524961 -0.4053688 0.792778
v 0.20031166 0.49150085 -0.5489845
v 0.232047 0.565216 -0.501918
v 0.188173 0.564066 -0.51907
v -0.0606884 0.60785 0.00104436
v -0.15335 -0.595644 0.66033
v -0.207634 0.937732 -0.29671
v -0.307399 0.208213 -0.46356
v -0.409429 0.752424 -0.202781
v 0.138821 0.452917 -0.589054
v 0.060930252 0.45440674 -0.59407043
v -0.176258 0.119186 -0.482359
v 0.176513 0.760515 -0.410655
v -0.12704 -0.448099 -0.0735785
v 0.09126234 0.81739545 -0.34594536
v 0.19967318 0.37784195 -0.6329994
v -0.17508721 0.12211719 -0.39638186
v -0.02264309 -0.08284055 1.0437942
v -0.13153076 -0.49211216 0.53121185
v -0.20789988 0.76498234 -0.2401784
v 0.011651039 -0.21115875 0.96832275
v 0.224501 0.676789 -0.452578
v -0.168557 0.27236 -0.0447148
v -0.204742 0.274117 0.153286
v 0.06482315 -0.27583313 0.94096565
v 0.04733181 -0.30965805 0.9224701
v 0.08753967 -0.20030975 0.9634285
v -0.20157433 0.5674763 -0.07056236
v -0.304443 -0.521287 -0.117606
v 0.033426285 -0.27850533 -0.14269829
v 0.04988098 -0.32238007 -0.09428406
v 0.00017855316 -0.32942963 -0.09685135
v -0.214141 -0.334681 0.919903
v 0.056494236 -0.23184967 -0.17517185
v -0.0013387203 0.804513 -0.16173935
v -0.11396128 0.43483502 0.040830374
v -0.159856 0.939686 -0.239651
v 0.0878074 -0.176513 -0.193941
v 0.39696264 0.71456933 -0.15661025
v 0.0796433 -0.304819 -0.108871
v 0.07442552 -0.5234034 0.4717207
v -0.182766 -0.687312 0.135767
v 0.040513992 -0.119781494 -0.21467209
v -0.179633 -0.708233 -0.0350267
v 0.28562164 0.70014095 -0.34273863
v 0.09976959 -0.026315212 -0.19956207
v -0.188536 -0.577394 0.174934
v -0.1089735 0.7825661 -0.18081379
v -0.291897 -0.0177918 0.816142
v 0.115674 0.055105 -0.187883
v -0.208445 0.255016 0.0997486
v 0.119989395 -0.15566349 -0.18971539
v 0 0.0779149 -0.251636
v 0.0428926 0.103386 -0.257977
v 0.0803711 0.0844567 -0.225271
v 0.0406901 0.0790388 -0.244814
v 0.025875166 0.118118875 -0.3071173
v 0.0884331 0.12573 -0.258533
v 0 0.114136 -0.282485
v 0.0449537 0.11665 -0.27594
v 0.120922 0.124855 -0.209363
v 0.028665781 -0.09233558 1.0255213
v 0.128964 0.142918 -0.232488
v 0.118034 0.096215 -0.193935
v -0.31171 0.235804 -0.406418
v -0.277875 0.55689 -0.190965
v 0.093280554 0.13044792 -0.28998005
v -0.240548 0.35766 -0.62796
v 0.101766706 0.10285991 -0.44970638
v 0.089728236 0.103937805 -0.40205145
v -0.05087614 0.20439196 0.758873
v -0.196177 -0.511769 0.183546
v 0.17416334 0.12176058 -0.39630985
v 0.16045 0.112915 -0.441079
v 0.07294124 -0.5132191 0.35154152
v 0.13936633 0.14898938 -0.26775563
v -0.052943066 0.109064355 -0.49461845
v 0.1225158 0.12743115 -0.5350785
v 0.14796638 0.92957735 -0.28404617
v 0.112142175 0.11146641 -0.4946953
v 0.13488336 0.18599987 -0.6154766
v 0.1475 0.153854 -0.575332
v 0.06686258 0.15104389 -0.5800314
v -0.04033485 0.10146806 -0.40215278
v 0.194944 0.134806 -0.523346
v 0.219301 0.191387 -0.600189
v 0.210129 0.15949 -0.56385
v 0.176258 0.119186 -0.482359
v -0.069355965 0.21929836 -0.64316845
v -0.101530075 -0.04116249 0.9815941
v 0.21798602 0.76128346 -0.22705722
v 0.1362772 0.22232628 -0.6414871
v 0.1261797 0.30424947 -0.66739744
v -0.317802 0.38717 -0.32759
v -0.33665913 0.5923071 -0.2378397
v 0.213772 0.26767 -0.647803
v 0.202463 0.304851 -0.656009
v 0.21995 0.228648 -0.628685
v 0.126715 0.537337 0.0111468
v 0.0606884 0.60785 0.00104436
v 0 0.554408 0.0408567
v 0.0643107 0.550463 0.0321785
v -0.032242775 -0.06300449 1.0400648
v 0.185308 0.513743 -0.0172354
v -0.14962316 0.22433472 0.4356575
v 0.20157051 0.567503 -0.07056999
f 810 211 807 
f 370 1414 1418 
f 748 738 737 
f 753 737 738 
f 190 741 740 
f 1170 1162 1167 
f 87 481 95 
f 434 741 753 
f 745 747 191 
f 744 191 747 
f 746 747 190 
f 741 190 747 
f 1182 308 1190 
f 737 750 748 
f 191 749 745 
f 750 745 749 
f 752 753 194 
f 738 194 753 
f 1021 1022 268 
f 464 673 429 
f 195 756 755 
f 758 755 756 
f 194 757 752 
f 758 752 757 
f 759 196 762 
f 764 762 196 
f 761 762 195 
f 756 195 762 
f 764 434 753 
f 320 1227 1230 
f 196 630 764 
f 471 1142 1289 
f 769 765 766 
f 198 766 765 
f 768 769 201 
f 767 201 769 
f 776 773 199 
f 770 199 773 
f 772 773 198 
f 766 198 773 
f 1210 175 91 
f 167 986 172 
f 1211 503 677 
f 42 1068 1070 
f 201 767 787 
f 780 787 767 
f 786 780 791 
f 775 791 780 
f 969 115 1396 
f 590 805 63 
f 1038 1046 272 
f 107 691 713 
f 776 1412 777 
f 1154 1179 48 
f 781 787 783 
f 786 783 787 
f 786 791 1406 
f 775 1406 791 
f 332 376 861 
f 93 861 376 
f 334 771 1368 
f 794 792 783 
f 1406 793 786 
f 794 786 793 
f 520 674 1014 
f 801 1142 471 
f 210 1148 211 
f 803 211 1148 
f 1159 1166 768 
f 803 800 208 
f 2 229 803 
f 1156 43 1168 
f 1321 1322 1252 
f 1399 785 503 
f 436 807 208 
f 1070 1457 42 
f 211 810 210 
f 808 210 810 
f 809 810 209 
f 807 209 810 
f 201 811 768 
f 628 854 726 
f 214 1160 215 
f 811 215 1160 
f 568 804 174 
f 216 682 79 
f 787 817 201 
f 811 201 817 
f 123 931 1254 
f 507 1161 545 
f 1373 161 39 
f 6 1286 502 
f 215 824 214 
f 822 214 824 
f 830 824 829 
f 1433 40 1054 
f 830 826 748 
f 738 748 826 
f 783 993 781 
f 39 161 1358 
f 1312 1311 1126 
f 573 228 459 
f 883 233 888 
f 999 154 1001 
f 1210 534 175 
f 23 793 1410 
f 1316 940 254 
f 1228 1195 1226 
f 382 224 1258 
f 1406 1412 367 
f 725 119 1432 
f 325 642 627 
f 509 870 1018 
f 411 1207 255 
f 846 30 841 
f 1301 171 620 
f 1071 1070 1068 
f 1382 382 1258 
f 900 842 841 
f 75 1018 870 
f 842 845 846 
f 720 585 105 
f 1119 511 1372 
f 337 1291 1293 
f 546 1249 727 
f 668 754 173 
f 1358 1359 39 
f 907 900 872 
f 223 852 851 
f 817 851 852 
f 680 876 633 
f 881 683 1241 
f 227 872 900 
f 768 1160 1159 
f 852 223 859 
f 1013 859 223 
f 820 212 859 
f 852 859 212 
f 26 105 585 
f 358 357 422 
f 787 781 817 
f 921 932 915 
f 212 817 852 
f 878 882 888 
f 1135 755 1109 
f 1145 1144 1141 
f 621 59 640 
f 255 1287 407 
f 872 868 907 
f 865 907 868 
f 867 868 225 
f 18 1109 755 
f 297 1121 294 
f 1256 1330 751 
f 355 733 119 
f 800 803 229 
f 864 882 2 
f 229 2 882 
f 1091 44 1147 
f 20 1123 1122 
f 667 986 78 
f 8 229 878 
f 888 886 878 
f 1364 1351 1359 
f 331 132 1332 
f 1184 234 69 
f 181 671 1343 
f 882 878 229 
f 888 227 883 
f 32 643 1377 
f 67 146 1454 
f 184 1332 132 
f 956 78 986 
f 781 993 817 
f 780 767 775 
f 1181 1186 308 
f 841 5 883 
f 233 883 5 
f 998 1017 1016 
f 715 648 1372 
f 1053 1290 542 
f 133 452 1036 
f 674 520 423 
f 237 954 54 
f 33 936 243 
f 898 463 722 
f 54 1377 643 
f 1420 1418 1414 
f 934 710 1251 
f 408 1372 648 
f 1462 1461 1340 
f 218 1290 86 
f 1386 64 341 
f 13 774 759 
f 194 738 903 
f 62 927 359 
f 900 907 842 
f 829 842 907 
f 1196 1200 1203 
f 1310 1314 342 
f 823 192 1431 
f 498 451 816 
f 1330 1431 1269 
f 212 820 215 
f 1134 298 1140 
f 194 903 757 
f 193 1289 1142 
f 903 907 865 
f 910 1017 3 
f 348 86 1339 
f 332 87 1451 
f 152 690 207 
f 238 915 914 
f 917 914 915 
f 917 910 916 
f 3 916 910 
f 918 932 921 
f 1087 1085 1081 
f 920 921 238 
f 915 238 921 
f 799 207 690 
f 899 351 14 
f 1115 1147 44 
f 539 887 536 
f 19 586 1218 
f 1006 153 836 
f 882 864 227 
f 936 958 926 
f 39 1360 1373 
f 896 722 649 
f 1392 1390 1391 
f 932 926 978 
f 938 918 243 
f 21 243 918 
f 273 477 875 
f 1300 337 1296 
f 938 936 926 
f 1101 290 1103 
f 1385 1381 885 
f 545 424 507 
f 90 619 142 
f 106 548 118 
f 1089 1186 46 
f 246 949 249 
f 945 946 964 
f 944 964 946 
f 147 1249 838 
f 523 1379 509 
f 546 67 1003 
f 248 949 951 
f 137 1252 234 
f 951 945 964 
f 628 249 949 
f 107 118 437 
f 129 96 402 
f 564 1368 771 
f 960 958 936 
f 276 1052 1056 
f 1458 1452 1456 
f 398 429 714 
f 233 979 886 
f 1374 1320 121 
f 1097 1103 290 
f 1241 55 1242 
f 142 1465 90 
f 1417 1419 374 
f 1271 964 959 
f 960 959 964 
f 630 705 454 
f 1311 992 13 
f 151 90 1465 
f 285 1085 1077 
f 160 620 171 
f 976 30 973 
f 955 726 455 
f 653 506 720 
f 112 156 530 
f 997 176 403 
f 513 596 484 
f 1082 1155 48 
f 102 159 797 
f 447 438 25 
f 472 473 467 
f 1096 50 1132 
f 976 978 977 
f 13 1126 1311 
f 717 444 930 
f 802 836 153 
f 985 982 257 
f 979 257 982 
f 851 817 993 
f 1115 44 1116 
f 985 946 983 
f 246 983 946 
f 1238 1236 1237 
f 1231 1235 1229 
f 311 1464 36 
f 492 378 677 
f 1290 1053 1031 
f 1151 1150 302 
f 886 982 878 
f 990 878 982 
f 990 983 989 
f 4 989 983 
f 991 260 994 
f 1104 49 1118 
f 792 994 783 
f 993 783 994 
f 916 3 1000 
f 154 141 1402 
f 1117 1118 49 
f 1000 260 1032 
f 269 485 83 
f 998 261 1000 
f 1099 1098 1096 
f 1328 1339 1334 
f 703 691 151 
f 437 151 691 
f 130 83 485 
f 197 739 110 
f 978 976 31 
f 1001 459 228 
f 944 257 958 
f 977 958 257 
f 533 1263 145 
f 590 185 925 
f 887 613 1280 
f 1317 855 1257 
f 1261 1257 197 
f 1295 1365 728 
f 5 976 233 
f 979 233 976 
f 10 1190 1171 
f 578 435 987 
f 1193 1206 37 
f 445 581 836 
f 223 1016 1013 
f 77 549 743 
f 1421 370 1423 
f 1013 1016 973 
f 998 851 261 
f 651 328 1388 
f 886 888 233 
f 1016 223 851 
f 31 1016 1017 
f 1453 1457 377 
f 681 362 1301 
f 162 646 1426 
f 708 181 995 
f 1117 49 1137 
f 1397 167 441 
f 1016 31 973 
f 1019 265 1022 
f 1020 1022 265 
f 1022 1021 991 
f 260 991 1021 
f 1023 1035 1026 
f 1024 1026 1035 
f 1025 1026 265 
f 1020 265 1026 
f 1030 1027 1028 
f 267 1028 1027 
f 1035 1029 1024 
f 1030 1024 1029 
f 1021 1032 260 
f 1064 1193 1059 
f 1028 267 1032 
f 1212 1215 53 
f 1049 1034 1033 
f 1023 1033 1034 
f 762 764 756 
f 1356 157 324 
f 1038 1039 270 
f 1037 270 1039 
f 984 1257 855 
f 1034 1049 1039 
f 1327 1329 326 
f 409 226 234 
f 270 1043 1038 
f 1046 1038 1043 
f 884 324 157 
f 1029 1035 1046 
f 1244 56 1245 
f 1045 1046 1041 
f 416 492 677 
f 989 8 990 
f 1033 1048 1049 
f 1233 57 1224 
f 274 1052 40 
f 1054 40 1052 
f 1047 1433 1048 
f 1054 1048 1433 
f 1056 1058 275 
f 1055 275 1058 
f 1057 1058 274 
f 1052 274 1058 
f 314 1224 57 
f 1060 1039 1049 
f 275 1059 1056 
f 1060 1056 1059 
f 1061 1064 275 
f 1059 275 1064 
f 1193 1064 279 
f 1062 279 1064 
f 277 1066 1065 
f 1067 1065 1066 
f 275 1055 1061 
f 1067 1061 1055 
f 278 1069 1068 
f 1071 1068 1069 
f 1070 1071 277 
f 1066 277 1071 
f 279 1062 1072 
f 1074 1072 1062 
f 1073 1074 278 
f 1069 278 1074 
f 1076 1079 281 
f 1075 281 1079 
f 1077 284 1079 
f 1078 1079 284 
f 1081 1083 282 
f 1080 282 1083 
f 281 1082 1076 
f 1083 1076 1082 
f 283 1085 1084 
f 1087 1084 1085 
f 282 1086 1081 
f 1087 1081 1086 
f 284 1077 1088 
f 1090 1088 1077 
f 1090 1085 1089 
f 283 1089 1085 
f 1092 1095 286 
f 1091 286 1095 
f 1095 1093 1094 
f 289 1094 1093 
f 1097 1099 287 
f 1096 287 1099 
f 286 1098 1092 
f 1099 1092 1098 
f 288 1101 1100 
f 1103 1100 1101 
f 287 1102 1097 
f 1103 1097 1102 
f 289 1093 1104 
f 1106 1104 1093 
f 1101 288 1106 
f 1105 1106 288 
f 225 1107 867 
f 1110 867 1107 
f 292 1109 1110 
f 1140 1124 761 
f 1112 1113 291 
f 1111 291 1113 
f 864 1113 225 
f 1107 225 1113 
f 289 1114 1094 
f 1116 1094 1114 
f 291 1115 1112 
f 1116 1112 1115 
f 1110 1118 292 
f 1117 292 1118 
f 289 1104 1114 
f 1118 1114 1104 
f 821 847 445 
f 262 1011 165 
f 1122 1123 296 
f 1121 296 1123 
f 608 698 818 
f 295 1125 1124 
f 581 445 847 
f 1125 294 1126 
f 1128 1130 287 
f 1102 287 1130 
f 295 1129 1125 
f 1130 1125 1129 
f 296 1121 1131 
f 1132 1131 1121 
f 287 1096 1128 
f 1132 1128 1096 
f 1133 1135 292 
f 1109 292 1135 
f 755 1135 195 
f 1134 195 1135 
f 288 1136 1105 
f 1137 1105 1136 
f 292 1117 1133 
f 1137 1133 1117 
f 295 1138 1129 
f 1139 1129 1138 
f 1136 288 1139 
f 1100 1139 288 
f 195 1134 761 
f 1140 761 1134 
f 295 1124 1138 
f 1140 1138 1124 
f 808 1122 1141 
f 296 1141 1122 
f 1394 1398 776 
f 210 808 299 
f 1144 1145 286 
f 1098 286 1145 
f 1141 296 1145 
f 1131 1145 296 
f 291 1146 1115 
f 1147 1115 1146 
f 286 1091 1144 
f 1147 1144 1091 
f 299 1148 210 
f 1059 37 1060 
f 1146 291 1148 
f 1111 1148 291 
f 300 1150 1149 
f 132 331 638 
f 214 822 1151 
f 1150 1151 822 
f 1153 1155 281 
f 1082 281 1155 
f 1150 300 1155 
f 1154 1155 300 
f 301 1157 1156 
f 1158 1156 1157 
f 281 1075 1153 
f 1158 1153 1075 
f 1151 1160 214 
f 72 103 264 
f 1157 301 1160 
f 1159 1160 301 
f 1344 346 1338 
f 1164 772 198 
f 1164 1162 1163 
f 303 1163 1162 
f 1165 1166 301 
f 1159 301 1166 
f 765 1166 198 
f 350 1338 346 
f 284 1167 1078 
f 1168 1078 1167 
f 301 1156 1165 
f 1168 1165 1156 
f 1162 1170 303 
f 1169 303 1170 
f 1167 284 1170 
f 1088 1170 284 
f 305 1172 1171 
f 1174 1171 1172 
f 191 744 1173 
f 1174 1173 744 
f 1175 1177 282 
f 1086 282 1177 
f 1176 1177 305 
f 1172 305 1177 
f 300 1178 1154 
f 1179 1154 1178 
f 282 1080 1175 
f 1179 1175 1080 
f 1173 1180 191 
f 749 191 1180 
f 1149 1180 300 
f 1178 300 1180 
f 1181 1183 303 
f 1163 303 1183 
f 323 1237 1236 
f 1451 407 404 
f 283 1185 1089 
f 1186 1089 1185 
f 303 1169 1181 
f 1186 1181 1169 
f 305 1187 1176 
f 1188 1176 1187 
f 283 1084 1185 
f 1188 1185 1084 
f 684 1354 1357 
f 618 853 81 
f 1171 1190 305 
f 1187 305 1190 
f 1198 1194 309 
f 1191 309 1194 
f 1072 1194 279 
f 1193 279 1194 
f 1195 310 1198 
f 1196 1198 310 
f 1028 268 1030 
f 224 1198 309 
f 1202 1199 1200 
f 311 1200 1199 
f 310 1201 1196 
f 1202 1196 1201 
f 1203 1205 270 
f 1043 270 1205 
f 1200 311 1205 
f 348 391 941 
f 835 148 616 
f 490 66 673 
f 270 1037 1203 
f 1206 1203 1037 
f 1208 1211 313 
f 677 313 1211 
f 503 1211 316 
f 1209 316 1211 
f 314 1213 1212 
f 1215 1212 1213 
f 313 1214 1208 
f 1215 1208 1214 
f 315 1217 1216 
f 1219 1216 1217 
f 1219 1213 314 
f 933 631 616 
f 1209 1222 316 
f 1220 316 1222 
f 1221 1222 315 
f 1217 315 1222 
f 1223 1225 310 
f 1201 310 1225 
f 1212 1225 314 
f 1224 314 1225 
f 318 1227 1226 
f 1228 1226 1227 
f 1228 1223 1195 
f 310 1195 1223 
f 1230 1232 319 
f 1229 319 1232 
f 1231 1232 318 
f 1227 318 1232 
f 1238 1229 1235 
f 227 888 882 
f 319 1233 1230 
f 1224 1230 1233 
f 1236 1238 321 
f 1235 321 1238 
f 1237 319 1238 
f 1229 1238 319 
f 322 1240 1239 
f 1242 1239 1240 
f 321 1241 1236 
f 1242 1236 1241 
f 315 1243 1221 
f 1245 1221 1243 
f 1240 322 1245 
f 1244 1245 322 
f 319 1237 1233 
f 1246 1233 1237 
f 1246 1243 1216 
f 315 1216 1243 
f 1184 1325 612 
f 119 725 839 
f 326 345 327 
f 69 327 345 
f 1366 586 470 
f 470 1189 458 
f 234 1253 69 
f 932 31 241 
f 238 327 920 
f 750 749 748 
f 1252 1324 1253 
f 327 1253 1324 
f 327 1260 326 
f 1156 1158 43 
f 914 1260 238 
f 327 238 1260 
f 1265 751 1269 
f 1386 1313 809 
f 1269 1266 1265 
f 30 976 5 
f 1150 822 1149 
f 1296 1293 1298 
f 541 536 619 
f 341 28 1302 
f 910 917 241 
f 863 430 376 
f 474 436 497 
f 16 1149 822 
f 22 914 916 
f 1273 1265 959 
f 885 64 1385 
f 698 608 1455 
f 1183 1298 12 
f 678 1276 1278 
f 20 809 1313 
f 1278 1277 1266 
f 1285 1282 1279 
f 1196 1193 1198 
f 1276 678 1282 
f 971 1282 678 
f 1285 248 1283 
f 52 402 96 
f 1279 628 1285 
f 135 535 534 
f 1271 1266 1277 
f 906 388 934 
f 951 1277 248 
f 1283 248 1277 
f 369 858 158 
f 903 865 757 
f 1337 1338 71 
f 326 1333 1327 
f 1293 877 1391 
f 942 957 611 
f 448 987 435 
f 974 129 242 
f 1298 1183 1296 
f 1182 1296 1183 
f 1298 1293 1297 
f 1391 1297 1293 
f 1336 1327 1333 
f 1299 337 1300 
f 1296 1182 1300 
f 1190 1300 1182 
f 1032 1021 1028 
f 1046 1045 1029 
f 206 1426 646 
f 1303 341 1302 
f 1325 1329 325 
f 933 684 1357 
f 1309 1302 1361 
f 252 931 123 
f 1310 1312 294 
f 1126 294 1312 
f 1344 325 1329 
f 1311 1312 340 
f 341 1303 1313 
f 1314 1313 1303 
f 294 1123 1310 
f 1314 1310 1123 
f 416 743 549 
f 379 1321 1252 
f 122 458 1189 
f 344 1284 813 
f 849 51 224 
f 917 916 914 
f 145 27 701 
f 10 744 746 
f 1123 20 1314 
f 1086 1177 45 
f 1322 1321 1273 
f 1265 1273 1321 
f 1377 537 511 
f 40 1433 1434 
f 21 1324 243 
f 1322 243 1324 
f 147 727 1249 
f 1329 1325 345 
f 346 1344 1327 
f 1329 1327 1344 
f 449 754 675 
f 848 132 1152 
f 251 61 550 
f 7 644 237 
f 1048 1054 276 
f 1079 1076 1077 
f 398 668 669 
f 1333 326 1260 
f 1335 346 1336 
f 1327 1336 346 
f 1027 1336 267 
f 1333 267 1336 
f 1086 45 1087 
f 325 1338 1337 
f 349 1340 350 
f 1338 350 1340 
f 1082 48 1083 
f 1083 1081 1076 
f 1338 325 1344 
f 1183 1181 1182 
f 1041 1348 1045 
f 1335 1045 1348 
f 1157 302 1158 
f 1080 1083 48 
f 349 350 1347 
f 1348 1347 350 
f 1441 1443 626 
f 1279 81 467 
f 1403 367 1412 
f 1287 404 407 
f 1198 224 1195 
f 433 1258 224 
f 1359 1357 1354 
f 367 365 1416 
f 668 173 256 
f 1429 1430 140 
f 353 1359 1358 
f 1024 1030 268 
f 1354 1360 1359 
f 22 1032 267 
f 51 1195 224 
f 1362 1351 1364 
f 1363 1364 353 
f 1359 353 1364 
f 535 967 1280 
f 1367 489 834 
f 165 1259 262 
f 285 1081 1085 
f 1370 1371 1351 
f 1353 1351 1371 
f 422 1371 358 
f 823 1326 967 
f 1362 1073 1376 
f 278 1376 1073 
f 1351 1362 1370 
f 976 977 979 
f 358 1376 357 
f 42 357 1376 
f 278 1068 1376 
f 1297 12 1298 
f 71 1340 1461 
f 962 596 839 
f 342 340 1310 
f 1004 122 494 
f 853 467 81 
f 998 1000 3 
f 595 839 596 
f 93 430 425 
f 209 1385 809 
f 1386 809 1385 
f 756 764 758 
f 1313 1386 341 
f 50 1096 1098 
f 114 649 1449 
f 807 1387 209 
f 1385 209 1387 
f 1390 1392 640 
f 1272 1318 406 
f 859 1013 845 
f 877 1392 1391 
f 658 795 965 
f 742 902 333 
f 1394 1390 695 
f 640 695 1390 
f 485 269 931 
f 776 199 1394 
f 1398 1394 58 
f 774 13 992 
f 1400 1297 1391 
f 519 364 789 
f 199 770 1394 
f 1400 1394 770 
f 122 1189 815 
f 84 365 1403 
f 1370 358 1371 
f 147 456 635 
f 366 1406 367 
f 1350 1218 586 
f 367 1403 365 
f 988 146 1425 
f 268 1028 1021 
f 777 766 776 
f 1410 1406 366 
f 907 903 826 
f 58 1403 1398 
f 1412 1398 1403 
f 773 776 766 
f 1412 1406 775 
f 1414 1416 368 
f 1413 368 1416 
f 367 1416 366 
f 1415 366 1416 
f 1418 1420 1427 
f 1417 1427 1420 
f 1419 1420 368 
f 1414 368 1420 
f 265 1421 1025 
f 1423 1025 1421 
f 1423 1418 1436 
f 1427 1436 1418 
f 366 1415 1410 
f 1424 1410 1415 
f 1424 1421 1019 
f 265 1019 1421 
f 1444 1430 1417 
f 1324 1252 1322 
f 1180 1173 1178 
f 1239 55 481 
f 651 728 1365 
f 1440 1429 1437 
f 909 108 67 
f 235 723 155 
f 568 329 1015 
f 13 759 761 
f 1434 1433 1429 
f 1430 1429 1433 
f 306 1178 1173 
f 1180 1149 749 
f 878 990 8 
f 1436 1433 1047 
f 1438 1440 465 
f 1437 465 1440 
f 480 264 103 
f 740 1346 929 
f 803 1148 2 
f 1443 1441 1442 
f 685 1408 650 
f 465 1443 1438 
f 1445 1447 274 
f 1057 274 1447 
f 1446 1447 1441 
f 1442 1441 1447 
f 1429 1440 1434 
f 1448 1434 1440 
f 274 40 1445 
f 1448 1445 40 
f 1452 1449 377 
f 501 1152 644 
f 144 54 954 
f 1153 1158 302 
f 1169 46 1186 
f 251 638 331 
f 396 644 1152 
f 148 1127 928 
f 277 1456 1070 
f 1457 1070 1456 
f 357 42 1453 
f 1457 1453 42 
f 1446 1441 1458 
f 1452 1458 1441 
f 1065 1458 277 
f 1456 277 1458 
f 1462 1340 1459 
f 349 1459 1340 
f 1461 1462 264 
f 1460 264 1462 
f 1464 311 1466 
f 1052 276 1054 
f 1459 349 1464 
f 1347 1464 349 
f 378 1466 313 
f 1214 313 1466 
f 1199 1466 311 
f 859 845 820 
f 77 111 492 
f 378 492 111 
f 313 677 378 
f 1162 1164 304 
f 358 1370 1376 
f 414 264 1460 
f 905 701 27 
f 77 414 111 
f 1363 353 433 
f 1258 433 353 
f 1191 433 309 
f 224 309 433 
f 936 33 960 
f 161 382 1382 
f 1358 1382 353 
f 1258 353 1382 
f 317 1209 1208 
f 1214 53 1215 
f 959 960 33 
f 224 382 849 
f 384 906 1251 
f 934 1251 906 
f 387 710 827 
f 934 827 710 
f 788 232 385 
f 204 385 232 
f 499 232 384 
f 906 384 232 
f 386 891 895 
f 1063 895 891 
f 385 953 788 
f 1063 788 953 
f 827 696 387 
f 391 387 696 
f 891 386 696 
f 941 696 386 
f 947 155 484 
f 1217 317 1219 
f 392 404 393 
f 5 841 30 
f 1026 1024 1020 
f 1194 1072 1191 
f 614 594 324 
f 117 1036 163 
f 814 636 556 
f 1039 1060 37 
f 497 450 912 
f 418 155 723 
f 393 863 392 
f 376 392 863 
f 636 412 638 
f 314 57 1219 
f 12 770 772 
f 1395 218 866 
f 861 1031 1053 
f 624 222 902 
f 1339 86 1290 
f 502 1051 100 
f 773 772 770 
f 422 1010 92 
f 1416 1414 1415 
f 560 554 950 
f 1384 1345 1411 
f 258 128 442 
f 144 563 54 
f 1369 674 505 
f 542 1290 416 
f 648 715 798 
f 460 1307 1378 
f 1011 1014 674 
f 38 1191 1072 
f 1056 1060 276 
f 205 784 962 
f 1107 293 1110 
f 1463 1378 1307 
f 1330 1256 1326 
f 904 509 1379 
f 904 390 1234 
f 276 1049 1048 
f 1464 1466 1459 
f 1404 228 1352 
f 1306 721 173 
f 779 1234 390 
f 442 1007 364 
f 516 451 856 
f 1084 1087 45 
f 1367 825 828 
f 810 809 808 
f 1293 1296 337 
f 461 595 513 
f 735 853 186 
f 851 998 1016 
f 868 867 865 
f 88 169 843 
f 1396 627 642 
f 1437 408 465 
f 175 613 9 
f 476 560 950 
f 696 941 391 
f 256 844 843 
f 332 1451 392 
f 404 392 1451 
f 232 788 906 
f 1128 1132 297 
f 1053 332 861 
f 895 1063 1439 
f 392 376 332 
f 961 120 699 
f 403 490 343 
f 317 1217 1209 
f 542 87 1053 
f 332 1053 87 
f 1100 47 1139 
f 95 407 1451 
f 1401 1018 796 
f 856 126 516 
f 953 1439 1063 
f 388 906 788 
f 1207 410 255 
f 1287 255 410 
f 361 143 1383 
f 529 897 713 
f 407 95 255 
f 80 255 95 
f 1274 881 321 
f 1241 321 881 
f 683 881 95 
f 80 95 881 
f 318 1405 1231 
f 661 1231 1405 
f 321 1235 1274 
f 661 1274 1235 
f 1207 1405 410 
f 1250 410 1405 
f 1226 1405 318 
f 360 487 177 
f 854 912 450 
f 948 87 542 
f 866 343 490 
f 174 230 568 
f 1102 47 1103 
f 316 1399 503 
f 503 948 677 
f 542 677 948 
f 322 785 1244 
f 1399 1244 785 
f 535 135 192 
f 316 1220 1399 
f 1031 1339 1290 
f 95 481 683 
f 322 1239 785 
f 481 785 1239 
f 75 796 1018 
f 248 1285 628 
f 421 1383 143 
f 375 1383 556 
f 1410 1424 23 
f 490 673 866 
f 966 980 417 
f 1204 532 670 
f 415 743 1395 
f 218 1395 743 
f 1088 46 1170 
f 230 727 635 
f 806 659 19 
f 586 19 659 
f 116 77 415 
f 743 415 77 
f 948 503 785 
f 542 416 677 
f 77 492 549 
f 416 549 492 
f 918 938 932 
f 253 662 164 
f 66 714 429 
f 1003 719 1289 
f 1375 718 869 
f 1233 1246 57 
f 420 419 718 
f 514 406 1318 
f 649 114 896 
f 178 221 462 
f 121 901 664 
f 869 551 1375 
f 978 926 958 
f 1445 1448 1438 
f 1375 399 1050 
f 981 1050 399 
f 824 820 845 
f 1360 1354 625 
f 1373 625 89 
f 1050 89 625 
f 419 420 675 
f 400 675 420 
f 1413 1416 365 
f 400 625 1354 
f 147 635 727 
f 866 218 343 
f 597 637 935 
f 1055 41 1067 
f 329 568 230 
f 463 898 1428 
f 825 844 168 
f 726 4 249 
f 37 1037 1039 
f 1450 428 401 
f 330 1428 898 
f 1304 401 428 
f 869 66 490 
f 1379 182 188 
f 681 716 362 
f 99 965 795 
f 695 58 1394 
f 161 1373 89 
f 1201 53 1202 
f 497 436 538 
f 1267 585 506 
f 1244 1399 56 
f 1336 1027 1335 
f 122 1197 458 
f 1068 42 1376 
f 1287 410 952 
f 404 952 62 
f 89 62 952 
f 161 849 382 
f 1316 1003 67 
f 1250 849 410 
f 952 410 849 
f 908 158 858 
f 858 880 987 
f 863 62 426 
f 359 426 62 
f 384 587 499 
f 312 499 587 
f 380 687 359 
f 312 359 687 
f 425 363 85 
f 1305 85 363 
f 384 1251 587 
f 1305 587 1251 
f 426 363 863 
f 430 863 363 
f 1148 299 1146 
f 153 1006 395 
f 139 121 59 
f 695 640 59 
f 551 1044 399 
f 215 811 212 
f 385 1044 953 
f 817 212 811 
f 176 1439 1044 
f 1222 1209 1217 
f 380 812 687 
f 819 687 812 
f 385 204 1044 
f 819 1044 204 
f 399 1044 981 
f 812 981 1044 
f 578 987 880 
f 427 156 104 
f 81 971 618 
f 1353 1371 631 
f 403 343 996 
f 183 996 343 
f 386 996 941 
f 183 941 996 
f 208 211 803 
f 824 215 820 
f 523 25 74 
f 1439 176 997 
f 996 386 997 
f 895 997 386 
f 269 1143 931 
f 996 997 403 
f 968 871 242 
f 664 59 121 
f 953 1044 1439 
f 1342 553 425 
f 873 649 722 
f 357 1453 266 
f 387 1334 710 
f 1342 710 1334 
f 425 85 1342 
f 1169 1170 46 
f 1078 1168 43 
f 72 414 116 
f 387 391 1334 
f 1328 1334 391 
f 873 266 1453 
f 1074 1062 1069 
f 1339 1328 348 
f 92 631 1371 
f 705 630 196 
f 1361 74 1309 
f 1421 1424 370 
f 744 10 1174 
f 630 434 764 
f 764 753 752 
f 347 705 759 
f 196 759 705 
f 323 1240 1243 
f 663 866 673 
f 163 1036 452 
f 982 983 990 
f 434 630 98 
f 454 98 630 
f 1185 308 1186 
f 1245 1243 1240 
f 340 113 1311 
f 992 1311 113 
f 347 774 438 
f 992 438 774 
f 334 187 709 
f 890 694 464 
f 1309 113 340 
f 150 709 187 
f 511 1119 1377 
f 1281 622 1319 
f 1276 1283 1278 
f 438 113 74 
f 1392 621 640 
f 644 7 584 
f 887 539 1002 
f 894 1308 665 
f 1301 94 681 
f 1340 71 1338 
f 466 862 1343 
f 70 1343 862 
f 857 862 202 
f 1108 202 862 
f 337 1299 862 
f 1108 862 1299 
f 239 860 665 
f 1112 1116 293 
f 93 553 861 
f 862 857 70 
f 1027 1030 1045 
f 162 524 688 
f 61 899 550 
f 763 1407 614 
f 1221 1245 56 
f 190 929 746 
f 1031 861 553 
f 202 929 857 
f 740 434 1346 
f 1415 370 1424 
f 929 190 740 
f 1216 57 1246 
f 551 403 176 
f 443 929 1346 
f 434 98 1346 
f 1354 684 400 
f 704 63 805 
f 473 457 467 
f 929 443 857 
f 676 633 876 
f 797 525 742 
f 1290 218 416 
f 1368 564 1425 
f 597 896 114 
f 446 1401 796 
f 763 1402 141 
f 1018 1401 25 
f 447 25 1401 
f 43 1075 1078 
f 454 244 339 
f 1171 1174 10 
f 1401 446 339 
f 438 447 347 
f 244 347 447 
f 380 927 812 
f 937 1316 254 
f 89 927 62 
f 272 1046 1035 
f 446 796 1435 
f 625 400 420 
f 29 550 899 
f 290 1093 1092 
f 1435 170 70 
f 1343 70 170 
f 515 547 97 
f 1173 1174 306 
f 70 857 1435 
f 239 665 1308 
f 1435 443 446 
f 396 237 644 
f 53 1214 1199 
f 693 97 547 
f 135 534 186 
f 423 682 876 
f 98 446 1346 
f 840 711 652 
f 1225 1212 1201 
f 692 173 721 
f 969 533 557 
f 1095 1092 1093 
f 132 848 184 
f 363 426 1305 
f 840 697 171 
f 1356 704 157 
f 681 633 716 
f 1199 1202 53 
f 1144 1147 299 
f 1040 850 560 
f 1357 1359 1353 
f 2 1111 864 
f 973 30 1013 
f 1005 184 848 
f 208 538 436 
f 351 899 6 
f 711 177 487 
f 299 1141 1144 
f 447 1401 244 
f 439 494 247 
f 975 594 1432 
f 538 208 800 
f 259 797 159 
f 455 538 245 
f 229 8 800 
f 245 800 8 
f 617 814 24 
f 713 1248 543 
f 1091 1095 44 
f 455 854 450 
f 726 955 4 
f 989 4 955 
f 245 955 455 
f 51 1250 1226 
f 634 335 157 
f 560 476 1040 
f 1347 36 1464 
f 1364 1363 1362 
f 874 956 167 
f 854 628 457 
f 726 249 628 
f 729 666 592 
f 304 198 1165 
f 145 557 533 
f 912 854 457 
f 1341 703 1288 
f 1248 14 453 
f 891 388 1063 
f 467 853 472 
f 10 746 202 
f 529 691 1349 
f 894 221 101 
f 132 638 412 
f 416 218 743 
f 628 1279 457 
f 467 457 1279 
f 1211 1208 1209 
f 1341 1349 691 
f 541 437 118 
f 897 529 1384 
f 420 1375 1050 
f 438 74 25 
f 340 342 1309 
f 137 226 219 
f 1114 293 1116 
f 596 513 595 
f 999 205 154 
f 594 614 1407 
f 1299 10 1108 
f 67 1454 1316 
f 1262 397 605 
f 688 397 162 
f 1113 864 1111 
f 1061 1067 280 
f 120 667 731 
f 1313 1314 20 
f 98 454 446 
f 670 605 397 
f 160 171 697 
f 491 65 605 
f 126 693 547 
f 86 348 343 
f 56 1220 1221 
f 264 414 72 
f 812 1044 819 
f 411 80 1274 
f 475 1422 623 
f 1105 1137 49 
f 1334 1031 1342 
f 180 497 912 
f 1281 338 919 
f 497 1422 474 
f 216 676 876 
f 526 600 131 
f 77 116 414 
f 465 648 798 
f 141 154 205 
f 180 912 473 
f 689 724 512 
f 342 1303 1302 
f 473 472 180 
f 308 1185 1187 
f 346 1335 350 
f 1283 1276 1285 
f 517 138 1042 
f 929 202 746 
f 1031 1334 1339 
f 87 785 481 
f 1348 350 1335 
f 247 74 439 
f 413 689 474 
f 436 474 689 
f 1079 1078 1075 
f 1255 612 1325 
f 1146 299 1147 
f 493 6 899 
f 920 327 21 
f 1049 276 1060 
f 16 748 749 
f 573 1352 228 
f 734 115 361 
f 1324 21 327 
f 249 4 246 
f 298 1136 1138 
f 20 808 809 
f 474 1422 109 
f 260 1000 261 
f 126 856 82 
f 623 497 180 
f 179 584 7 
f 623 460 475 
f 113 1309 74 
f 612 1255 600 
f 785 87 948 
f 146 988 522 
f 125 875 477 
f 89 981 927 
f 1422 475 1009 
f 623 1422 497 
f 1355 355 839 
f 1321 379 1265 
f 1300 1190 1299 
f 477 831 1143 
f 557 145 950 
f 831 338 931 
f 958 960 944 
f 478 919 875 
f 273 875 919 
f 21 918 920 
f 831 477 273 
f 1319 479 1281 
f 338 1281 479 
f 622 1281 478 
f 919 478 1281 
f 1120 871 968 
f 388 891 827 
f 479 1254 338 
f 931 338 1254 
f 1263 728 1388 
f 964 944 960 
f 193 838 1249 
f 1143 269 352 
f 257 979 977 
f 931 252 482 
f 27 145 1263 
f 651 1388 728 
f 130 815 483 
f 1189 483 815 
f 499 312 687 
f 38 1073 1362 
f 758 757 755 
f 83 352 269 
f 483 730 130 
f 83 130 730 
f 1261 197 486 
f 110 486 197 
f 197 11 739 
f 220 739 11 
f 1317 68 356 
f 712 356 68 
f 486 639 1261 
f 68 1261 639 
f 1202 1200 1196 
f 1029 1045 1030 
f 777 775 767 
f 1273 33 1322 
f 11 394 220 
f 901 220 394 
f 664 394 488 
f 984 488 394 
f 452 94 163 
f 23 1019 991 
f 453 515 543 
f 271 493 61 
f 1005 712 184 
f 1332 184 712 
f 61 331 271 
f 1332 271 331 
f 109 413 474 
f 38 1362 1363 
f 1317 356 1005 
f 712 1005 356 
f 493 271 639 
f 712 639 271 
f 68 639 712 
f 708 1234 544 
f 495 1393 624 
f 258 624 1393 
f 1066 280 1067 
f 204 687 819 
f 518 52 496 
f 96 496 52 
f 402 52 495 
f 1393 495 52 
f 381 1466 378 
f 897 528 1248 
f 1282 971 1279 
f 625 1373 1360 
f 498 258 136 
f 442 136 258 
f 420 1050 625 
f 10 1299 1190 
f 500 1051 707 
f 1286 707 1051 
f 486 110 1286 
f 178 101 221 
f 1041 1046 36 
f 706 943 1192 
f 373 1192 500 
f 1051 500 1192 
f 608 1331 1455 
f 508 1192 547 
f 1129 1139 47 
f 1426 937 162 
f 1286 6 486 
f 639 486 6 
f 909 174 804 
f 736 1042 1275 
f 1435 796 170 
f 220 1320 592 
f 706 477 1272 
f 1143 1272 477 
f 832 169 217 
f 58 307 84 
f 75 170 796 
f 1428 1010 463 
f 121 461 1374 
f 1387 436 689 
f 1176 1188 45 
f 272 1034 1038 
f 64 885 1294 
f 412 1152 132 
f 1039 1038 1034 
f 1230 1224 320 
f 1020 268 1022 
f 766 777 769 
f 1277 1278 1283 
f 75 870 170 
f 547 515 508 
f 1022 991 1019 
f 206 1455 1331 
f 1192 508 100 
f 241 31 910 
f 360 676 1380 
f 370 1415 1414 
f 930 813 923 
f 93 425 553 
f 1051 502 1286 
f 88 217 169 
f 863 393 62 
f 981 812 927 
f 183 343 348 
f 453 351 200 
f 6 200 351 
f 502 200 6 
f 1282 1285 1276 
f 639 6 493 
f 692 256 173 
f 127 923 813 
f 893 131 600 
f 100 963 502 
f 200 502 963 
f 200 963 453 
f 293 1107 1112 
f 508 515 963 
f 36 1043 311 
f 539 118 548 
f 540 142 619 
f 847 451 516 
f 1163 12 1164 
f 959 1266 1271 
f 1216 1219 57 
f 136 1275 498 
f 451 498 1275 
f 514 516 126 
f 710 1342 85 
f 915 241 917 
f 33 1273 959 
f 516 344 847 
f 813 847 344 
f 1284 344 514 
f 516 514 344 
f 1042 736 517 
f 8 989 245 
f 187 672 150 
f 119 839 355 
f 818 939 608 
f 831 273 338 
f 125 373 371 
f 978 31 932 
f 180 1307 623 
f 1331 608 939 
f 1337 71 642 
f 1042 82 856 
f 519 736 136 
f 1275 136 736 
f 460 623 1307 
f 379 137 389 
f 1012 984 307 
f 1323 372 975 
f 480 552 1365 
f 767 769 777 
f 530 1350 1366 
f 82 693 126 
f 843 694 890 
f 594 975 372 
f 76 642 71 
f 418 484 155 
f 605 670 532 
f 473 912 457 
f 97 82 138 
f 167 1397 874 
f 1275 856 451 
f 899 61 493 
f 352 1318 1143 
f 1272 1143 1318 
f 658 834 489 
f 884 157 335 
f 1155 1153 1150 
f 1318 1284 514 
f 18 755 757 
f 958 977 978 
f 449 928 1127 
f 965 217 658 
f 1154 48 1155 
f 302 1150 1153 
f 943 406 126 
f 85 1251 710 
f 586 1366 1350 
f 150 637 709 
f 799 1352 15 
f 1248 713 897 
f 485 482 130 
f 1105 49 1106 
f 964 1271 951 
f 1045 1335 1027 
f 219 1288 703 
f 1427 1417 1430 
f 1349 1341 527 
f 1288 527 1341 
f 703 1341 691 
f 946 945 246 
f 1384 1411 897 
f 528 897 1411 
f 527 1345 1349 
f 1384 1349 1345 
f 945 951 949 
f 611 417 980 
f 381 1460 1459 
f 498 816 624 
f 365 521 1413 
f 1161 507 1291 
f 151 437 90 
f 541 90 437 
f 924 435 383 
f 394 11 984 
f 219 703 1465 
f 151 1465 703 
f 1438 1442 1445 
f 691 107 437 
f 216 1380 676 
f 1043 36 1046 
f 973 31 976 
f 1466 1199 1214 
f 290 1101 1093 
f 1307 180 472 
f 83 730 352 
f 1172 306 1174 
f 1251 85 1305 
f 613 534 535 
f 536 1280 134 
f 967 134 1280 
f 150 935 637 
f 828 168 860 
f 681 911 633 
f 1237 323 1246 
f 134 967 1326 
f 1280 536 887 
f 652 711 1270 
f 118 539 541 
f 1236 1242 323 
f 770 12 1400 
f 877 1291 507 
f 617 850 954 
f 1254 17 544 
f 536 541 539 
f 619 134 540 
f 1420 1419 1417 
f 72 116 103 
f 38 1363 1191 
f 1264 494 122 
f 619 90 541 
f 784 484 596 
f 1247 635 456 
f 827 934 388 
f 250 166 65 
f 515 97 543 
f 106 543 97 
f 1462 1459 1460 
f 9 1002 1409 
f 118 107 106 
f 745 750 741 
f 592 1389 220 
f 1192 373 706 
f 713 106 107 
f 1026 1025 1023 
f 1239 1242 55 
f 11 197 1257 
f 24 556 1383 
f 922 220 1389 
f 81 1279 971 
f 1407 1432 594 
f 961 79 986 
f 1002 548 203 
f 1409 789 9 
f 175 9 789 
f 517 736 203 
f 1409 203 736 
f 887 1002 613 
f 9 613 1002 
f 1044 551 176 
f 587 1305 426 
f 548 1002 539 
f 131 1345 526 
f 18 757 865 
f 716 360 177 
f 1362 1376 1370 
f 331 61 251 
f 638 251 550 
f 381 378 111 
f 899 14 29 
f 660 1306 1008 
f 543 106 713 
f 525 336 402 
f 815 130 482 
f 1315 119 733 
f 222 333 902 
f 528 29 14 
f 235 155 1404 
f 29 833 550 
f 1411 29 528 
f 335 15 459 
f 1274 661 411 
f 131 833 1411 
f 554 560 850 
f 1280 613 535 
f 615 389 142 
f 149 144 850 
f 1235 1231 661 
f 573 15 1352 
f 548 106 138 
f 97 138 106 
f 741 434 740 
f 1465 142 389 
f 1262 605 65 
f 394 664 901 
f 99 874 1397 
f 122 815 1264 
f 178 120 101 
f 244 705 347 
f 696 827 891 
f 1113 1112 1107 
f 172 1395 663 
f 1430 1433 1427 
f 1222 1221 1220 
f 994 260 993 
f 925 510 590 
f 1248 528 14 
f 188 1264 815 
f 298 1134 1133 
f 611 790 942 
f 351 453 14 
f 432 666 152 
f 129 402 336 
f 636 638 60 
f 550 60 638 
f 412 636 555 
f 814 555 636 
f 375 833 893 
f 824 830 822 
f 60 550 833 
f 1000 1032 916 
f 554 24 421 
f 1383 421 24 
f 1383 375 361 
f 893 361 375 
f 954 555 617 
f 814 617 555 
f 850 617 554 
f 24 554 617 
f 697 1289 160 
f 1323 875 371 
f 559 149 1040 
f 850 1040 149 
f 700 188 702 
f 143 557 950 
f 125 371 875 
f 421 950 554 
f 558 476 701 
f 950 701 476 
f 37 1059 1193 
f 1442 1438 1443 
f 1040 988 559 
f 1389 592 666 
f 522 988 558 
f 476 558 988 
f 1223 1228 320 
f 149 559 73 
f 257 944 985 
f 983 982 985 
f 561 1368 108 
f 1425 108 1368 
f 1227 320 1228 
f 1425 559 988 
f 771 334 562 
f 709 562 334 
f 187 334 561 
f 1368 561 334 
f 563 73 1377 
f 537 1377 73 
f 562 511 771 
f 537 771 511 
f 174 909 565 
f 67 565 909 
f 108 909 561 
f 804 561 909 
f 329 230 566 
f 635 566 230 
f 565 727 174 
f 230 174 727 
f 1015 330 567 
f 898 567 330 
f 566 1428 329 
f 330 329 1428 
f 561 804 187 
f 672 187 804 
f 567 935 1015 
f 672 1015 935 
f 1352 799 569 
f 690 569 799 
f 15 572 799 
f 207 799 572 
f 228 1404 570 
f 947 570 1404 
f 569 235 1352 
f 1404 1352 235 
f 571 459 1402 
f 1001 1402 459 
f 570 999 228 
f 1001 228 999 
f 572 15 634 
f 335 634 15 
f 459 571 335 
f 884 335 571 
f 987 448 574 
f 1006 574 448 
f 435 577 448 
f 395 448 577 
f 880 858 575 
f 369 575 858 
f 574 908 987 
f 858 987 908 
f 576 383 405 
f 104 405 383 
f 575 427 880 
f 104 880 427 
f 577 435 102 
f 924 102 435 
f 383 576 924 
f 782 924 576 
f 579 930 923 
f 1131 50 1145 
f 947 1404 155 
f 930 847 813 
f 574 444 908 
f 717 908 444 
f 930 579 717 
f 231 717 579 
f 580 445 802 
f 836 802 445 
f 574 1006 444 
f 836 444 1006 
f 16 830 748 
f 451 847 821 
f 445 580 821 
f 816 821 580 
f 26 213 582 
f 336 582 213 
f 117 818 698 
f 383 578 104 
f 576 720 782 
f 105 782 720 
f 582 259 26 
f 105 26 259 
f 583 506 112 
f 653 112 506 
f 720 576 653 
f 405 653 576 
f 880 104 578 
f 506 1197 1267 
f 782 159 924 
f 583 458 506 
f 659 806 483 
f 730 483 806 
f 923 806 579 
f 19 579 806 
f 583 1366 458 
f 470 458 1366 
f 483 1189 659 
f 470 659 1189 
f 1350 530 575 
f 427 575 530 
f 583 112 1366 
f 530 1366 112 
f 579 19 231 
f 1218 231 19 
f 575 369 1350 
f 1218 1350 369 
f 525 402 902 
f 495 902 402 
f 1447 1445 1442 
f 582 336 525 
f 222 624 580 
f 816 580 624 
f 902 495 624 
f 1058 1056 1052 
f 577 742 395 
f 333 395 742 
f 580 802 222 
f 333 222 802 
f 525 797 582 
f 259 582 797 
f 797 742 102 
f 577 102 742 
f 500 185 373 
f 63 373 185 
f 589 371 63 
f 13 1124 1126 
f 925 707 588 
f 34 588 707 
f 405 156 653 
f 185 500 707 
f 572 805 207 
f 510 207 805 
f 588 432 925 
f 510 925 432 
f 63 704 589 
f 1356 589 704 
f 805 572 704 
f 634 704 572 
f 1320 1374 970 
f 591 970 1374 
f 1135 1133 1134 
f 1320 220 901 
f 729 723 569 
f 235 569 723 
f 970 591 723 
f 418 723 591 
f 588 1389 432 
f 666 432 1389 
f 569 690 729 
f 666 729 690 
f 739 220 922 
f 285 1076 1081 
f 1389 588 922 
f 34 922 588 
f 478 975 622 
f 1432 622 975 
f 593 725 1407 
f 1432 1407 725 
f 372 1323 589 
f 371 589 1323 
f 875 1323 478 
f 975 478 1323 
f 571 614 884 
f 324 884 614 
f 589 1356 372 
f 324 372 1356 
f 1407 763 593 
f 141 593 763 
f 1402 763 571 
f 614 571 763 
f 453 543 1248 
f 261 993 260 
f 1374 461 591 
f 513 591 461 
f 962 839 593 
f 725 593 839 
f 1194 1198 1193 
f 551 869 403 
f 570 784 999 
f 205 999 784 
f 593 141 962 
f 205 962 141 
f 591 513 418 
f 484 418 513 
f 570 947 784 
f 484 784 947 
f 67 546 565 
f 727 565 546 
f 1249 546 599 
f 1003 599 546 
f 558 940 522 
f 1454 522 940 
f 1412 776 1398 
f 775 777 1412 
f 254 905 27 
f 1160 768 811 
f 940 558 905 
f 701 905 558 
f 598 1316 1426 
f 937 1426 1316 
f 937 254 524 
f 27 524 254 
f 1034 272 1023 
f 1289 599 1003 
f 719 1003 598 
f 1316 598 1003 
f 1014 601 1204 
f 532 1204 601 
f 504 1204 604 
f 670 604 1204 
f 491 879 602 
f 1259 602 879 
f 532 601 879 
f 262 879 601 
f 1262 65 603 
f 166 603 65 
f 602 250 491 
f 65 491 250 
f 604 670 688 
f 397 688 670 
f 603 646 1262 
f 397 1262 646 
f 1455 206 603 
f 646 603 206 
f 1331 598 206 
f 1426 206 598 
f 606 698 440 
f 1455 440 698 
f 603 166 1455 
f 271 1332 712 
f 818 117 607 
f 163 607 117 
f 1036 117 606 
f 698 606 117 
f 939 719 1331 
f 598 1331 719 
f 607 620 818 
f 939 818 620 
f 942 133 606 
f 1036 606 133 
f 452 133 610 
f 790 610 133 
f 417 957 602 
f 250 602 957 
f 606 440 942 
f 957 942 440 
f 980 966 609 
f 240 609 966 
f 602 1259 417 
f 966 417 1259 
f 610 790 253 
f 662 253 790 
f 609 1 980 
f 662 980 1 
f 790 611 662 
f 234 1184 612 
f 691 529 713 
f 1098 1145 50 
f 409 526 527 
f 1345 527 526 
f 440 1455 166 
f 980 662 611 
f 1065 1067 41 
f 226 137 234 
f 527 1288 409 
f 226 409 1288 
f 846 841 842 
f 268 1020 1024 
f 939 620 719 
f 879 491 532 
f 615 1256 751 
f 585 720 506 
f 1306 173 686 
f 490 403 869 
f 1133 1137 298 
f 307 58 695 
f 1123 294 1121 
f 1256 615 540 
f 198 304 1164 
f 1351 1353 1359 
f 540 134 1326 
f 297 1125 1128 
f 751 1330 1269 
f 739 922 110 
f 892 1308 469 
f 414 1460 111 
f 381 111 1460 
f 433 1191 1363 
f 1431 678 1278 
f 18 865 867 
f 967 535 823 
f 192 823 535 
f 1326 823 1330 
f 1431 1330 823 
f 618 192 135 
f 66 869 718 
f 747 746 744 
f 747 745 741 
f 1387 1381 1385 
f 1302 1309 342 
f 192 618 971 
f 1272 406 706 
f 1355 1161 466 
f 1291 466 1161 
f 68 1317 1261 
f 1444 140 1430 
f 545 1355 595 
f 839 595 1355 
f 1213 317 1215 
f 1208 1215 317 
f 424 139 507 
f 621 507 139 
f 424 545 461 
f 595 461 545 
f 1257 1261 1317 
f 652 1270 148 
f 507 621 877 
f 250 957 166 
f 1178 306 1179 
f 826 829 907 
f 734 600 1255 
f 1302 124 1361 
f 1267 968 213 
f 242 213 968 
f 28 974 124 
f 242 124 974 
f 871 1120 439 
f 1004 439 1120 
f 968 1267 1120 
f 1197 1120 1267 
f 890 398 669 
f 377 1456 1452 
f 439 74 871 
f 1361 871 74 
f 160 719 620 
f 573 459 15 
f 137 379 1252 
f 1343 995 181 
f 219 1465 137 
f 389 137 1465 
f 1451 87 95 
f 553 1342 1031 
f 522 1454 146 
f 780 786 787 
f 1292 1413 521 
f 902 742 525 
f 207 510 152 
f 124 242 871 
f 389 615 379 
f 751 379 615 
f 627 1255 325 
f 1325 325 1255 
f 345 1325 1184 
f 1099 1097 1092 
f 361 893 734 
f 600 734 893 
f 115 734 627 
f 1255 627 734 
f 693 82 97 
f 600 526 612 
f 16 822 830 
f 1106 1093 1101 
f 1452 1441 1449 
f 826 903 738 
f 168 828 825 
f 1456 377 1457 
f 629 1396 76 
f 642 76 1396 
f 1094 44 1095 
f 325 1337 642 
f 35 1047 1033 
f 751 1265 379 
f 629 533 1396 
f 969 1396 533 
f 1075 43 1158 
f 1089 46 1090 
f 557 143 969 
f 115 969 143 
f 1058 1057 1055 
f 308 1182 1181 
f 1088 1090 46 
f 1090 1077 1085 
f 1193 1196 1206 
f 1382 1358 161 
f 631 933 1353 
f 1357 1353 933 
f 838 632 456 
f 616 456 632 
f 419 675 754 
f 1203 1206 1196 
f 1391 1390 1400 
f 616 928 933 
f 632 835 616 
f 1037 37 1206 
f 963 100 508 
f 998 3 1017 
f 684 933 928 
f 93 376 430 
f 1071 1069 1066 
f 1074 1073 1072 
f 686 173 754 
f 792 794 23 
f 566 1010 1428 
f 234 612 409 
f 422 266 1010 
f 463 1010 266 
f 631 92 456 
f 1247 456 92 
f 635 1247 566 
f 1010 566 1247 
f 20 1122 808 
f 92 1371 422 
f 246 4 983 
f 1360 39 1359 
f 556 24 814 
f 1381 512 885 
f 1127 148 1270 
f 1463 1450 1378 
f 885 512 496 
f 518 496 512 
f 293 1114 1110 
f 266 422 357 
f 64 1294 28 
f 974 28 1294 
f 496 96 885 
f 1294 885 96 
f 401 1378 1450 
f 1386 1385 64 
f 1257 984 11 
f 1175 1179 306 
f 143 361 115 
f 877 621 1392 
f 801 652 835 
f 901 121 1320 
f 488 695 664 
f 59 664 695 
f 59 621 139 
f 128 258 1393 
f 695 1012 307 
f 1118 1110 1114 
f 984 1012 488 
f 695 488 1012 
f 227 225 872 
f 1 164 662 
f 110 34 707 
f 450 538 455 
f 1167 304 1168 
f 125 706 373 
f 1165 1168 304 
f 905 254 940 
f 1005 889 1317 
f 855 1317 889 
f 845 30 846 
f 855 84 307 
f 889 1005 641 
f 848 641 1005 
f 179 374 1419 
f 883 900 841 
f 521 365 84 
f 108 1425 146 
f 641 521 889 
f 30 845 1013 
f 501 1292 641 
f 521 641 1292 
f 584 368 1292 
f 1413 1292 368 
f 1152 412 396 
f 555 396 412 
f 641 848 501 
f 1152 501 848 
f 237 54 7 
f 643 7 54 
f 555 954 396 
f 237 396 954 
f 1419 368 179 
f 584 179 368 
f 7 643 179 
f 374 179 643 
f 1177 1175 1172 
f 78 731 667 
f 1141 299 808 
f 374 1444 1417 
f 946 985 944 
f 54 563 1377 
f 1176 45 1177 
f 306 1172 1175 
f 32 1377 645 
f 1119 645 1377 
f 950 421 143 
f 1080 48 1179 
f 146 67 108 
f 73 564 537 
f 645 140 32 
f 1444 32 140 
f 408 1437 645 
f 140 645 1437 
f 102 924 159 
f 634 157 704 
f 562 715 511 
f 1372 511 715 
f 645 1119 408 
f 1372 408 1119 
f 798 236 647 
f 637 647 236 
f 709 236 562 
f 715 562 236 
f 798 1443 465 
f 1380 699 462 
f 647 626 798 
f 821 816 451 
f 114 1449 647 
f 626 647 1449 
f 526 409 612 
f 377 1449 649 
f 896 597 567 
f 935 567 597 
f 637 597 647 
f 114 647 597 
f 266 873 463 
f 722 463 873 
f 567 898 896 
f 722 896 898 
f 649 873 377 
f 1453 377 873 
f 280 1069 1062 
f 38 1072 1073 
f 1295 1461 1365 
f 264 1365 1461 
f 1295 728 76 
f 629 76 728 
f 552 480 650 
f 103 650 480 
f 52 518 1393 
f 480 1365 264 
f 604 328 504 
f 1160 1151 1157 
f 650 468 552 
f 328 552 468 
f 868 872 225 
f 524 27 1388 
f 688 1388 604 
f 328 604 1388 
f 728 1263 629 
f 533 629 1263 
f 1263 1388 27 
f 347 759 774 
f 1249 599 193 
f 1289 193 599 
f 838 193 632 
f 1142 632 193 
f 652 471 697 
f 1289 697 471 
f 1232 1231 1229 
f 1232 1230 1227 
f 835 632 801 
f 1142 801 632 
f 622 1432 119 
f 471 652 801 
f 654 795 913 
f 431 913 795 
f 657 892 489 
f 431 489 892 
f 965 99 655 
f 1397 655 99 
f 874 99 654 
f 795 654 99 
f 656 834 88 
f 217 88 834 
f 655 832 965 
f 217 965 832 
f 489 1367 657 
f 828 657 1367 
f 825 1367 656 
f 834 656 1367 
f 1380 1008 360 
f 487 360 1008 
f 1253 234 1252 
f 1205 311 1043 
f 1395 172 685 
f 53 1201 1212 
f 1008 1380 660 
f 462 660 1380 
f 339 244 1401 
f 970 592 1320 
f 79 685 172 
f 581 930 444 
f 963 515 453 
f 988 1040 476 
f 129 336 213 
f 1129 47 1130 
f 928 616 148 
f 699 216 961 
f 120 961 667 
f 497 538 450 
f 682 1408 79 
f 189 253 760 
f 125 477 706 
f 1292 501 584 
f 63 371 373 
f 1318 352 1284 
f 877 1293 1291 
f 911 681 94 
f 961 986 667 
f 856 1275 1042 
f 986 79 172 
f 829 824 842 
f 1102 1130 47 
f 1130 1128 1125 
f 441 167 663 
f 668 398 754 
f 782 105 159 
f 765 768 1166 
f 119 1319 622 
f 1423 1436 1025 
f 203 1409 1002 
f 1418 1423 370 
f 391 348 1328 
f 585 1267 26 
f 1348 1041 1347 
f 1192 100 1051 
f 304 1167 1162 
f 429 398 890 
f 587 426 312 
f 890 464 429 
f 2 1148 1111 
f 1266 959 1265 
f 17 1319 1315 
f 482 485 931 
f 723 729 970 
f 231 158 717 
f 112 653 156 
f 29 1411 833 
f 139 424 121 
f 23 991 792 
f 280 1062 1061 
f 1375 551 399 
f 127 1284 352 
f 789 1409 519 
f 1461 1295 71 
f 772 1164 12 
f 51 1226 1195 
f 1225 1223 1224 
f 949 246 945 
f 762 761 759 
f 69 345 1184 
f 1007 428 1450 
f 35 1436 1047 
f 1436 1427 1433 
f 1009 109 1422 
f 592 970 729 
f 320 1224 1223 
f 685 650 778 
f 16 749 1149 
f 1380 216 699 
f 362 716 679 
f 177 679 716 
f 443 1435 857 
f 360 716 676 
f 339 446 454 
f 620 607 1301 
f 171 1301 679 
f 362 679 1301 
f 610 911 452 
f 94 452 911 
f 607 163 1301 
f 94 1301 163 
f 633 189 680 
f 760 680 189 
f 253 189 610 
f 911 610 189 
f 876 682 216 
f 633 676 716 
f 1395 685 778 
f 443 1346 446 
f 22 1260 914 
f 178 462 699 
f 189 633 911 
f 520 682 423 
f 1120 1197 1004 
f 432 152 510 
f 752 758 764 
f 505 423 876 
f 609 674 1 
f 1369 1 674 
f 1369 505 760 
f 680 760 505 
f 241 915 932 
f 601 1011 262 
f 609 240 674 
f 1011 674 240 
f 1014 504 520 
f 682 520 504 
f 659 470 586 
f 601 1014 1011 
f 1278 1269 1431 
f 685 79 1408 
f 1355 545 1161 
f 236 798 715 
f 938 243 936 
f 1434 1448 40 
f 164 760 253 
f 678 1431 192 
f 931 1143 831 
f 1408 468 650 
f 1100 1103 47 
f 682 504 1408 
f 778 103 415 
f 116 415 103 
f 737 741 750 
f 1104 1106 49 
f 456 616 631 
f 202 1108 10 
f 415 1395 778 
f 769 768 765 
f 1259 165 966 
f 718 419 714 
f 359 312 426 
f 127 730 923 
f 928 449 684 
f 675 684 449 
f 213 242 129 
f 1402 1001 154 
f 754 449 686 
f 1127 686 449 
f 1394 1400 1390 
f 62 393 404 
f 559 1425 564 
f 41 1055 1057 
f 690 152 666 
f 1121 297 1132 
f 771 537 564 
f 788 1063 388 
f 754 398 714 
f 172 663 167 
f 1247 92 1010 
f 131 1411 1345 
f 807 436 1387 
f 127 352 730 
f 337 466 1291 
f 86 343 218 
f 1019 23 1424 
f 643 32 374 
f 411 255 80 
f 429 673 66 
f 372 324 594 
f 926 932 938 
f 866 663 1395 
f 252 390 702 
f 700 702 390 
f 345 326 1329 
f 802 153 333 
f 648 465 408 
f 1303 342 1314 
f 1270 686 1127 
f 171 679 840 
f 711 840 679 
f 697 840 652 
f 395 333 153 
f 686 711 1306 
f 487 1306 711 
f 177 711 679 
f 1260 22 1333 
f 36 1347 1041 
f 127 813 1284 
f 1015 672 568 
f 1297 1400 12 
f 660 665 1306 
f 721 1306 665 
f 60 556 636 
f 131 893 833 
f 1277 951 1271 
f 855 307 984 
f 221 894 660 
f 665 660 894 
f 657 239 892 
f 1308 892 239 
f 101 469 894 
f 1308 894 469 
f 692 721 168 
f 860 168 721 
f 657 828 239 
f 860 239 828 
f 225 227 864 
f 890 669 843 
f 795 658 431 
f 834 658 217 
f 22 916 1032 
f 833 375 60 
f 669 668 843 
f 256 843 668 
f 656 843 825 
f 844 825 843 
f 692 168 256 
f 844 256 168 
f 694 843 169 
f 1188 1187 1185 
f 656 88 843 
f 605 532 491 
f 673 354 663 
f 441 663 354 
f 290 1092 1097 
f 280 1066 1069 
f 405 104 156 
f 489 431 658 
f 464 972 673 
f 354 673 972 
f 354 972 655 
f 832 655 972 
f 440 166 957 
f 169 972 694 
f 144 149 563 
f 783 786 794 
f 655 1397 354 
f 441 354 1397 
f 302 1157 1151 
f 468 504 328 
f 51 849 1250 
f 731 101 120 
f 986 167 956 
f 889 521 855 
f 651 552 328 
f 1388 688 524 
f 654 78 874 
f 956 874 78 
f 73 563 149 
f 113 438 992 
f 101 731 469 
f 718 1375 420 
f 654 913 78 
f 731 78 913 
f 1294 96 974 
f 390 252 123 
f 702 482 252 
f 556 60 375 
f 1064 1061 1062 
f 243 1322 33 
f 123 779 390 
f 847 930 581 
f 461 121 424 
f 943 547 1192 
f 1405 1226 1250 
f 1379 188 700 
f 188 815 702 
f 482 702 815 
f 245 538 800 
f 1264 188 182 
f 182 247 1264 
f 494 1264 247 
f 1458 1065 1446 
f 494 439 1004 
f 147 838 456 
f 793 23 794 
f 259 159 105 
f 1084 45 1188 
f 1406 1410 793 
f 1447 1446 1057 
f 160 1289 719 
f 919 338 273 
f 41 1446 1065 
f 845 842 824 
f 724 518 512 
f 240 165 1011 
f 427 530 156 
f 466 1343 671 
f 466 671 1355 
f 406 514 126 
f 707 925 185 
f 829 826 830 
f 754 714 419 
f 651 1365 552 
f 687 204 499 
f 671 181 837 
f 895 1439 997 
f 103 778 650 
f 1355 671 355 
f 733 355 671 
f 837 1315 671 
f 733 671 1315 
f 232 499 204 
f 1315 837 17 
f 1213 1219 317 
f 479 1319 17 
f 17 837 708 
f 148 835 652 
f 35 1023 1025 
f 943 706 406 
f 123 544 779 
f 981 89 1050 
f 949 248 628 
f 708 544 17 
f 17 1254 479 
f 431 892 913 
f 1254 544 123 
f 129 974 96 
f 41 1057 1446 
f 74 247 523 
f 971 678 192 
f 941 183 348 
f 506 458 1197 
f 213 26 1267 
f 247 182 523 
f 1379 523 182 
f 509 904 1234 
f 940 1316 1454 
f 390 904 700 
f 1379 700 904 
f 509 1018 523 
f 25 523 1018 
f 1234 870 509 
f 994 792 991 
f 1234 995 870 
f 140 1437 1429 
f 1048 1033 1047 
f 1440 1438 1448 
f 428 724 1304 
f 76 71 1295 
f 128 1393 518 
f 995 1234 708 
f 1306 487 1008 
f 469 913 892 
f 689 1381 1387 
f 181 708 837 
f 995 1343 170 
f 1187 1190 308 
f 627 1396 115 
f 900 883 227 
f 680 505 876 
f 531 1450 263 
f 178 699 120 
f 79 961 216 
f 955 245 989 
f 1405 411 661 
f 1033 1023 35 
f 119 1315 1319 
f 381 1459 1466 
f 1450 1268 263 
f 1131 1132 50 
f 91 789 364 
f 380 359 927 
f 330 1015 329 
f 1450 531 1007 
f 28 341 64 
f 1210 91 263 
f 369 158 1218 
f 1139 1138 1136 
f 849 161 952 
f 1007 442 128 
f 55 1241 683 
f 136 442 519 
f 364 519 442 
f 203 548 517 
f 18 867 1109 
f 644 584 501 
f 134 619 536 
f 34 110 922 
f 1268 1463 735 
f 428 1007 128 
f 806 923 730 
f 294 1125 297 
f 935 150 672 
f 89 952 161 
f 263 91 531 
f 804 568 672 
f 952 404 1287 
f 1268 1210 263 
f 1017 910 31 
f 363 425 430 
f 832 972 169 
f 186 534 1210 
f 596 962 784 
f 13 761 1124 
f 448 395 1006 
f 12 1163 1183 
f 613 175 534 
f 1205 1203 1200 
f 364 531 91 
f 789 91 175 
f 1125 1126 1124 
f 1220 56 1399 
f 472 853 735 
f 646 162 397 
f 993 261 851 
f 1240 323 1242 
f 853 618 186 
f 736 519 1409 
f 1349 1384 529 
f 1094 1116 44 
f 995 170 870 
f 135 186 618 
f 753 741 737 
f 735 186 1268 
f 327 69 1253 
f 1210 1268 186 
f 626 1449 1441 
f 732 1009 1378 
f 779 544 1234 
f 144 954 850 
f 707 1286 110 
f 1136 298 1137 
f 444 836 581 
f 1243 1246 323 
f 512 1381 689 
f 128 518 428 
f 724 428 518 
f 142 540 615 
f 913 469 731 
f 686 1270 711 
f 879 262 1259 
f 185 590 63 
f 972 464 694 
f 411 1405 1207 
f 547 943 126 
f 122 1004 1197 
f 267 1333 22 
f 760 164 1369 
f 732 1378 401 
f 732 401 1304 
f 921 920 918 
f 1403 58 84 
f 871 1361 124 
f 1 1369 164 
f 423 505 674 
f 236 709 637 
f 881 1274 80 
f 1204 504 1014 
f 1463 1268 1450 
f 1110 1109 867 
f 138 517 548 
f 240 966 165 
f 417 611 957 
f 211 208 807 
f 133 942 790 
f 35 1025 1436 
f 124 1302 28 
f 578 383 435 
f 1307 472 1463 
f 862 466 337 
f 718 714 66 
f 1312 1310 340 
f 524 162 937 
f 244 454 705 
f 735 1463 472 
f 231 1218 158 
f 82 1042 138 
f 675 400 684 
f 724 689 413 
f 564 73 559 
f 109 732 1304 
f 109 1304 413 
f 1007 531 364 
f 540 1326 1256 
f 854 455 726 
f 1408 504 468 
f 805 590 510 
f 413 1304 724 
f 701 950 145 
f 84 855 521 
f 683 481 55 
f 1443 798 626 
f 1035 1023 272 
f 285 1077 1076 
f 908 717 158 
f 258 498 624 
f 1138 1140 298 
f 1288 219 226 
f 660 462 221 
f 475 1378 1009 
f 1444 374 32 
f 1166 1165 198 
f 1009 732 109 
f 1266 1269 1278 
f 721 665 860 
f 982 886 979 
f 475 460 1378 
