v 0.16022873 -0.4864105 0.6360043
v 0.31178892 -0.36227036 0.8769736
v 0.0632284 0.496693 0.0522852
v 0.29428318 0.6094976 -0.29927087
v 0.21456899 -0.4799282 0.6246072
v 0.315639 -0.625673 0.839496
v -0.08007288 0.119767345 -0.25270933
v 0.2673664 -0.044000387 0.87296295
v -0.32641843 -0.5471436 0.72500145
v 0.1500622 -0.45306388 0.16285574
v -0.23546 -0.269794 -0.12322
v -0.026776075 0.75306606 -0.4593258
v 0.10317683 -0.47830403 0.6680447
v -0.32226348 0.04628253 0.048939705
v -0.288313 -0.71953 0.0292002
v 0.358602 -0.37797 0.17897
v -0.19831848 -0.44006535 0.28147316
v 0.21505648 0.26916274 0.17660385
v -0.24411774 -0.6348872 0.66271234
v 0.0876766 -0.391182 0.901606
v 0.335047 -0.66747 -0.026194
v 0.20458233 0.22737992 -0.18462658
v 0.158786 0.0751889 -0.141343
v 0.2461 -0.678205 0.889508
v 0.044851243 -0.5266168 0.49199867
v 0.37301326 -0.5182867 0.09612274
v -0.25649607 0.5562167 -0.1316843
v -0.42190844 0.6443437 -0.24292615
v -0.24918652 0.17891073 0.06109619
v 0.36090654 0.0060751755 0.18341279
v 0.25404972 0.21410897 0.2127428
v -0.08043879 0.103817165 -0.39472556
v 0.15574 -0.680004 0.892121
v -0.3543465 -0.49671265 -0.09073317
v 0.25113 -0.502745 0.197094
v 0.2272197 0.4315837 -0.03869319
v -0.37432683 0.6211809 -0.14886457
v -0.33473992 -0.53328454 0.8437791
v 0.09751385 -0.4367858 0.03542696
v 0.364087 -0.605614 -0.0296813
v 0.271501 0.201979 -0.579853
v 0.22534084 0.31655714 -0.6506443
v 0.338377 -0.6077783 -0.07764959
v -0.12666035 0.9113426 -0.27201724
v 0.2661094 -0.42905957 0.57340086
v 0.153343 -0.652512 -0.0628489
v 0.14885747 -0.6927688 0.7015847
v 0.3195579 -0.1482532 -0.07702017
v 0.168725 0.158519 -0.103729
v 0.116184235 -0.6374955 0.8857441
v 0.264169 0.646946 -0.369897
v 0.288313 -0.71953 0.0292002
v 0.25651175 0.5562275 -0.13160771
v -0.13936698 0.14898974 -0.2677498
v 0.08109331 0.29894924 0.3195305
v 0.074515335 -0.3907218 -0.0050427914
v -0.18079841 0.8950453 -0.32703757
v 0.060177565 -0.17574024 -0.20162678
v 0.07605171 0.7601061 -0.44647694
v -0.17268988 0.21256375 -0.06155908
v -0.30274367 0.005740404 -0.03665781
v 0.17065519 0.79198796 -0.3354879
v -0.37301278 -0.51828337 0.09612274
v -0.05469823 -0.2896366 0.935874
v 0.10760927 0.4959774 -0.5651808
v -0.17209387 0.019215971 -0.1468544
v -0.32688057 0.3615358 -0.38051176
v -0.28147697 -0.18463612 -0.112849236
v 0.305787 0.218563 -0.547441
v 0.17013678 0.280136 -0.05009699
v -0.368236 -0.614976 0.0306267
v 0.19001189 0.952887 -0.25504827
v -0.21336055 0.15156567 -0.3586626
v -0.3355131 -0.38513544 0.42618132
v 0.279361 0.583208 -0.137022
v -0.09547615 0.499754 0.044079065
v 0.19961226 -0.6458583 0.65807104
v 0.10414589 -0.62454003 0.032082785
v -0.11373635 0.81226295 -0.21432263
v -0.17717671 0.76965237 -0.3971262
v 0.37638903 0.70521855 -0.3228364
v -0.35810867 0.59331304 -0.21961713
v -0.014970779 0.17513943 0.83384895
v 0.23992369 -0.59594774 -0.121369824
v 0.21838579 0.8845556 -0.2454344
v -0.288217 -0.679435 0.838379
v 0.2028004 0.2651441 0.2821207
v -0.20732474 -0.4609815 0.19740891
v 0.12162964 0.1384078 -0.27920952
v 0.1598525 0.7801857 -0.40030956
v -0.2321434 -0.041941166 0.904726
v -0.2400296 -0.43606198 0.3980198
v 0.20056933 0.7796896 -0.24831343
v 0.26188457 0.6958592 -0.35161018
v -0.29434463 0.6071877 -0.29625738
v -0.104904 -0.328487 0.922781
v -0.3586855 -0.06848025 0.45491028
v 0.33132958 0.28623623 -0.5199387
v -0.16922179 0.94465125 -0.24104238
v -0.20210147 -0.43746328 0.24079752
v -0.2224886 0.88094896 -0.25465566
v -0.15574 -0.680004 0.892121
v -0.035742283 0.7407837 -0.08893585
v -0.153047 -0.720555 0.741401
v -0.08431196 -0.6200657 0.84775066
v -0.33023772 0.012306929 0.43784046
v 0.29515886 0.07753515 0.41175842
v -0.3304352 0.25113162 -0.4823792
v 0.2012747 0.14507616 -0.5457051
v -0.3441236 -0.28740692 -0.08114874
v 0.1300087 0.60103035 -0.035261154
v -0.116393566 -0.6374731 0.69930506
v 0.06368321 -0.4571138 0.6859729
v -0.11458957 0.19975567 -0.6317611
v -0.09814739 -0.023913741 -0.20046186
v -0.18613529 -0.6273675 0.16701686
v 0.19591528 -0.48231006 0.4113778
v -0.27458203 0.101523995 0.43402958
v -0.315639 -0.625673 0.839496
v -0.18183714 0.8046555 -0.22910342
v -0.11653945 -0.36464983 -0.072963595
v 0.20031166 0.49150085 -0.5489845
v 0.28462246 0.53886867 -0.29568172
v -0.02654934 -0.35473347 0.87800217
v -0.358602 -0.37797 0.17897
v -0.460337 0.681448 -0.17325
v -0.31203824 -0.4306081 0.6542831
v 0.23989977 -0.4361995 0.39908695
v -0.0876766 -0.391182 0.901606
v -0.11367712 -0.45289943 0.0949913
v -0.15281552 0.28745243 0.023736417
v -0.158786 0.0751889 -0.141343
v -0.412958 0.685943 -0.291128
v 0.18451267 -0.5946416 -0.10704601
v 0.056226015 -0.40678453 0.84901
v 0.24978098 -0.68301296 0.69264585
v -0.13856792 0.29357386 0.31187153
v -0.35057712 -0.073488116 0.6532631
v -0.37744874 -0.34841824 -0.039066553
v -0.1244016 0.10416721 -0.46409675
v -0.14275634 -0.62003505 0.13496685
v -0.15597674 0.8041088 -0.21792123
v 0.1136772 -0.45289958 0.09499152
v -0.184529 0.181235 -0.238574
v 0.2185607 0.25114536 -0.64154387
v 0.3010378 -0.051336586 0.8264446
v -0.257915 0.488969 -0.517721
v -0.1720705 0.7360754 -0.44220257
v -0.20458144 0.22736943 -0.18466711
v -0.271501 0.201979 -0.579853
v 0.119291246 0.11591488 -0.50902677
v 0.069956 -0.47422 0.735292
v -0.29187012 -0.62750864 0.8827038
v 0.22629598 0.7370944 -0.34043407
v -0.153343 -0.652512 -0.0628489
v 0.06952745 0.56830406 0.02251339
v -0.32215118 -0.6714003 0.1006794
v -0.249781 -0.6830143 0.692647
v 0.2038517 0.19555855 0.4148159
v -0.264169 0.646946 -0.369897
v 0.1998353 0.72667027 -0.43487453
v 0.34412238 -0.28739214 -0.081148624
v 0.3092172 -0.0018885136 -0.03116417
v -0.3072288 -0.50530577 -0.11792463
v -0.4299041 0.66109884 -0.1536358
v 0.294318 0.572729 -0.209871
v -0.14684826 0.909215 -0.22515692
v 0.40669316 0.61502147 -0.20074503
v -0.16215062 0.9293535 -0.30385017
v 0.033551693 -0.5180254 0.34353352
v -0.2619387 0.6957717 -0.35162663
v 0.17344022 -0.6848602 0.13127804
v 0.120052576 0.15129614 -0.5782232
v -0.24435616 0.37247932 -0.09170079
v 0.116017014 -0.623865 0.08659929
v 0.13606149 0.923522 -0.27557087
v 0.16986549 0.9009981 -0.32481503
v 0.28984547 -0.63472486 0.8815794
v -0.014219508 0.11082265 -0.27443033
v -0.056850553 0.2146802 0.7258792
v -0.13394976 -0.4487208 0.2275238
v 0.1028564 0.1111916 -0.22202611
v -0.13438702 0.28873825 -0.66656935
v 0.288912 -0.666279 -0.0831981
v 0.059748232 0.23066473 0.48743868
v -0.10203171 0.10209465 0.8982887
v -0.305787 0.218563 -0.547441
v -0.1488967 -0.45891738 0.59605706
v 0.1103485 -0.60986704 -0.02398628
v 0.18076563 -0.44316238 0.25561762
v 0.262599 -0.446574 0.214165
v -0.12081027 0.15921736 0.8201618
v 0.19967318 0.37784195 -0.6329994
v 0.3159793 -0.3940482 0.58389467
v 0.38583767 -0.22518528 0.28805637
v 0.20964718 -0.44530427 0.512517
v 0.148661 -0.727347 0.795626
v 0.23912576 -0.33952233 -0.117925085
v 0.12147 -0.249274 -0.145022
v -0.288523 -0.704927 -0.0329901
v 0.38031942 -0.40286696 -0.03720832
v 0.10130572 -0.46646684 0.62812567
v -0.09905684 -0.43571532 0.10700369
v 0.1902765 0.17627096 0.4952712
v -0.11601697 -0.62386537 0.08659908
v -0.025905274 -0.5334618 0.41528845
v -0.335047 -0.66747 -0.026194
v 0.17129326 0.019951224 -0.14726877
v 0.08509445 -0.28248978 0.93778133
v 0.31292033 -0.52768385 0.8897388
v 0.20610428 -0.3441925 0.9215722
v 0.34586883 -0.014824063 0.03752327
v -0.244434 -0.716483 0.736358
v 0.36540067 0.5973597 -0.17083573
v 0.232047 0.565216 -0.501918
v 0.471552 0.708579 -0.199184
v -0.16408598 0.9532421 -0.2605074
v 0.0009469986 0.8051777 -0.16303921
v -0.11479795 0.80104375 -0.3916297
v -0.23912576 -0.33952233 -0.117925085
v 0.319732 -0.633454 0.786428
v -0.27084637 -0.5278764 0.91898036
v 0.14216995 0.20121288 -0.62858105
v 0.03341174 -0.32456207 0.9107914
v 0.34226385 -0.35578126 0.762537
v 0.0706349 0.3431872 0.035563827
v 0.33277965 -0.23708797 0.75660324
v -0.172796 -0.723594 0.0247169
v 0.11544728 -0.4448611 0.16347206
v -0.295399 0.395443 -0.540067
v -0.113033 -0.684171 0.844965
v 0.21302265 0.94005346 -0.28728652
v 0.33089137 -0.027088419 0.7190695
v -0.08503246 0.3166511 0.24629593
v -0.187443 -0.669698 -0.0818819
v -0.16439873 0.13268131 -0.5427307
v -0.128964 0.142918 -0.232488
v -0.23256874 0.31261545 -0.64758825
v -0.23065607 0.9063198 -0.2871279
v -0.44219136 0.7037745 -0.15509915
v 0.276152 -0.679477 0.14116
v -0.055774212 -0.40607977 0.84834576
v 0.12902218 0.21150172 0.49035454
v -0.059234083 -0.45197886 0.7119293
v -0.33795813 -0.34559178 0.64587903
v -0.36509442 0.5972659 -0.17070103
v 0.32688075 0.36153626 -0.38050842
v 0.16189408 0.14232492 0.80879116
v 0.12020403 0.31531173 0.028605342
v -0.401583 0.612716 -0.19176
v -0.18275213 0.12549782 -0.08808565
v -0.232047 0.565216 -0.501918
v -0.43241 0.746455 -0.258303
v 0.13033499 0.91624784 -0.24166638
v 0.14867043 0.6840019 -0.47900963
v 0.19349235 0.78314745 -0.29686093
v -0.304357 -0.484216 0.189956
v -0.2529335 -0.24810076 0.90118504
v -0.118600845 -0.6462879 0.88409805
v 0.25324345 -0.24080992 0.9002075
v 0.2752999 0.51812065 -0.4542811
v -0.19961226 -0.64585876 0.6580713
v 0.3264177 -0.5471457 0.7250005
v -0.0007779598 0.65366364 -0.010271072
v 0.37503624 -0.06407344 0.12604046
v -0.33622217 -0.10423303 0.7525959
v 0.15284851 0.28750554 0.023614645
v 0.17267838 0.21279633 -0.061534286
v 0.028665781 -0.09233558 1.0255213
v 0.31642818 0.34854603 -0.28642273
v 0.203436 -0.628169 0.923071
v -0.29844242 0.20136654 -0.41973954
v 0.29933977 -0.21533728 0.84955406
v 0.25124478 0.15642792 -0.5268853
v 0.33077368 0.25245363 -0.48319525
v 0.2920791 0.051409975 0.6970997
v 0.14772224 -0.39234024 0.9203105
v 0.089871645 -0.63579005 0.7440834
v 0.27056885 0.5250765 -0.17926455
v 0.14959586 0.28712034 0.31607437
v 0.338046 -0.680095 0.0309463
v 0.228165 -0.692422 0.147407
v 0.12828 -0.689708 0.0245746
v 0.238161 -0.677382 -0.0918856
v 0.229681 -0.733842 0.0266899
v 0.20056 -0.687393 0.898863
v 0.107919 -0.696884 0.796995
v 0.199176 -0.699686 0.68654
v 0.291818 -0.690195 0.788408
v 0.198244 -0.736784 0.793448
v 0.15770228 0.94724476 -0.24909705
v 0.09976959 -0.026315212 -0.19956207
v 0.03103578 0.21985269 0.7250519
v 0.059572995 -0.4588544 0.79474473
v 0.116395235 -0.63746333 0.6993027
v 0.10220885 -0.54428196 0.8973322
v -0.26558697 0.6193362 -0.12953766
v 0.219301 0.191387 -0.600189
v 0.2081151 -0.542246 0.9314577
v 0.33121562 -0.5977769 0.1436534
v 0.35434675 -0.4967128 -0.09073293
v 0.3868813 -0.502482 0.019078195
v 0.172796 -0.723594 0.0247169
v 0.19618034 -0.12018776 -0.16095066
v 0.14285773 -0.6193801 0.13515484
v 0.052539825 0.11322594 0.90410805
v -0.056813 -0.17359686 -0.20273447
v 0.176191 -0.716151 0.0857864
v -0.446451 0.74988806 -0.21017057
v 0.282894 0.56989 -0.257283
v -0.3313467 0.28595957 -0.5197675
v 0.25711012 -0.044718623 -0.11215305
v 0.22694755 0.58533686 -0.103723764
v 0.3495143 0.58750314 -0.21227074
v 0.422878 0.632073 -0.168661
v 0.18385696 -0.015358925 0.93123245
v 0.3750173 0.62163574 -0.14891401
v 0.17070472 -0.3536209 -0.10398841
v 0.37189293 0.6311648 -0.28563404
v -0.136552 -0.67511 -0.0280042
v 0.40783453 0.7320361 -0.29684925
v 0.45685527 0.72865343 -0.1729194
v 0.4451201 0.6771872 -0.2439909
v -0.28349364 -0.61695004 0.17222762
v -0.030880272 0.35343757 0.038333043
v 0.060690552 0.32794726 0.07190418
v 0.10007475 0.31885827 0.23301888
v 0.113033 -0.684171 0.844965
v 0.167426 0.259011 -0.0241111
v -0.28017902 0.33947575 -0.60999393
v 0.20741868 -0.46094573 0.19747245
v -0.29465342 -0.066844046 0.84410954
v -0.253551 -0.622939 0.912658
v 0.246831 -0.711912 0.845432
v -0.281161 -0.710704 0.0910758
v -0.1018877 -0.54030657 0.8976362
v -0.16888428 -0.046375275 0.95104027
v -0.29997993 -0.40465525 0.2621218
v 0.16771364 -0.49013186 0.49533367
v 0.028882742 -0.43004513 0.74300575
v 0.099122524 -0.43599004 0.10748792
v 0.151829 -0.713932 0.849146
v 0.096144736 0.8177477 -0.22394884
v -0.33808187 -0.4055512 0.71849656
v -0.0576974 -0.360469 0.893822
v -0.29352212 -0.2725687 -0.1107468
v -0.07395792 -0.5131054 0.35189056
v 0.14684981 0.90923667 -0.2251637
v 0.17100358 0.4857341 0.011695981
v 0.38133717 0.75538874 -0.27128506
v 0.28349304 -0.61694956 0.17222881
v -0.3153959 -0.3953864 0.58605725
v 0.04687631 -0.42249966 0.7981472
v -0.13120559 0.9165415 -0.24091601
v -0.069956 -0.47422 0.735292
v 0.278055 0.600765 -0.320108
v 0.12438297 0.3527794 -0.6599245
v 0.153047 -0.720555 0.741401
v 0.21071613 0.90262055 -0.31891274
v 0.19532776 -0.21469307 -0.1435163
v -0.15024322 0.30978918 -0.012751937
v -0.2980342 -0.21100855 0.8508663
v 0.25301266 0.06442559 0.80058575
v 0.30870795 0.3343649 -0.5715723
v -0.0005235188 0.06624389 -0.2468369
v 0.14527705 0.8008049 -0.21288091
v 0.035570145 0.0264287 -0.23321843
v 0.24393515 0.14495161 -0.43421608
v 0.2680049 0.26224017 -0.6254201
v 0.233667 -0.718383 -0.0394682
v -0.348561 -0.464054 0.158716
v 0.2662905 -0.46111074 0.6281511
v -0.3807046 -0.31866723 0.11649132
v -0.10414583 -0.62453973 0.03208279
v -0.167426 0.259011 -0.0241111
v 0.308326 -0.632734 0.733956
v 0.11403513 0.2835958 -0.6682347
v 0.368236 -0.614976 0.0306267
v 0.16843754 0.19122618 -0.13506165
v -0.176191 -0.716151 0.0857864
v 0.128964 0.142918 -0.232488
v 0.4371224 0.7017292 -0.1539051
v -0.148661 -0.727347 0.795626
v 0.304357 -0.484216 0.189956
v -0.18389392 0.47880867 0.0018799305
v 0.061433434 0.118278004 -0.27193013
v 0.0011366978 -0.4084301 0.0011386871
v -0.2094307 -0.5419604 0.9313796
v -0.27056897 0.52507645 -0.17926502
v 0.10607338 -0.041152954 0.9812336
v 0.18743506 0.9224255 -0.22816414
v 0.20672306 0.7656041 -0.23110029
v -0.13433033 0.1922065 0.7209821
v 0.3351121 -0.37607527 0.83512974
v -0.2461 -0.678205 0.889508
v -0.11604893 0.115294576 -0.20555949
v -0.279361 0.583208 -0.137022
v 0.16552177 0.17527264 -0.2051345
v 0.13647199 0.806167 -0.3357278
v -0.0006508827 0.8104038 -0.4048767
v -0.283587 -0.684515 0.738785
v -0.149733 -0.3934 0.920339
v 0.08114716 0.8236009 -0.25611916
v 0.20809877 0.7622153 -0.27976894
v -0.115859 -0.693483 0.748115
v 0.34920532 -0.36401483 0.25052428
v 0.08033839 -0.63647807 0.7952172
v -0.25552577 0.5916953 -0.46690488
v 0.18785062 0.1171314 -0.44429824
v 0.460792 0.730831 -0.231063
v 0.25150895 0.7267513 -0.32604027
v 0.24379373 0.6857023 -0.39032173
v 0.025875166 0.118118875 -0.3071173
v 0.007295966 0.7215233 -0.057081223
v -0.0011079311 0.77796745 -0.11508179
v 0.354786 -0.614851 0.0904298
v -0.447289 0.655956 -0.196803
v 0.32214928 -0.67140716 0.100682735
v 0.18896055 0.22178745 0.0009305477
v 0.07159233 0.8181405 -0.36956787
v 0.15323496 -0.60803986 0.9199071
v -0.11504221 0.35257006 -0.66151786
v -0.19506356 0.755335 -0.19369078
v -0.20371984 0.94944245 -0.28540528
v -0.375772 -0.31527472 0.27188492
v 0.2500289 0.12330854 0.48146725
v -0.148857 -0.6927712 0.70158863
v 0.460337 0.681448 -0.17325
v -0.087174594 0.82269216 -0.2865796
v 0.28628522 -0.6183785 0.6860666
v -0.20981854 0.9380082 -0.2506107
v -0.33837676 -0.6077758 -0.077651024
v 0.2555276 0.59174633 -0.46685958
v 0.38520882 -0.089797795 0.2087102
v -0.198896 -0.723335 0.85193
v 0.07084179 -0.06990051 0.9889165
v -0.21907353 0.15691486 0.46837664
v 0.179633 -0.708233 -0.0350267
v -0.0420599 -0.45142937 0.6879921
v 0.16197422 -0.45858586 0.59478086
v 0.042095184 0.09789717 -0.2529323
v 0.25717062 0.46886826 -0.5314789
v -0.312495 -0.42258 0.208415
v -0.319732 -0.633454 0.786428
v -0.3672123 0.65803933 -0.3142954
v 0.14385265 -0.50783145 0.40172434
v -0.1593647 0.3041258 0.23744488
v -0.246831 -0.711912 0.845432
v 0.38100943 -0.31957614 0.11613941
v -0.33121347 -0.5977721 0.14365196
v -0.33483636 -0.3745885 0.83547735
v -0.3762846 0.70531535 -0.32287073
v -0.3728326 -0.037620485 0.13618994
v 0.08431679 -0.6201191 0.8476949
v 0.15076178 0.30934164 -0.013576329
v 0.348561 -0.464054 0.158716
v 0.198408 -0.728532 0.734591
v -0.103482604 -0.47838682 0.6677274
v -0.227442 -0.724741 0.0933852
v -0.042108893 0.09802854 -0.25302285
v -0.0968098 -0.40841603 -0.021043219
v -0.2007693 0.7779469 -0.24628863
v -0.19360065 0.35405397 -0.6488838
v 0.227442 -0.724741 0.0933852
v -0.17070478 -0.35362098 -0.10398853
v -0.0060886145 -0.43540692 0.061897278
v 0.36501887 -0.24193001 -0.029941082
v 0.23287868 -0.6313219 0.17841363
v -0.004546255 0.51596177 0.056820452
v 0.23752451 0.75026035 -0.2815647
v -0.05957289 -0.45885417 0.7947445
v 0.12668133 0.3370999 0.009584188
v 0.013038158 -0.080186725 1.0499318
v -0.19706726 -0.120212555 -0.16053581
v 0.2999361 -0.40465063 0.262128
v 0.335933 -0.414813 0.716014
v -0.34947044 -0.363847 0.24993777
v -0.262599 -0.446574 0.214165
v 0.198896 -0.723335 0.85193
v -0.054525375 0.63661957 -0.014291763
v 0.115859 -0.693483 0.748115
v 0.26493996 0.62276816 -0.12955189
v -0.21408188 -0.4803475 0.62469655
v 0.281161 -0.710704 0.0910758
v -0.26091003 -0.43537322 0.58223236
v -0.31971717 -0.1486324 -0.07692051
v -0.16031218 -0.48628497 0.63593006
v -0.13299446 -0.28694773 -0.12032169
v 0.18546143 0.94610333 -0.2990613
v 0.0037109256 0.82902527 -0.22555065
v 0.2708254 -0.5277338 0.91901183
v 0.07128811 0.77960634 -0.15889359
v 0.08737564 0.06524694 -0.213377
v -0.08070731 -0.46454662 0.6446216
v -0.20567513 -0.34359837 0.92170036
v 0.119478 -0.295776 -0.113872
v 0.136552 -0.67511 -0.0280042
v -0.31178188 -0.3621788 0.8769746
v -0.17692244 -0.48823088 0.48344278
v -0.38686278 -0.5026859 0.019149542
v 0.253551 -0.622939 0.912658
v -0.34789348 -0.04167509 0.02342701
v 0.3025577 0.20765918 -0.4213064
v 0.24433583 0.3724647 -0.091674685
v 0.18244243 0.12428379 -0.08917904
v -0.08987337 -0.6357907 0.74407923
v -0.1683197 0.023166656 0.91944885
v -0.25113 -0.502745 0.197094
v -0.0708493 -0.52104974 0.493783
v -0.364087 -0.605614 -0.0296813
v -0.22503555 0.1337098 -0.45279133
v 0.3359691 -0.53261864 0.8410735
v -0.11034864 -0.6098676 -0.023986235
v 0.15594983 -0.64357805 0.6694684
v 0.277875 0.55689 -0.190965
v -0.33896053 -0.2564392 0.73405695
v -0.32377958 -0.03507328 0.7531395
v -0.19921303 -0.28100967 0.92453
v -0.19549084 -0.214715 -0.14347935
v 0.0576974 -0.360469 0.893822
v -0.036048412 0.028629303 -0.23332071
v -0.20514989 0.76181585 -0.21552765
v 0.23794556 0.11691272 0.7050314
v -0.203436 -0.628169 0.923071
v -0.15209818 -0.60220814 0.9206383
v 0.19843102 -0.2739048 0.9248991
v 0.283587 -0.684515 0.738785
v -0.25527817 0.21189106 0.1418407
v 0.3193152 0.37511063 -0.4917736
v -0.15595078 -0.6435728 0.6694689
v -0.17013714 0.28013366 -0.050097346
v -0.0473693 -0.423079 0.799815
v -0.248642 -0.724519 0.790895
v 0.180526 0.24841514 -0.09955576
v -0.198408 -0.728532 0.734591
v 0.34280038 -0.09127951 0.72758484
v 0.26132584 0.34739017 -0.6228075
v 0.18666077 -0.068099976 0.94137573
v -0.27066588 0.08489692 0.66756344
v -0.15133709 0.2026043 0.48501968
v 0.34653345 -0.023528814 0.4466114
v 0.20029402 0.7573559 -0.19612563
v -0.3713792 -0.023456976 0.21982276
v -0.19515297 -0.48139125 0.40460467
v -0.182766 -0.687312 0.135767
v -0.27509105 0.518963 -0.45428133
v -0.38953945 -0.12997037 0.23165703
v -0.32160473 0.009271741 0.65788174
v -0.2613039 0.0156235695 0.84425735
v -0.18958688 0.22107017 0.002095461
v 0.09284973 0.82058406 -0.29660654
v -0.12034607 0.5676923 -0.0011305809
v 0.18183726 0.80465627 -0.2291036
v -0.1805196 0.24842197 -0.09953439
v -0.14539301 0.13179034 -0.16226387
v 0.096809864 -0.40841612 -0.021043383
v -0.22575617 0.43126535 -0.036253095
v -0.31647563 0.3484385 -0.2866211
v 0.18545234 -0.6285671 0.16646922
v -0.2882272 0.30867672 -0.23359537
v -0.276152 -0.679477 0.14116
v 0.13621739 -0.5889416 -0.0744376
v 0.447289 0.655956 -0.196803
v 0.3395663 -0.53842866 0.7861192
v -0.3230393 0.3584137 -0.49377632
v -0.2484088 0.36759472 -0.6187725
v -0.26836586 0.26176715 -0.62497425
v -0.314593 0.32071 -0.563292
v -0.238161 -0.677382 -0.0918856
v -0.12828 -0.689708 0.0245746
v -0.228165 -0.692422 0.147407
v -0.338046 -0.680095 0.0309463
v -0.229681 -0.733842 0.0266899
v -0.291818 -0.690195 0.788408
v -0.199176 -0.699686 0.68654
v -0.107919 -0.696884 0.796995
v -0.20056 -0.687393 0.898863
v -0.198244 -0.736784 0.793448
v -0.28628555 -0.61837703 0.6860671
v -0.31296086 -0.52771974 0.88969564
v -0.3421122 -0.5224349 0.7945682
v 0.0552219 -0.529321 0.415644
v 0.2270329 0.6612263 -0.46355915
v -0.151829 -0.713932 0.849146
v 0.27073097 0.4204483 -0.12340069
v 0.09781851 0.10132611 -0.4310647
v 0.23065546 0.9036582 -0.28778052
v 0.244434 -0.716483 0.736358
v 0.296601 -0.602967 -0.109127
v -0.006088406 0.83675086 -0.31997395
v -0.13621761 -0.58894193 -0.07443765
v -0.12156868 -0.15557098 -0.18915796
v 0.288217 -0.679435 0.838379
v 0.10459238 0.20103586 0.7283778
v -0.09751389 -0.43678603 0.03542705
v 0.136631 -0.686121 0.0787634
v 0.3118134 -0.4307164 0.654055
v -0.282894 0.56989 -0.257283
v -0.17508721 0.12211719 -0.39638186
v 0.17545924 0.29929096 0.2127369
v 0.119989395 -0.15566349 -0.18971539
v -0.422878 0.632073 -0.168661
v -0.2947163 0.5674146 -0.17468232
v -0.20598379 0.62007904 -0.11244249
v 0.17439294 0.16932595 0.7194042
v -0.37660104 0.6260614 -0.27497244
v -0.28867364 0.66521907 -0.34749973
v 0.32626978 -0.39643908 0.44208598
v -0.45688605 0.7281642 -0.17233312
v -0.40761232 0.7317095 -0.29724216
v -0.454185 0.684351 -0.230461
v -0.046863973 0.3320555 0.053750515
v -0.20119572 0.09010124 0.842206
v -0.23287857 -0.6313219 0.17841363
v 0.34350532 -0.30050588 0.66507816
v -0.2066046 0.66075516 -0.47509193
v -0.471552 0.708579 -0.199184
v -0.02315414 0.12009239 0.90378
v 0.16653192 0.4214973 0.013533846
v 0.022528648 -0.37932777 0.8410759
v -0.07713904 -0.31445026 -0.10047722
v 0.24411803 -0.6348882 0.66271126
v 0.430349 0.658277 -0.154382
v 0.28826392 0.3086667 -0.2336936
v -0.09947777 -0.034251213 0.9834137
v 0.43674517 0.7009799 -0.27387094
v -0.11325699 0.3417817 0.018933743
v 0.12619972 0.095840454 0.8926201
v -0.2156992 0.24821234 -0.64157534
v 0.289471 0.569074 -0.162469
v -0.112397194 0.4959755 -0.5639591
v -0.26593453 -0.46185637 0.62820065
v -0.3786621 0.75571847 -0.27168655
v -0.28462195 0.5388679 -0.2956738
v -0.255976 0.429549 -0.563622
v -0.168725 0.158519 -0.103729
v -0.219301 0.191387 -0.600189
v -0.160058 0.168229 -0.195838
v -0.016422749 -0.09623909 1.0294075
v 0.0027600974 -0.30566692 -0.122917175
v -0.08737421 0.065212965 -0.21336555
v -0.036684707 0.4437552 0.058710568
v -0.06726827 0.12298293 -0.29971617
v 0.104904 -0.328487 0.922781
v 0.056494236 -0.23184967 -0.17517185
v 0.3072288 -0.5053062 -0.11792463
v 0.248642 -0.724519 0.790895
v 0.20208204 -0.43745822 0.24081826
v -0.179633 -0.708233 -0.0350267
v -0.079351425 0.78059196 -0.16561699
v 0.3672117 0.65803814 -0.31429487
v -0.21939564 0.707695 -0.42845917
v 0.43241 0.746455 -0.258303
v -0.18744051 0.9224932 -0.22819683
v 0.0045206547 -0.17128754 0.98124313
v -0.18918301 0.9346466 -0.3080535
v 0.29352975 -0.272619 -0.11074561
v 0.14539647 0.13177633 -0.16223574
v -0.444197 0.711394 -0.263256
v -0.19779533 0.7754468 -0.28555334
v -0.14437824 -0.5073876 0.40084124
v -0.460792 0.730831 -0.231063
v -0.08432473 0.8227769 -0.23997492
v -0.2354821 0.6514206 -0.46118355
v 0.07726616 -0.31423855 -0.10073185
v -0.296601 -0.602967 -0.109127
v 0.378455 -0.525308 -0.0356201
v -0.13664937 0.8070041 -0.33511853
v -0.17105699 0.79172844 -0.33538204
v 0.28155994 -0.18482018 -0.11278963
v -0.117755175 -0.4445897 0.16955078
v -0.30215192 0.273889 -0.59587
v 0.187443 -0.669698 -0.0818819
v 0.20407778 -0.27200532 -0.12549704
v 0.116536975 -0.36465263 -0.072959274
v -0.16843334 0.1912202 -0.1350576
v 0.2036432 0.6826725 -0.14823294
v -0.19655514 0.49448013 -0.5475483
v 0.08865926 0.4371209 0.050922185
v -0.330812 0.76374245 -0.23771816
v -0.233667 -0.718383 -0.0394682
v -0.28289557 0.1740551 -0.49021107
v 0.44650656 0.7497643 -0.21069169
v -0.027309656 -0.41180992 0.78440475
v -0.07519177 -0.3921597 -0.0036349297
v -0.24876165 0.7022066 -0.15948439
v -0.026155949 -0.07533741 1.0439768
v -0.23154593 0.58314043 -0.10687494
v -0.006140113 -0.073287964 0.9986935
v -0.288912 -0.666279 -0.0831981
v -0.20268291 0.26564455 0.2807026
v -0.13811874 -0.68398196 0.085828066
v -0.36835194 -0.15836191 0.45483398
v -0.1955394 0.2871022 0.17821074
v -0.0519166 -0.23240852 -0.17586184
v 0.288523 -0.704927 -0.0329901
v -0.24359334 0.6849022 -0.3912983
v 0.0069490075 -0.45701146 0.18944502
v -0.20767953 0.7642051 -0.23418152
v -0.277875 0.55689 -0.190965
v -0.2707305 0.42044735 -0.12340069
v -0.21220922 -0.44508886 0.50029755
v 0.301229 0.27536806 -0.59781265
v -0.354786 -0.614851 0.0904298
v -0.14337659 0.42094648 0.028715521
v 0.312495 -0.42258 0.208415
v -0.067178845 0.23085845 0.48652554
v -0.21047467 0.13924867 0.73154163
v -0.24887444 0.15467739 -0.52595663
v 0.21674359 0.9276278 -0.25355673
v -0.22580749 0.73739624 -0.34059906
v -0.25661564 -0.053553224 -0.1144495
v -0.25636622 0.21063454 0.2110548
v -0.378455 -0.525308 -0.0356201
v 0.28867352 0.6652191 -0.3474998
v -0.24894083 0.731102 -0.32188797
v -0.308326 -0.632734 0.733956
v 0.26769543 0.17861986 0.10099268
v -0.278055 0.600765 -0.320108
v -0.08033833 -0.6364781 0.7952175
v -0.21065915 0.90265155 -0.31895554
v 0.290901 0.186126 -0.509143
v -0.18451262 -0.59464175 -0.10704583
v -0.08431792 -0.067549676 0.9851968
v -0.14999586 -0.45310014 0.16277832
v 0.22420979 0.05066967 0.85736656
v -0.295245 0.436762 -0.484187
v 0.33385998 -0.36233208 0.64305055
v -0.23992369 -0.59594774 -0.121369824
v -0.28326273 0.042562723 0.758152
v -0.20750171 0.88750875 -0.2362043
v 0.07150507 0.16846848 0.8309994
v -0.3058884 -0.40941462 0.42271614
v -0.10922748 0.32094926 0.036786318
f 219 429 590 
f 182 441 386 
f 406 608 475 
f 674 360 657 
f 190 475 128 
f 453 543 528 
f 542 683 392 
f 128 475 608 
f 475 648 191 
f 331 191 648 
f 381 89 398 
f 475 190 648 
f 39 78 143 
f 588 647 457 
f 191 706 475 
f 548 730 539 
f 45 608 194 
f 379 268 49 
f 444 119 581 
f 231 259 584 
f 5 45 372 
f 483 487 262 
f 257 324 508 
f 309 423 522 
f 127 352 632 
f 45 440 196 
f 1 440 5 
f 45 5 440 
f 45 128 608 
f 694 691 447 
f 431 654 99 
f 346 220 164 
f 333 222 153 
f 198 674 657 
f 162 657 48 
f 670 48 657 
f 360 674 199 
f 496 199 674 
f 318 674 198 
f 708 437 539 
f 507 549 91 
f 346 164 110 
f 93 85 553 
f 439 494 509 
f 584 435 383 
f 558 67 108 
f 312 670 304 
f 83 180 192 
f 258 222 495 
f 500 71 63 
f 447 137 234 
f 118 691 713 
f 551 590 403 
f 300 351 418 
f 163 48 312 
f 7 643 179 
f 312 304 292 
f 462 120 101 
f 532 471 244 
f 557 361 705 
f 9 579 717 
f 208 505 312 
f 292 208 312 
f 387 466 685 
f 423 609 686 
f 490 663 218 
f 592 307 519 
f 260 211 491 
f 301 646 162 
f 327 234 55 
f 2 273 260 
f 319 314 4 
f 185 243 55 
f 382 322 677 
f 119 444 86 
f 388 524 525 
f 225 227 394 
f 79 663 167 
f 644 211 209 
f 526 209 211 
f 48 467 162 
f 628 316 726 
f 302 201 265 
f 467 265 201 
f 568 311 565 
f 522 423 79 
f 90 154 161 
f 467 48 212 
f 272 149 560 
f 139 502 486 
f 461 121 685 
f 533 448 574 
f 265 449 302 
f 627 734 325 
f 676 149 638 
f 222 333 388 
f 449 728 406 
f 608 406 728 
f 131 29 528 
f 577 435 102 
f 678 616 631 
f 573 228 459 
f 150 567 637 
f 395 448 577 
f 507 613 549 
f 23 208 493 
f 634 558 389 
f 4 356 715 
f 339 196 202 
f 292 601 367 
f 302 26 378 
f 325 642 627 
f 509 206 25 
f 149 676 554 
f 28 133 606 
f 337 258 518 
f 431 424 239 
f 7 460 641 
f 536 195 434 
f 721 239 424 
f 395 333 153 
f 408 697 664 
f 729 723 569 
f 341 387 56 
f 717 401 444 
f 668 219 669 
f 583 255 161 
f 721 669 239 
f 17 100 671 
f 521 641 460 
f 680 522 633 
f 350 683 653 
f 227 615 536 
f 162 201 301 
f 423 604 650 
f 30 265 212 
f 711 697 716 
f 425 245 516 
f 519 695 488 
f 207 510 432 
f 48 163 212 
f 218 650 415 
f 466 671 203 
f 146 273 536 
f 518 64 655 
f 697 408 160 
f 494 439 244 
f 569 235 681 
f 694 447 612 
f 728 615 225 
f 658 23 182 
f 360 304 670 
f 407 454 294 
f 614 508 324 
f 203 671 725 
f 621 685 121 
f 394 273 2 
f 174 701 560 
f 24 178 501 
f 20 135 296 
f 142 79 654 
f 8 273 146 
f 536 233 146 
f 583 65 255 
f 251 132 66 
f 612 234 327 
f 181 671 698 
f 144 638 149 
f 718 18 31 
f 32 643 599 
f 473 687 639 
f 362 258 332 
f 79 167 654 
f 540 393 707 
f 733 74 338 
f 597 372 194 
f 434 541 536 
f 233 536 541 
f 297 604 686 
f 636 251 60 
f 626 410 323 
f 133 452 445 
f 660 239 669 
f 237 638 54 
f 309 680 633 
f 580 153 222 
f 54 599 643 
f 295 47 278 
f 27 557 385 
f 148 219 12 
f 156 469 3 
f 218 366 343 
f 414 415 103 
f 13 202 440 
f 194 608 728 
f 614 571 116 
f 536 615 195 
f 230 565 727 
f 123 279 270 
f 537 364 703 
f 393 192 180 
f 498 451 580 
f 19 262 158 
f 195 728 449 
f 5 77 1 
f 498 258 362 
f 320 649 155 
f 342 197 479 
f 138 517 548 
f 348 343 366 
f 620 353 135 
f 432 690 207 
f 573 15 681 
f 68 346 486 
f 17 92 338 
f 718 267 18 
f 483 632 485 
f 308 303 464 
f 94 411 81 
f 18 600 87 
f 200 207 690 
f 96 64 495 
f 266 332 517 
f 559 468 331 
f 414 156 111 
f 86 153 119 
f 273 394 227 
f 204 426 159 
f 606 82 28 
f 629 238 183 
f 32 599 140 
f 87 159 107 
f 159 87 243 
f 280 243 87 
f 338 477 443 
f 119 153 38 
f 285 52 464 
f 457 290 358 
f 209 655 64 
f 219 148 80 
f 417 28 602 
f 106 548 118 
f 497 189 46 
f 363 248 726 
f 20 296 277 
f 290 479 197 
f 147 546 252 
f 347 170 206 
f 546 67 634 
f 30 31 541 
f 137 55 234 
f 610 716 452 
f 628 726 248 
f 112 530 458 
f 129 96 402 
f 539 118 548 
f 158 575 213 
f 352 245 74 
f 681 200 569 
f 238 463 183 
f 535 213 575 
f 272 108 682 
f 197 358 290 
f 653 683 410 
f 452 133 610 
f 413 179 643 
f 594 605 243 
f 204 243 605 
f 62 256 404 
f 365 460 179 
f 531 174 554 
f 285 303 370 
f 160 607 171 
f 380 545 459 
f 8 726 316 
f 643 7 54 
f 112 427 530 
f 625 507 337 
f 685 203 595 
f 187 682 108 
f 102 259 525 
f 149 272 73 
f 228 649 570 
f 328 50 454 
f 574 86 444 
f 13 152 113 
f 717 444 9 
f 145 377 42 
f 67 546 565 
f 708 730 613 
f 416 378 26 
f 514 1 77 
f 276 523 363 
f 235 155 649 
f 361 557 174 
f 63 373 500 
f 53 349 36 
f 492 313 677 
f 685 621 387 
f 386 179 413 
f 165 602 37 
f 258 498 222 
f 146 363 8 
f 726 8 363 
f 585 270 279 
f 527 136 376 
f 558 634 67 
f 163 312 505 
f 486 502 61 
f 692 141 545 
f 430 376 136 
f 712 474 68 
f 662 617 309 
f 36 585 53 
f 342 33 328 
f 411 470 350 
f 157 704 572 
f 437 540 691 
f 270 275 247 
f 637 629 114 
f 107 541 31 
f 380 459 228 
f 523 276 426 
f 107 426 276 
f 577 524 395 
f 724 687 625 
f 473 618 687 
f 474 592 519 
f 68 519 346 
f 76 480 552 
f 635 678 566 
f 649 681 235 
f 570 374 692 
f 578 435 533 
f 534 22 624 
f 38 581 119 
f 579 158 717 
f 567 150 672 
f 107 31 87 
f 150 637 709 
f 721 57 669 
f 485 188 483 
f 549 613 730 
f 236 709 637 
f 31 30 718 
f 118 539 437 
f 680 309 522 
f 27 603 700 
f 661 181 347 
f 430 136 622 
f 99 167 354 
f 489 359 177 
f 578 383 435 
f 379 49 658 
f 49 268 505 
f 419 505 268 
f 22 534 379 
f 242 124 345 
f 398 379 658 
f 508 478 257 
f 70 455 329 
f 267 329 455 
f 584 102 435 
f 234 612 447 
f 224 209 64 
f 98 247 275 
f 329 267 419 
f 630 75 53 
f 503 624 22 
f 390 538 316 
f 131 361 375 
f 450 157 324 
f 617 662 611 
f 618 306 83 
f 250 28 82 
f 699 522 142 
f 445 606 133 
f 229 466 341 
f 270 585 624 
f 504 624 585 
f 561 324 157 
f 70 534 504 
f 361 131 734 
f 455 504 36 
f 240 126 165 
f 280 87 600 
f 22 368 503 
f 581 9 444 
f 274 368 409 
f 725 141 130 
f 523 605 363 
f 76 385 705 
f 503 722 275 
f 69 275 722 
f 364 529 98 
f 368 274 722 
f 237 396 638 
f 105 231 720 
f 19 579 632 
f 722 503 368 
f 488 11 519 
f 423 309 609 
f 247 98 529 
f 521 365 307 
f 511 599 73 
f 558 560 701 
f 275 69 98 
f 703 98 69 
f 505 208 23 
f 676 555 636 
f 42 537 369 
f 703 369 537 
f 305 172 559 
f 708 613 192 
f 442 364 537 
f 207 200 572 
f 52 696 281 
f 21 281 696 
f 370 284 696 
f 184 696 284 
f 464 484 282 
f 241 282 484 
f 281 418 52 
f 484 52 418 
f 283 303 596 
f 308 596 303 
f 282 172 464 
f 308 464 172 
f 284 370 673 
f 438 673 370 
f 438 303 497 
f 283 497 303 
f 479 334 286 
f 24 286 334 
f 334 647 593 
f 289 593 647 
f 197 342 287 
f 328 287 342 
f 286 33 479 
f 342 479 33 
f 288 457 47 
f 358 47 457 
f 287 481 197 
f 358 197 481 
f 289 647 527 
f 588 527 647 
f 457 288 588 
f 136 588 288 
f 225 564 476 
f 263 476 564 
f 430 597 263 
f 525 402 388 
f 652 664 697 
f 37 297 240 
f 394 512 225 
f 564 225 512 
f 289 221 593 
f 6 593 221 
f 210 178 512 
f 6 512 178 
f 263 376 430 
f 389 701 27 
f 289 527 221 
f 376 221 527 
f 383 578 104 
f 109 298 274 
f 61 712 486 
f 454 296 135 
f 612 325 734 
f 295 278 13 
f 177 551 176 
f 278 294 152 
f 407 278 287 
f 481 287 278 
f 105 242 336 
f 38 580 451 
f 296 454 50 
f 387 621 640 
f 287 328 407 
f 454 407 328 
f 622 372 430 
f 597 430 372 
f 49 505 658 
f 167 99 654 
f 288 77 136 
f 622 136 77 
f 137 707 55 
f 133 28 659 
f 564 221 263 
f 425 547 373 
f 77 288 514 
f 47 514 288 
f 506 458 355 
f 495 388 402 
f 295 13 514 
f 1 514 13 
f 277 296 421 
f 690 432 666 
f 645 58 360 
f 211 277 299 
f 271 421 286 
f 33 286 421 
f 257 443 371 
f 50 421 296 
f 210 491 178 
f 501 178 491 
f 286 24 271 
f 501 271 24 
f 299 491 211 
f 275 270 503 
f 408 546 634 
f 686 240 297 
f 300 26 456 
f 728 195 615 
f 129 336 242 
f 26 302 449 
f 378 416 281 
f 418 281 416 
f 26 300 416 
f 591 513 155 
f 301 667 43 
f 40 43 667 
f 281 21 378 
f 40 378 21 
f 219 590 400 
f 414 103 264 
f 667 301 201 
f 371 450 257 
f 618 192 186 
f 513 591 461 
f 318 134 675 
f 562 675 134 
f 652 711 80 
f 324 257 450 
f 657 646 198 
f 518 258 495 
f 284 84 184 
f 589 184 84 
f 301 43 646 
f 589 646 43 
f 718 163 419 
f 137 447 691 
f 84 284 134 
f 673 134 284 
f 305 559 10 
f 331 10 559 
f 191 331 35 
f 597 194 728 
f 468 559 282 
f 172 282 559 
f 500 453 139 
f 45 194 372 
f 304 360 601 
f 417 611 28 
f 282 241 468 
f 351 468 241 
f 35 384 191 
f 706 191 384 
f 456 384 300 
f 351 300 384 
f 189 556 562 
f 675 562 556 
f 74 425 477 
f 392 470 404 
f 283 78 497 
f 189 497 78 
f 307 58 695 
f 595 461 685 
f 169 44 429 
f 573 459 15 
f 283 596 78 
f 175 78 596 
f 250 82 246 
f 607 452 171 
f 10 143 305 
f 175 305 143 
f 671 181 17 
f 232 359 489 
f 266 138 516 
f 247 529 261 
f 356 310 123 
f 332 266 362 
f 329 268 70 
f 433 123 261 
f 278 152 13 
f 187 672 150 
f 310 515 123 
f 279 123 515 
f 670 312 48 
f 597 728 476 
f 279 53 585 
f 348 391 291 
f 412 161 154 
f 490 590 663 
f 23 658 505 
f 116 88 614 
f 104 535 427 
f 677 313 482 
f 677 482 382 
f 317 382 482 
f 314 214 630 
f 75 630 214 
f 213 533 401 
f 75 482 313 
f 315 317 168 
f 214 168 317 
f 324 561 614 
f 12 631 616 
f 104 405 383 
f 270 247 123 
f 623 317 315 
f 9 344 127 
f 4 166 310 
f 515 310 166 
f 630 166 314 
f 555 638 396 
f 650 604 688 
f 186 613 507 
f 687 186 625 
f 310 356 4 
f 646 589 84 
f 731 101 120 
f 81 651 715 
f 4 715 651 
f 626 651 81 
f 227 536 273 
f 144 149 73 
f 314 319 168 
f 220 465 729 
f 81 321 626 
f 323 319 626 
f 651 626 319 
f 322 216 683 
f 410 683 216 
f 321 653 626 
f 410 626 653 
f 315 563 623 
f 428 623 563 
f 216 322 428 
f 382 428 322 
f 319 323 168 
f 355 244 471 
f 408 252 546 
f 315 168 563 
f 433 261 215 
f 300 418 416 
f 112 458 506 
f 317 623 382 
f 530 262 487 
f 494 188 509 
f 505 419 163 
f 87 31 18 
f 76 469 480 
f 475 706 406 
f 55 280 327 
f 527 588 136 
f 327 600 326 
f 718 419 267 
f 110 486 346 
f 466 698 671 
f 185 707 293 
f 224 520 644 
f 264 480 469 
f 463 566 678 
f 26 449 456 
f 397 688 297 
f 437 708 540 
f 224 124 620 
f 673 438 46 
f 21 43 40 
f 102 584 259 
f 16 456 449 
f 727 565 546 
f 499 509 188 
f 543 106 713 
f 606 95 82 
f 556 56 675 
f 83 732 293 
f 20 644 520 
f 373 477 425 
f 198 84 318 
f 111 156 349 
f 554 560 149 
f 661 206 509 
f 547 543 453 
f 495 402 96 
f 306 628 732 
f 186 192 613 
f 516 245 344 
f 232 72 710 
f 605 594 248 
f 732 248 594 
f 471 532 242 
f 147 252 678 
f 642 679 469 
f 326 249 226 
f 56 387 665 
f 292 493 208 
f 448 533 435 
f 345 129 242 
f 458 244 355 
f 39 56 556 
f 604 297 688 
f 695 519 307 
f 639 689 436 
f 633 699 716 
f 56 39 341 
f 143 341 39 
f 419 268 329 
f 504 455 70 
f 276 233 107 
f 700 389 27 
f 612 226 325 
f 369 703 41 
f 340 620 684 
f 702 733 92 
f 353 113 294 
f 152 294 113 
f 338 100 17 
f 34 164 432 
f 224 620 520 
f 135 520 620 
f 294 135 353 
f 446 170 190 
f 724 337 518 
f 707 185 55 
f 137 691 540 
f 60 554 676 
f 412 51 433 
f 18 267 600 
f 557 27 701 
f 10 331 648 
f 17 181 661 
f 125 371 443 
f 214 317 75 
f 79 218 663 
f 707 180 293 
f 330 230 566 
f 248 363 605 
f 327 326 612 
f 147 727 546 
f 226 612 326 
f 429 44 663 
f 611 417 617 
f 481 278 47 
f 641 132 396 
f 251 61 550 
f 74 485 352 
f 29 131 550 
f 696 52 370 
f 429 668 169 
f 249 326 600 
f 472 226 249 
f 79 142 522 
f 455 249 267 
f 442 122 215 
f 712 115 474 
f 325 679 642 
f 349 3 679 
f 659 611 662 
f 655 436 689 
f 484 464 52 
f 679 325 226 
f 556 189 39 
f 36 619 455 
f 472 455 619 
f 667 302 40 
f 241 484 418 
f 399 177 62 
f 619 349 679 
f 223 173 114 
f 421 299 277 
f 58 367 601 
f 138 693 516 
f 123 433 356 
f 572 15 157 
f 255 12 59 
f 367 365 441 
f 668 669 57 
f 192 618 83 
f 53 515 630 
f 534 70 268 
f 59 161 255 
f 513 374 320 
f 51 356 433 
f 122 65 583 
f 600 267 249 
f 63 371 373 
f 192 393 708 
f 405 506 576 
f 427 575 530 
f 285 464 303 
f 127 344 245 
f 73 272 511 
f 422 65 357 
f 95 607 719 
f 122 442 193 
f 537 193 442 
f 115 712 66 
f 541 107 233 
f 124 242 684 
f 42 357 193 
f 80 669 219 
f 665 675 56 
f 656 424 169 
f 205 374 130 
f 707 137 540 
f 244 458 494 
f 654 731 142 
f 34 432 714 
f 595 130 374 
f 497 46 438 
f 445 95 606 
f 224 644 209 
f 200 681 15 
f 442 215 261 
f 50 328 33 
f 231 105 259 
f 526 655 209 
f 678 631 463 
f 51 412 94 
f 103 650 480 
f 265 30 434 
f 387 640 665 
f 424 431 217 
f 524 388 333 
f 645 640 695 
f 262 530 575 
f 336 259 105 
f 360 199 645 
f 609 309 617 
f 202 13 113 
f 724 518 655 
f 332 91 549 
f 199 496 645 
f 665 645 496 
f 458 487 188 
f 307 365 58 
f 631 12 65 
f 147 678 635 
f 493 292 367 
f 639 724 689 
f 367 58 365 
f 560 558 272 
f 380 228 692 
f 261 123 247 
f 77 5 622 
f 11 488 220 
f 307 592 521 
f 686 604 423 
f 92 17 544 
f 601 292 304 
f 616 148 12 
f 365 179 441 
f 367 441 493 
f 545 116 571 
f 67 565 311 
f 413 89 386 
f 76 642 469 
f 441 179 386 
f 658 182 398 
f 381 398 182 
f 381 386 89 
f 571 459 545 
f 664 652 616 
f 720 576 506 
f 518 495 64 
f 694 131 528 
f 32 586 413 
f 280 55 243 
f 384 35 351 
f 163 718 212 
f 550 60 251 
f 151 586 140 
f 311 108 67 
f 235 723 155 
f 568 330 672 
f 13 440 1 
f 528 29 14 
f 552 480 650 
f 468 351 35 
f 384 456 706 
f 376 263 221 
f 89 409 368 
f 641 521 115 
f 140 236 151 
f 480 264 103 
f 128 117 190 
f 260 491 2 
f 499 188 702 
f 291 254 348 
f 236 173 151 
f 672 187 311 
f 217 99 354 
f 298 109 223 
f 173 223 109 
f 586 151 409 
f 108 272 558 
f 274 409 109 
f 601 360 58 
f 223 114 377 
f 641 396 7 
f 144 54 638 
f 378 40 302 
f 562 46 189 
f 688 552 650 
f 321 81 411 
f 379 398 22 
f 369 145 42 
f 41 274 298 
f 357 42 377 
f 713 106 118 
f 298 223 145 
f 160 408 719 
f 581 451 516 
f 690 569 200 
f 156 3 349 
f 164 729 666 
f 469 156 264 
f 148 616 652 
f 349 53 313 
f 205 130 141 
f 33 421 50 
f 577 102 524 
f 450 371 63 
f 574 401 533 
f 580 38 153 
f 171 716 697 
f 506 355 471 
f 313 492 111 
f 431 101 731 
f 134 318 84 
f 357 65 193 
f 414 264 156 
f 603 27 397 
f 492 414 111 
f 215 583 433 
f 657 162 646 
f 561 335 571 
f 335 157 15 
f 405 104 427 
f 393 540 708 
f 218 79 650 
f 462 660 699 
f 37 240 165 
f 313 53 75 
f 41 69 274 
f 433 583 412 
f 400 12 219 
f 710 587 232 
f 391 710 72 
f 637 114 236 
f 452 607 445 
f 731 654 431 
f 359 232 587 
f 662 253 659 
f 510 207 71 
f 489 291 72 
f 126 417 165 
f 333 395 524 
f 620 340 353 
f 103 415 650 
f 201 162 467 
f 691 118 437 
f 320 155 513 
f 182 493 441 
f 392 404 256 
f 541 434 30 
f 443 257 478 
f 459 571 335 
f 563 168 323 
f 496 675 665 
f 676 636 60 
f 624 503 270 
f 363 233 276 
f 591 155 723 
f 585 36 504 
f 93 392 256 
f 636 555 251 
f 314 168 214 
f 675 496 318 
f 517 549 730 
f 458 188 494 
f 507 625 186 
f 135 294 454 
f 92 544 499 
f 674 318 496 
f 422 463 631 
f 41 298 369 
f 560 554 174 
f 121 461 591 
f 593 6 178 
f 144 73 54 
f 619 36 349 
f 542 366 492 
f 638 555 676 
f 244 684 532 
f 240 686 609 
f 442 261 529 
f 388 495 222 
f 545 380 692 
f 217 169 424 
f 385 552 688 
f 180 707 393 
f 698 347 181 
f 377 114 183 
f 386 381 182 
f 254 343 348 
f 649 228 681 
f 71 572 704 
f 544 661 499 
f 258 337 91 
f 16 449 406 
f 596 308 172 
f 424 656 721 
f 211 644 277 
f 555 396 132 
f 461 595 513 
f 687 618 186 
f 212 718 30 
f 225 476 728 
f 295 514 47 
f 705 627 642 
f 487 483 188 
f 130 595 203 
f 482 75 317 
f 72 291 391 
f 113 353 340 
f 57 656 169 
f 57 169 668 
f 610 659 253 
f 252 408 616 
f 377 145 223 
f 291 489 176 
f 639 687 724 
f 142 120 699 
f 403 490 343 
f 611 659 28 
f 61 251 712 
f 392 366 542 
f 434 195 449 
f 238 567 330 
f 227 225 615 
f 364 442 529 
f 552 385 76 
f 72 232 489 
f 293 243 185 
f 124 224 64 
f 154 404 470 
f 694 528 713 
f 627 705 361 
f 350 470 392 
f 661 347 206 
f 653 321 350 
f 683 350 392 
f 263 597 476 
f 715 94 81 
f 548 106 138 
f 337 724 625 
f 97 138 106 
f 2 491 210 
f 95 598 603 
f 250 602 28 
f 699 660 716 
f 596 172 175 
f 734 694 612 
f 180 83 293 
f 565 230 568 
f 481 47 358 
f 231 584 576 
f 453 502 139 
f 693 138 97 
f 10 341 143 
f 422 183 463 
f 730 548 517 
f 719 634 598 
f 460 365 521 
f 285 370 52 
f 129 402 336 
f 362 516 451 
f 206 582 25 
f 248 732 628 
f 700 603 598 
f 375 531 60 
f 493 182 23 
f 478 338 443 
f 126 617 417 
f 576 720 231 
f 415 492 218 
f 311 568 672 
f 673 46 134 
f 230 727 635 
f 632 483 19 
f 262 19 483 
f 733 338 92 
f 453 14 502 
f 542 677 322 
f 542 492 677 
f 294 278 407 
f 592 474 115 
f 642 76 705 
f 253 662 309 
f 651 319 4 
f 634 719 408 
f 602 165 417 
f 709 511 682 
f 420 400 590 
f 605 523 204 
f 183 114 629 
f 122 193 65 
f 121 465 488 
f 590 551 420 
f 107 159 426 
f 109 409 151 
f 420 399 90 
f 51 715 356 
f 449 265 434 
f 161 59 90 
f 64 96 345 
f 106 543 97 
f 397 246 603 
f 101 431 239 
f 61 14 29 
f 400 90 59 
f 147 635 727 
f 490 218 343 
f 629 637 567 
f 69 41 703 
f 330 568 230 
f 463 238 566 
f 656 57 721 
f 125 477 373 
f 401 717 158 
f 159 243 204 
f 330 566 238 
f 166 4 314 
f 354 663 44 
f 252 616 678 
f 34 110 164 
f 99 217 431 
f 695 58 645 
f 173 236 114 
f 515 53 279 
f 390 436 538 
f 471 720 506 
f 579 9 127 
f 249 455 472 
f 237 54 7 
f 537 42 193 
f 470 411 154 
f 404 154 62 
f 90 62 154 
f 161 412 583 
f 701 389 558 
f 94 412 411 
f 154 411 412 
f 401 158 213 
f 213 535 533 
f 256 62 587 
f 359 587 62 
f 425 74 245 
f 242 105 471 
f 235 569 723 
f 509 499 661 
f 71 500 510 
f 701 174 557 
f 465 121 723 
f 709 236 511 
f 140 511 236 
f 93 256 587 
f 80 711 669 
f 153 86 395 
f 145 369 298 
f 695 640 621 
f 551 177 399 
f 265 467 212 
f 498 580 222 
f 621 488 695 
f 217 44 169 
f 576 383 405 
f 405 427 506 
f 11 346 519 
f 16 706 456 
f 373 547 453 
f 206 170 582 
f 603 82 95 
f 578 533 535 
f 335 15 459 
f 516 362 266 
f 174 531 361 
f 403 343 254 
f 499 702 92 
f 151 173 109 
f 268 379 534 
f 526 211 260 
f 139 714 500 
f 509 25 439 
f 587 85 93 
f 254 291 176 
f 385 688 27 
f 485 74 733 
f 254 176 403 
f 532 684 242 
f 488 621 121 
f 489 177 176 
f 473 390 628 
f 259 336 525 
f 357 377 422 
f 86 574 448 
f 85 710 391 
f 241 418 351 
f 562 134 46 
f 184 589 43 
f 188 485 702 
f 670 657 360 
f 8 538 260 
f 183 422 377 
f 15 572 200 
f 366 391 348 
f 547 425 516 
f 725 671 100 
f 684 439 340 
f 714 510 500 
f 723 729 465 
f 196 128 45 
f 594 293 732 
f 202 196 440 
f 110 34 139 
f 323 216 563 
f 111 349 313 
f 88 116 725 
f 233 363 146 
f 128 196 117 
f 339 117 196 
f 652 80 148 
f 428 563 216 
f 383 576 584 
f 660 669 711 
f 620 124 684 
f 631 65 422 
f 682 187 709 
f 141 725 116 
f 553 85 366 
f 150 709 187 
f 511 140 599 
f 462 699 120 
f 345 124 64 
f 202 113 439 
f 567 238 629 
f 243 293 594 
f 708 539 730 
f 510 714 432 
f 171 452 716 
f 3 469 679 
f 466 229 698 
f 598 634 700 
f 666 432 164 
f 661 544 17 
f 305 175 172 
f 127 245 352 
f 347 698 170 
f 512 6 564 
f 93 553 392 
f 229 190 698 
f 66 712 251 
f 477 338 74 
f 668 429 219 
f 516 344 581 
f 623 428 382 
f 129 345 96 
f 366 392 553 
f 725 130 203 
f 82 603 246 
f 125 373 371 
f 160 719 607 
f 32 140 586 
f 551 403 176 
f 446 190 117 
f 602 250 37 
f 59 12 400 
f 704 63 71 
f 473 628 306 
f 220 346 11 
f 699 633 522 
f 714 139 34 
f 366 218 492 
f 575 158 262 
f 570 692 228 
f 446 25 582 
f 116 545 141 
f 664 616 408 
f 78 39 189 
f 43 21 184 
f 375 550 131 
f 561 157 335 
f 25 446 339 
f 572 71 207 
f 339 202 25 
f 359 62 177 
f 216 323 410 
f 372 622 5 
f 624 504 534 
f 446 582 170 
f 90 400 420 
f 29 550 61 
f 290 647 479 
f 487 458 530 
f 389 700 634 
f 543 547 97 
f 35 331 468 
f 698 190 170 
f 175 143 78 
f 729 164 220 
f 396 237 7 
f 486 110 139 
f 693 97 547 
f 682 511 272 
f 720 471 105 
f 246 37 250 
f 697 711 652 
f 166 630 515 
f 591 723 121 
f 705 385 557 
f 334 479 647 
f 132 641 66 
f 691 694 713 
f 684 244 439 
f 450 704 157 
f 205 692 374 
f 462 101 660 
f 271 501 299 
f 115 521 592 
f 12 255 65 
f 2 210 394 
f 453 500 373 
f 115 66 641 
f 526 538 436 
f 14 61 502 
f 711 716 660 
f 299 421 271 
f 722 274 69 
f 666 729 690 
f 508 614 88 
f 538 526 260 
f 550 375 60 
f 316 538 8 
f 273 8 260 
f 593 178 334 
f 571 614 561 
f 713 528 543 
f 24 334 178 
f 95 445 607 
f 423 650 79 
f 91 332 258 
f 598 95 719 
f 51 94 715 
f 659 610 133 
f 645 665 640 
f 525 524 102 
f 583 215 122 
f 725 100 88 
f 9 581 344 
f 570 320 374 
f 732 83 306 
f 84 198 646 
f 68 486 712 
f 390 316 628 
f 490 403 590 
f 528 14 453 
f 240 609 126 
f 306 618 473 
f 10 648 229 
f 88 100 478 
f 239 660 101 
f 132 251 555 
f 535 104 578 
f 574 444 401 
f 643 32 413 
f 575 427 535 
f 635 566 230 
f 127 632 579 
f 420 551 399 
f 448 395 86 
f 202 439 25 
f 672 330 567 
f 398 89 368 
f 221 564 6 
f 374 513 595 
f 435 577 448 
f 716 610 633 
f 341 10 229 
f 398 368 22 
f 246 397 37 
f 688 397 27 
f 512 394 210 
f 98 703 364 
f 120 142 731 
f 520 135 20 
f 117 339 446 
f 297 37 397 
f 160 171 697 
f 451 498 362 
f 516 693 547 
f 429 663 590 
f 554 60 531 
f 465 220 488 
f 579 19 158 
f 411 350 321 
f 438 370 303 
f 531 375 361 
f 391 366 85 
f 290 457 647 
f 108 311 187 
f 390 269 436 
f 478 508 88 
f 694 734 131 
f 492 415 414 
f 485 632 352 
f 141 692 205 
f 338 478 100 
f 689 724 655 
f 341 466 387 
f 320 570 649 
f 519 68 474 
f 226 472 679 
f 112 506 427 
f 517 138 266 
f 190 229 648 
f 569 690 729 
f 542 322 683 
f 619 679 472 
f 253 633 610 
f 85 587 710 
f 203 685 466 
f 696 184 21 
f 426 204 523 
f 491 299 501 
f 354 167 663 
f 600 327 280 
f 63 704 450 
f 16 406 706 
f 573 681 228 
f 734 627 361 
f 526 436 655 
f 633 253 309 
f 54 73 599 
f 20 277 644 
f 436 269 639 
f 702 485 733 
f 451 581 38 
f 617 126 609 
f 179 460 7 
f 507 91 337 
f 113 340 439 
f 549 517 332 
f 89 413 586 
f 354 44 217 
f 125 443 477 
f 90 399 62 
f 269 473 639 
f 473 269 390 
f 201 302 667 
f 586 409 89 
f 525 336 402 
