v 1.9685262 -2.3855515 1.0006125
v -1.4622413 -1.7620876 -0.75397766
v 2.7715442 -1.8060967 -1.0086459
v -2.0805244 2.8404956 0.8708086
v -3.59226 1.8407569 -0.40758228
v -0.09409368 -2.2985196 -0.69407797
v -3.264234 0.3921169 0.99990684
v 2.0577009 0.054156452 -0.25736487
v -2.9061067 1.5383159 -1.0011405
v -3.4583378 1.5801876 0.6685295
v 3.507989 -0.39805388 -0.86831
v -3.1294277 -1.2180985 0.9736395
v 3.7342935 1.5373164 -0.28176594
v 3.895749 -0.121322036 0.5955429
v 3.2717202 0.1616894 1.0031043
v -1.5517998 1.7620381 -0.7600632
v -2.7434168 2.9015925 0.24791384
v -1.4992766 2.9315212 -0.99312484
v -1.4824862 1.4356141 0.25736904
v -1.7048506 -1.8911191 0.8542179
v 2.4984121 0.27784646 -0.860649
v 0.0045815706 -3.9829464 -0.31692266
v -0.9215107 -3.1251326 1.0052931
v -2.221331 -0.61062235 -0.6970506
v -0.6575668 3.3156898 0.9842262
v 3.946086 -1.01664 -0.27193165
v -0.4614892 3.777913 -0.68227625
v -2.94314 -0.85926104 -0.9994221
v 0.04610789 4.004622 0.22291279
v 2.0820053 0.5856825 0.55398357
v -2.5496645 -3.119949 0.3742547
v 1.1394705 -1.985655 -0.7400322
v -3.5454643 -1.869671 0.22949004
v 0.4722805 -3.7644749 0.69728184
v 3.0404472 1.3583117 -0.98202634
v -0.63423795 -1.924299 0.12167294
v 0.20644861 2.3292384 -0.7319188
v 2.9654126 2.2970567 0.7294693
v -2.5278304 -0.1853748 0.8480382
v 2.1233385 -0.78142846 0.70450795
v 1.605497 -1.2218744 -0.23111272
v -0.2732185 2.0278296 -0.28923488
v -2.171988 0.5774587 -0.7161323
v -1.9647888 1.6465302 0.8732972
v 2.8432229 -2.794294 -0.24533892
v -1.5393255 3.7111611 0.28485012
v -3.6850991 -0.615885 -0.7563987
v 2.8856452 2.794129 -0.2595253
v 1.5420408 3.7326667 0.016361833
v -1.9788437 0.2620742 0.22962558
v -1.4319334 -3.6054087 -0.5379162
v 2.722867 -2.6586397 0.73810005
v -2.9882526 -2.264485 -0.7345772
v 1.6045566 -3.7084424 -0.021147251
v 1.3560177 -1.7553047 0.6478019
v 1.6630869 1.5518246 -0.66878605
v -0.38455018 2.2831087 0.7406223
v 2.1798282 -1.2873192 -0.8439634
v -1.0591278 -3.832111 0.28504705
v -1.7997999 -0.94243133 0.22380078
v -1.933013 3.348076 -0.5
v 1.5646816 3.4051514 0.73878
v -4.018392 -0.4381738 0.2659731
v -0.059530735 -2.3107624 0.71352243
v 1.544791 2.3670225 1.001836
v 0.9366152 1.8260297 0.22210145
v 0.39745414 -3.2621045 -1.0005529
v 0.76796377 -1.8727257 0.0010009017
v -1.1894345 -3.1104004 -0.98202693
v 2.0256135 2.5877047 -1.0005538
v 1.5803955 -3.458519 -0.66816616
v 1.3280177 3.563043 -0.668169
f 4 25 46 
f 26 13 14 
f 10 63 7 
f 40 55 1 
f 25 7 44 
f 71 3 45 
f 15 1 52 
f 21 58 8 
f 6 32 67 
f 36 60 20 
f 23 12 31 
f 10 4 17 
f 35 3 58 
f 31 59 23 
f 69 67 22 
f 60 36 2 
f 30 40 15 
f 8 41 40 
f 60 50 39 
f 63 10 5 
f 13 26 11 
f 11 35 13 
f 3 11 26 
f 44 39 50 
f 38 14 13 
f 58 21 35 
f 38 15 14 
f 61 5 17 
f 64 55 68 
f 15 38 65 
f 6 2 36 
f 15 65 30 
f 46 17 4 
f 5 61 18 
f 7 12 20 
f 46 29 27 
f 41 68 55 
f 8 30 56 
f 56 21 8 
f 9 18 16 
f 70 35 21 
f 21 56 70 
f 55 64 23 
f 64 20 23 
f 2 24 60 
f 1 23 34 
f 22 51 69 
f 16 37 42 
f 14 52 26 
f 13 48 38 
f 18 9 5 
f 34 52 1 
f 28 9 43 
f 31 33 53 
f 2 6 67 
f 59 31 51 
f 63 33 12 
f 30 65 66 
f 31 12 33 
f 5 47 63 
f 36 68 6 
f 30 66 56 
f 45 54 71 
f 1 15 40 
f 71 22 67 
f 41 8 58 
f 34 23 59 
f 44 57 25 
f 48 13 35 
f 35 70 48 
f 32 6 68 
f 37 16 18 
f 62 38 48 
f 48 49 62 
f 12 7 63 
f 12 23 20 
f 40 30 8 
f 38 62 65 
f 7 25 4 
f 53 69 51 
f 33 63 47 
f 4 10 7 
f 54 45 52 
f 24 43 50 
f 32 58 3 
f 42 19 16 
f 9 28 47 
f 3 67 32 
f 3 35 11 
f 23 1 55 
f 53 47 28 
f 57 44 19 
f 72 48 70 
f 27 18 61 
f 39 44 7 
f 48 72 49 
f 24 2 69 
f 17 46 61 
f 68 36 64 
f 69 28 24 
f 25 65 62 
f 22 59 51 
f 53 51 31 
f 29 46 25 
f 45 26 52 
f 55 40 41 
f 67 69 2 
f 16 43 9 
f 37 56 66 
f 64 36 20 
f 19 42 57 
f 32 41 58 
f 50 19 44 
f 56 37 70 
f 59 22 34 
f 22 54 34 
f 52 14 15 
f 19 50 43 
f 17 5 10 
f 3 71 67 
f 29 62 49 
f 43 24 28 
f 39 20 60 
f 62 29 25 
f 43 16 19 
f 27 61 46 
f 57 65 25 
f 47 5 9 
f 57 66 65 
f 47 53 33 
f 52 34 54 
f 66 57 42 
f 42 37 66 
f 28 69 53 
f 50 60 24 
f 41 32 68 
f 18 70 37 
f 26 45 3 
f 27 72 70 
f 70 18 27 
f 22 71 54 
f 20 39 7 
f 29 49 72 
f 72 27 29 
