v 4 0 0
v 3.866025 0 0.5
v 1.75 -3.031089 -0.866025
v 2.061261 -0.552313 -0.5
v 3.03109 -1.749999 0.866025
v 2.133975 0 0.5
v 2 0 -0
v 0.905867 -3.38074 -0.866025
v 2.733694 -2.733692 0.5
v 3.348077 -1.933012 -0.5
v 3.5 0 -0.866025
v 3.866025 0 -0.5
v 3.863703 1.035276 0
v 3.734294 1.000601 0.5
v 3.5001974 0.38154125 0.8708
v 3.070008 -0.08392072 0.9983029
v 2.4851913 0.3782546 0.86064804
v 2.061261 0.552313 0.5
v 1.931852 0.517638 -0
v 2.13478 0.25357056 -0.4923129
v 2.4984121 0.27784646 -0.860649
v 2.9990993 0.3948393 -0.9999997
v -0.75402904 -2.985998 0.99858165
v 3.734294 1.000601 -0.5
v 3.464102 2 0
v 3.348076 1.933013 0.5
v 3.031089 1.75 0.866025
v 2.598076 1.5 1
v 2.165063 1.25 0.866025
v 1.848076 1.066987 0.5
v 1.732051 1 -0
v 1.848076 1.066987 -0.5
v 2.165063 1.25 -0.866025
v 1.000601 -3.734294 0.5
v 3.2293615 1.4184556 -0.8662071
v 3.348076 1.933013 -0.5
v 2.828427 2.828427 0
v 2.733693 2.733693 0.5
v 2.474874 2.474874 0.866025
v 1.9965308 -0.79702616 0.49259853
v 1.593943 -1.2408645 -0.0075748563
v 1.933012 -3.348076 0.5
v 2 -3.464102 0
v 1.25 -2.165064 -0.866025
v 2.733694 -2.733692 -0.5
v 2.6887033 -1.4735281 -0.999422
v 2.474874 2.474874 -0.866025
v 2.733693 2.733693 -0.5
v 2 3.464102 0
v 1.933013 3.348076 0.5
v 1.75 3.031089 0.866025
v 1.841485 2.3998756 0.9999994
v 1.4898257 2.024767 0.86064804
v 1.2869892 1.7219853 0.49231958
v 1.2308356 1.6040605 -2.9183866e-08
v 1.3302102 1.6888242 -0.4923215
v 1.5701765 1.9631119 -0.8606478
v 2.24015 2.1007278 -1.0008324
v 1.75 3.031089 -0.866025
v 1.933013 3.348076 -0.5
v 1.035276 3.863703 0
v 1.000601 3.734294 0.5
v 0.905867 3.38074 0.866025
v 0.552313 -2.061261 0.5
v 0.647048 2.414814 0.866025
v 0.552313 2.061261 0.5
v 0.517638 1.931852 -0
v 0.552313 2.061261 -0.5
v 0.647048 2.414814 -0.866025
v 0.776457 2.897778 -1
v 0.905867 3.38074 -0.866025
v 1.000601 3.734294 -0.5
v -0 4 0
v -0 3.866025 0.5
v -0 3.5 0.866025
v 0.42512608 2.9971278 0.99955815
v 1.9631097 -1.5701766 -0.8606473
v 1.933012 -3.348076 -0.5
v 1 -1.732051 -0
v 1.066987 -1.848076 -0.5
v 1.508948 -1.508947 0.5
v 3.734294 -1.0006 0.5
v -0.23982835 -2.5117445 0.8686302
v -0 3.866025 -0.5
v -1.035277 3.863703 0
v -1.000601 3.734294 0.5
v -0.905867 3.38074 0.866025
v 0.27784395 -2.4984107 -0.8606478
v -0.41843235 2.488229 0.86862874
v -0.30802202 2.1275563 0.49259758
v -0.26395565 2.0045624 -8.8977395e-06
v -0.2535715 2.1347795 -0.4923153
v -0.2778442 2.498409 -0.86064756
v 0.517638 -1.931852 -0
v -0.53715515 3.4795818 -0.870903
v -1.000601 3.734294 -0.5
v -2 3.464102 0
v -1.933013 3.348076 0.5
v -0.2832281 -1.9941009 -0.0037715733
v 3.380741 -0.905866 0.866025
v 1.5 -2.598076 -1
v -1.066987 1.848076 0.5
v -1 1.732051 -0
v -1.066988 1.848076 -0.5
v -1.25 2.165063 -0.866025
v -0.8592639 2.9431393 -0.9994217
v -1.75 3.031089 -0.866025
v -1.933013 3.348076 -0.5
v -2.828427 2.828427 0
v -2.733693 2.733693 0.5
v -2.0805244 2.8404956 0.8708086
v -1.4623054 2.7006721 0.9983028
v -1.5701749 1.9631102 0.86065125
v -1.508948 1.508948 0.5
v -1.414214 1.414214 -0
v 1.000601 -3.734294 -0.5
v 3.348077 -1.933012 0.5
v 3.380741 -0.905866 -0.866025
v -2.474874 2.474874 -0.866025
v -2.733693 2.733693 -0.5
v -3.464102 2 0
v -3.348076 1.933013 0.5
v -3.031089 1.75 0.866025
v -2.598076 1.5 1
v -2.165063 1.25 0.866025
v -1.848076 1.066987 0.5
v -1.732051 1 -0
v -1.6888208 1.3302178 -0.49231625
v -1.9631081 1.570184 -0.8606484
v -2.3998775 1.8414917 -1.0000002
v -3.031089 1.75 -0.866025
v -3.348076 1.933013 -0.5
v -3.863703 1.035276 0
v -3.734294 1.000601 0.5
v -3.380741 0.905866 0.866025
v 2.8402705 -2.0806074 -0.87090683
v 2.474874 -2.474873 0.866025
v 1.066987 -1.848076 0.5
v 0 -3.5 -0.866025
v -2.061261 0.552313 -0.5
v -2.414815 0.647047 -0.866025
v -2.897778 0.776457 -1
v -3.380741 0.905866 -0.866025
v -3.734294 1.000601 -0.5
v -4 -0 0
v -3.866025 -0 0.5
v -3.5 -0 0.866025
v 0.38654017 -3.5056086 0.86649704
v -2.4984112 0.27784586 0.86064744
v -2.1347797 0.25356984 0.49231482
v -1.9941003 0.28327936 -0.0037662983
v 1.75 -3.031089 0.866025
v 1.931852 -0.517638 -0
v 3.734294 -1.0006 -0.5
v -0.2531197 -2.1347847 0.49259806
v -3.866025 -0 -0.5
v -3.863703 -1.035276 0
v -3.734294 -1.000601 0.5
v 0 -4 0
v -3.0694625 -0.09858656 1.0008326
v -2.414814 -0.647048 0.866025
v -2.061261 -0.552313 0.5
v -1.931852 -0.517638 -0
v -2.1347804 -0.25356984 -0.49231482
v -2.4984107 -0.2778443 -0.86064804
v -0.09859562 -3.069463 -1.0008328
v -3.4795847 -0.5371392 -0.8709049
v -3.734294 -1.000601 -0.5
v -3.464101 -2.000001 0
v -3.348076 -1.933013 0.5
v -3.2865086 -1.2804961 0.8662071
v 2.3640862 -0.88174534 0.8686296
v 3.464102 -1.999999 0
v 1.1576061 -2.7947161 1.0000005
v 0.253572 -2.1347806 -0.49231482
v -1.848076 -1.066988 -0.5
v -2.165063 -1.25 -0.866025
v -2.94314 -0.85926104 -0.9994221
v -3.031088 -1.750001 -0.866025
v -3.348076 -1.933013 -0.5
v -2.828427 -2.828428 0
v -2.733692 -2.733693 0.5
v -2.474873 -2.474874 0.866025
v -2.3998792 -1.8414903 1.0000002
v -1.9631083 -1.5701761 0.8606465
v -1.6888189 -1.3302156 0.49231958
v -1.610347 -1.2097331 -0.0037667751
v 1.0085869 -2.302607 0.8606477
v 2.383027 -1.8667309 0.9995575
v 3.863703 -1.035275 0
v -2.474873 -2.474874 -0.866025
v -2.733692 -2.733693 -0.5
v -2 -3.464102 0
v -1.933012 -3.348076 0.5
v -1.75 -3.031089 0.866025
v 1.6888199 -1.3302157 -0.49232435
v -1.25 -2.165064 0.866025
v -1.066987 -1.848076 0.5
v -1 -1.732051 -0
v -1.330218 -1.6888113 -0.49231195
v -1.570173 -1.9631112 -0.86064756
v -1.841495 -2.399869 -0.9999999
v 0 -3.866025 0.5
v -1.933012 -3.348076 -0.5
v -1.035276 -3.863703 0
v -1.000601 -3.734294 0.5
v -0.905866 -3.380741 0.866025
v 2.414815 -0.647047 -0.866025
v 1.767768 -1.767766 0.866025
v 2.828428 -2.828426 0
v 0 -3.866025 -0.5
v -0.552313 -2.061261 -0.5
v -0.647047 -2.414815 -0.866025
v 1.035276 -3.863703 0
v -1.2804947 -3.2865143 -0.86620617
v -1.000601 -3.734294 -0.5
f 14 2 1 
f 1 13 14 
f 45 78 3 
f 2 14 15 
f 4 20 21 
f 3 136 45 
f 16 189 5 
f 21 208 4 
f 18 6 17 
f 153 7 20 
f 19 7 6 
f 6 18 19 
f 8 3 78 
f 7 19 20 
f 5 137 9 
f 78 116 8 
f 10 154 190 
f 153 41 40 
f 35 11 22 
f 190 173 10 
f 24 12 11 
f 11 35 24 
f 13 1 12 
f 12 24 13 
f 26 14 13 
f 13 25 26 
f 27 15 14 
f 14 26 27 
f 28 16 15 
f 15 27 28 
f 29 17 16 
f 16 28 29 
f 30 18 17 
f 17 29 30 
f 31 19 18 
f 18 30 31 
f 32 20 19 
f 19 31 32 
f 33 21 20 
f 20 32 33 
f 58 22 21 
f 21 33 58 
f 188 83 23 
f 22 58 35 
f 36 24 35 
f 174 23 148 
f 25 13 24 
f 24 36 25 
f 38 26 25 
f 25 37 38 
f 39 27 26 
f 26 38 39 
f 52 28 27 
f 27 39 52 
f 53 29 28 
f 28 52 53 
f 54 30 29 
f 29 53 54 
f 55 31 30 
f 30 54 55 
f 56 32 31 
f 31 55 56 
f 57 33 32 
f 32 56 57 
f 34 42 152 
f 33 57 58 
f 47 35 58 
f 152 148 34 
f 48 36 35 
f 35 47 48 
f 37 25 36 
f 36 48 37 
f 50 38 37 
f 37 49 50 
f 51 39 38 
f 38 50 51 
f 40 6 7 
f 39 51 52 
f 41 153 4 
f 7 153 40 
f 42 9 137 
f 4 196 41 
f 43 210 9 
f 137 152 42 
f 44 77 46 
f 9 42 43 
f 45 10 173 
f 46 101 44 
f 46 22 11 
f 173 210 45 
f 59 47 58 
f 11 118 46 
f 60 48 47 
f 47 59 60 
f 49 37 48 
f 48 60 49 
f 62 50 49 
f 49 61 62 
f 63 51 50 
f 50 62 63 
f 76 52 51 
f 51 63 76 
f 65 53 52 
f 52 76 65 
f 66 54 53 
f 53 65 66 
f 67 55 54 
f 54 66 67 
f 68 56 55 
f 55 67 68 
f 69 57 56 
f 56 68 69 
f 70 58 57 
f 57 69 70 
f 71 59 58 
f 58 70 71 
f 72 60 59 
f 59 71 72 
f 61 49 60 
f 60 72 61 
f 74 62 61 
f 61 73 74 
f 75 63 62 
f 62 74 75 
f 79 94 64 
f 63 75 76 
f 89 65 76 
f 118 136 46 
f 90 66 65 
f 65 89 90 
f 91 67 66 
f 66 90 91 
f 92 68 67 
f 67 91 92 
f 93 69 68 
f 68 92 93 
f 106 70 69 
f 69 93 106 
f 95 71 70 
f 70 106 95 
f 84 72 71 
f 71 95 84 
f 73 61 72 
f 72 84 73 
f 86 74 73 
f 73 85 86 
f 87 75 74 
f 74 86 87 
f 112 76 75 
f 75 87 112 
f 64 138 79 
f 76 112 89 
f 78 45 210 
f 172 209 189 
f 79 41 196 
f 210 43 78 
f 80 196 77 
f 196 80 79 
f 81 40 41 
f 77 44 80 
f 82 2 15 
f 166 101 3 
f 83 188 64 
f 15 100 82 
f 96 84 95 
f 64 155 83 
f 85 73 84 
f 84 96 85 
f 98 86 85 
f 85 97 98 
f 111 87 86 
f 86 98 111 
f 88 44 101 
f 87 111 112 
f 113 89 112 
f 101 166 88 
f 102 90 89 
f 89 113 102 
f 103 91 90 
f 90 102 103 
f 104 92 91 
f 91 103 104 
f 105 93 92 
f 92 104 105 
f 94 79 80 
f 93 105 106 
f 107 95 106 
f 80 175 94 
f 108 96 95 
f 95 107 108 
f 97 85 96 
f 96 108 97 
f 110 98 97 
f 97 109 110 
f 10 45 136 
f 98 110 111 
f 100 15 16 
f 44 88 175 
f 136 3 101 
f 175 80 44 
f 114 102 113 
f 5 100 16 
f 115 103 102 
f 102 114 115 
f 128 104 103 
f 103 115 128 
f 129 105 104 
f 104 128 129 
f 130 106 105 
f 105 129 130 
f 119 107 106 
f 106 130 119 
f 120 108 107 
f 107 119 120 
f 109 97 108 
f 108 120 109 
f 122 110 109 
f 109 121 122 
f 123 111 110 
f 110 122 123 
f 124 112 111 
f 111 123 124 
f 125 113 112 
f 112 124 125 
f 126 114 113 
f 113 125 126 
f 127 115 114 
f 114 126 127 
f 116 78 43 
f 115 127 128 
f 117 82 100 
f 43 214 116 
f 118 11 12 
f 100 5 117 
f 131 119 130 
f 12 154 118 
f 132 120 119 
f 119 131 132 
f 121 109 120 
f 120 132 121 
f 134 122 121 
f 121 133 134 
f 135 123 122 
f 122 134 135 
f 160 124 123 
f 123 135 160 
f 149 125 124 
f 124 160 149 
f 150 126 125 
f 125 149 150 
f 151 127 126 
f 126 150 151 
f 140 128 127 
f 127 151 140 
f 141 129 128 
f 128 140 141 
f 142 130 129 
f 129 141 142 
f 143 131 130 
f 130 142 143 
f 144 132 131 
f 131 143 144 
f 133 121 132 
f 132 144 133 
f 146 134 133 
f 133 145 146 
f 147 135 134 
f 134 146 147 
f 136 118 154 
f 135 147 160 
f 77 208 46 
f 154 10 136 
f 138 81 41 
f 9 117 5 
f 139 8 116 
f 41 79 138 
f 164 140 151 
f 116 211 139 
f 165 141 140 
f 140 164 165 
f 178 142 141 
f 141 165 178 
f 167 143 142 
f 142 178 167 
f 156 144 143 
f 143 167 156 
f 145 133 144 
f 144 156 145 
f 158 146 145 
f 145 157 158 
f 171 147 146 
f 146 158 171 
f 148 152 174 
f 147 171 160 
f 161 149 160 
f 208 21 22 
f 162 150 149 
f 149 161 162 
f 163 151 150 
f 150 162 163 
f 152 137 189 
f 151 163 164 
f 20 4 153 
f 189 174 152 
f 154 12 1 
f 99 94 175 
f 155 64 94 
f 1 190 154 
f 168 156 167 
f 94 99 155 
f 157 145 156 
f 156 168 157 
f 170 158 157 
f 157 169 170 
f 159 214 34 
f 158 170 171 
f 184 160 171 
f 34 203 159 
f 185 161 160 
f 160 184 185 
f 186 162 161 
f 161 185 186 
f 187 163 162 
f 162 186 187 
f 176 164 163 
f 163 187 176 
f 177 165 164 
f 164 176 177 
f 101 46 136 
f 165 177 178 
f 179 167 178 
f 138 64 188 
f 180 168 167 
f 167 179 180 
f 169 157 168 
f 168 180 169 
f 182 170 169 
f 169 181 182 
f 183 171 170 
f 170 182 183 
f 172 17 6 
f 171 183 184 
f 173 190 82 
f 6 40 172 
f 174 189 209 
f 82 117 173 
f 17 172 16 
f 209 188 174 
f 200 176 187 
f 8 139 166 
f 201 177 176 
f 176 200 201 
f 202 178 177 
f 177 201 202 
f 191 179 178 
f 178 202 191 
f 192 180 179 
f 179 191 192 
f 181 169 180 
f 180 192 181 
f 194 182 181 
f 181 193 194 
f 195 183 182 
f 182 194 195 
f 23 184 183 
f 183 195 23 
f 197 185 184 
f 184 23 197 
f 198 186 185 
f 185 197 198 
f 199 187 186 
f 186 198 199 
f 188 209 81 
f 187 199 200 
f 189 16 172 
f 81 138 188 
f 190 1 2 
f 137 5 189 
f 215 191 202 
f 2 82 190 
f 204 192 191 
f 191 215 204 
f 193 181 192 
f 192 204 193 
f 206 194 193 
f 193 205 206 
f 207 195 194 
f 194 206 207 
f 196 4 208 
f 195 207 23 
f 83 197 23 
f 208 77 196 
f 155 198 197 
f 197 83 155 
f 99 199 198 
f 198 155 99 
f 212 200 199 
f 199 99 212 
f 213 201 200 
f 200 212 213 
f 166 202 201 
f 201 213 166 
f 203 34 148 
f 202 166 215 
f 216 204 215 
f 23 174 188 
f 205 193 204 
f 204 216 205 
f 203 206 205 
f 205 159 203 
f 148 207 206 
f 206 203 148 
f 22 46 208 
f 207 148 23 
f 209 172 40 
f 3 8 166 
f 210 173 117 
f 40 81 209 
f 211 116 214 
f 117 9 210 
f 175 212 99 
f 214 159 211 
f 88 213 212 
f 212 175 88 
f 214 43 42 
f 213 88 166 
f 139 215 166 
f 42 34 214 
f 211 216 215 
f 215 139 211 
f 159 205 216 
f 216 211 159 
