v 4 0 0
v -1.330218 -1.6888113 -0.49231195
v -3.4795847 -0.5371392 -0.8709049
v 2.061261 -0.552313 -0.5
v 2.7464924 -2.1965053 0.8742914
v -2.4187634 -2.9368753 0.6666422
v -0.2531197 -2.1347847 0.49259806
v 1.931852 -0.517638 -0
v 3.6310363 -1.4400978 -0.4798622
v -2.7619972 -2.1990504 -0.8683052
v 3.507989 -0.39805388 -0.86831
v 3.866025 0 -0.5
v 3.7158892 1.5875916 -0.051801562
v 3.8533707 0.44984913 0.53752136
v 3.5001974 0.38154125 0.8708
v 3.070008 -0.08392072 0.9983029
v -1.931852 -0.517638 -0
v 2.1342087 0.28167486 0.49313354
v 2.0073986 0.25278845 0.0014435351
v 2.13478 0.25357056 -0.4923129
v 2.4984121 0.27784646 -0.860649
v 1.6888199 -1.3302157 -0.49232435
v -0.9215107 -3.1251326 1.0052931
v -1.848076 -1.066988 -0.5
v 0.38654017 -3.5056086 0.86649704
v 3.464102 -1.999999 0
v -2.1347797 0.25356984 0.49231482
v -2.94314 -0.85926104 -0.9994221
v 2.4046047 0.88589406 0.87200963
v 1.848076 1.066987 0.5
v 1.732051 1 -0
v 1.848076 1.066987 -0.5
v 1.75 -3.031089 0.866025
v 0.4504261 -3.8560286 0.53170776
v 3.0404472 1.3583117 -0.98202634
v 3.5619316 1.5368996 -0.53790474
v 2.828427 2.828427 0
v 2.9654126 2.2970567 0.7294693
v -2.5278304 -0.1853748 0.8480382
v 1.9965308 -0.79702616 0.49259853
v 1.593943 -1.2408645 -0.0075748563
v 1.933012 -3.348076 0.5
v 2 -3.464102 0
v 1.25 -2.165064 -0.866025
v 2.733694 -2.733692 -0.5
v 2.6887033 -1.4735281 -0.999422
v -3.8415632 -0.56306124 -0.53097343
v 2.733693 2.733693 -0.5
v 1.5420408 3.7326667 0.016361833
v -2.4516468 -0.6310942 -0.8439636
v -1.4319334 -3.6054087 -0.5379162
v 2.247826 2.1003613 0.99933183
v -2.733692 -2.733693 -0.5
v 1.2869892 1.7219853 0.49231958
v 1.2308356 1.6040605 -2.9183866e-08
v 1.3302102 1.6888242 -0.4923215
v 1.9185269 1.6563697 -0.84803975
v 3.863703 -1.035275 0
v -1.035276 -3.863703 0
v -1.6888189 -1.3302156 0.49231958
v -2.061261 -0.552313 0.5
v 1.5646816 3.4051514 0.73878
v -4 -0 0
v 0.552313 -2.061261 0.5
v 1.0932436 2.3001883 0.866518
v 0.552313 2.061261 0.5
v 0.517638 1.931852 -0
v 0.552313 2.061261 -0.5
v -3.863703 -1.035276 0
v 2.0256135 2.5877047 -1.0005538
v -2.1347804 -0.25356984 -0.49231482
v 1.3280177 3.563043 -0.668169
v -0 4 0
v -0 3.866025 0.5
v -1.570173 -1.9631112 -0.86064756
v 0.42512608 2.9971278 0.99955815
v 1.9685262 -2.3855515 1.0006125
v 1.5803955 -3.458519 -0.66816616
v 0.76796377 -1.8727257 0.0010009017
v 1.066987 -1.848076 -0.5
v 1.339713 -1.6761789 0.50228214
v 3.734294 -1.0006 0.5
v -0.23982835 -2.5117445 0.8686302
v -3.264234 0.3921169 0.99990684
v -1.5393255 3.7111611 0.28485012
v -0.09883666 -2.191185 -0.4960184
v -0.39829445 3.5077572 0.8685627
v -0.18537688 -2.5278325 -0.84804
v -0.41843235 2.488229 0.86862874
v -0.30802202 2.1275563 0.49259758
v -0.26395565 2.0045624 -8.8977395e-06
v -0.2535715 2.1347795 -0.4923153
v 0.2055406 2.556659 -0.8726063
v -1.066987 -1.848076 0.5
v -0.53715515 3.4795818 -0.870903
v -0.53759944 3.8589268 -0.5018616
v 0 -4 0
v -3.8793821 -0.41328874 0.49512482
v -0.2832281 -1.9941009 -0.0037715733
v 3.380741 -0.905866 0.866025
v 0.39745414 -3.2621045 -1.0005529
v 0 -3.866025 -0.5
v -1 1.732051 -0
v -1.066988 1.848076 -0.5
v -2 -3.464102 0
v -0.8592639 2.9431393 -0.9994217
v -1.75 3.031089 -0.866025
v -1.933013 3.348076 -0.5
v -2.7434168 2.9015925 0.24791384
v -1.9941003 0.28327936 -0.0037662983
v -2.0805244 2.8404956 0.8708086
v -1.4623054 2.7006721 0.9983028
v -3.348076 -1.933013 0.5
v -1.3110459 1.7074375 0.4931364
v 1.38364 -2.1451573 0.8559463
v -1.610347 -1.2097331 -0.0037667751
v 3.0457535 -2.4080396 0.5309162
v -1 -1.732051 -0
v 1.035276 -3.863703 0
v -2.828427 -2.828428 0
v -3.7313566 1.514221 0.07543057
v -1.7048506 -1.8911191 0.8542179
v -1.000601 -3.734294 0.5
v 2.3640862 -0.88174534 0.8686296
v -1.9647888 1.6465302 0.8732972
v -1.848076 1.066987 0.5
v -1.625633 1.1916584 0.0022846162
v -1.6888208 1.3302178 -0.49231625
v -1.6576836 1.9321326 -0.86558056
v -3.348076 -1.933013 -0.5
v -2.83175 2.0851212 -0.87448883
v -3.114244 2.3187618 -0.53094673
v 2.1798282 -1.2873192 -0.8439634
v -3.4583378 1.5801876 0.6685295
v -3.1294277 -1.2180985 0.9736395
v 2.8402705 -2.0806074 -0.87090683
v -1.1894345 -3.1104004 -0.98202693
v 2.828428 -2.828426 0
v -3.464101 -2.000001 0
v -2.061261 0.552313 -0.5
v -2.414815 0.647047 -0.866025
v -2.698966 1.4947662 -1.0002642
v -3.380741 0.905866 -0.866025
v -3.734294 1.000601 -0.5
f 88 75 2 
f 1 13 14 
f 3 10 130 
f 53 130 10 
f 4 20 21 
f 78 136 45 
f 16 77 5 
f 21 133 4 
f 20 4 8 
f 8 19 20 
f 23 135 6 
f 119 43 42 
f 35 46 133 
f 6 123 23 
f 137 101 102 
f 116 118 2 
f 29 124 16 
f 8 41 40 
f 61 27 39 
f 58 26 9 
f 36 12 11 
f 11 35 36 
f 13 1 12 
f 12 36 13 
f 38 14 13 
f 133 21 35 
f 38 15 14 
f 60 61 39 
f 52 16 15 
f 15 38 52 
f 17 116 24 
f 16 52 29 
f 30 18 29 
f 24 71 17 
f 31 19 18 
f 18 30 31 
f 32 20 19 
f 19 31 32 
f 57 21 20 
f 20 32 57 
f 70 35 21 
f 21 57 70 
f 115 83 23 
f 83 122 23 
f 24 2 75 
f 77 23 25 
f 102 51 137 
f 75 50 24 
f 82 117 26 
f 13 37 38 
f 27 61 17 
f 25 33 77 
f 2 86 88 
f 120 139 130 
f 65 29 52 
f 59 105 51 
f 54 30 29 
f 29 65 54 
f 55 31 30 
f 30 54 55 
f 56 32 31 
f 31 55 56 
f 9 12 1 
f 32 56 57 
f 34 42 33 
f 22 4 133 
f 81 64 115 
f 33 25 34 
f 48 36 35 
f 35 70 48 
f 37 13 36 
f 36 48 37 
f 62 38 37 
f 37 49 62 
f 135 84 98 
f 63 69 98 
f 40 18 19 
f 38 62 52 
f 41 8 4 
f 19 8 40 
f 42 117 5 
f 4 22 41 
f 43 138 117 
f 5 33 42 
f 44 133 46 
f 117 42 43 
f 45 9 26 
f 46 101 44 
f 46 35 11 
f 26 138 45 
f 10 3 28 
f 118 99 86 
f 72 48 70 
f 14 82 58 
f 49 37 48 
f 48 72 49 
f 50 75 137 
f 61 60 116 
f 51 102 97 
f 137 28 50 
f 76 52 62 
f 97 59 51 
f 53 51 105 
f 52 76 65 
f 66 54 65 
f 105 120 53 
f 67 55 54 
f 54 66 67 
f 68 56 55 
f 55 67 68 
f 93 57 56 
f 56 68 93 
f 17 110 27 
f 57 93 70 
f 59 97 34 
f 101 46 136 
f 60 94 118 
f 34 123 59 
f 116 17 61 
f 118 116 60 
f 74 62 49 
f 49 73 74 
f 39 122 60 
f 62 74 87 
f 94 7 99 
f 62 87 76 
f 89 65 76 
f 11 136 46 
f 90 66 65 
f 65 89 90 
f 91 67 66 
f 66 90 91 
f 92 68 67 
f 67 91 92 
f 69 139 113 
f 68 92 93 
f 106 70 93 
f 113 98 69 
f 95 72 70 
f 70 106 95 
f 71 24 50 
f 72 95 96 
f 73 49 72 
f 72 96 73 
f 85 74 73 
f 98 113 135 
f 75 88 101 
f 74 85 87 
f 112 76 87 
f 101 137 75 
f 64 81 79 
f 76 112 89 
f 78 45 138 
f 124 115 77 
f 79 41 22 
f 138 43 78 
f 80 22 133 
f 22 80 79 
f 81 40 41 
f 133 44 80 
f 82 14 15 
f 139 69 47 
f 83 115 64 
f 15 100 82 
f 84 135 122 
f 64 7 83 
f 85 73 96 
f 122 39 84 
f 6 113 139 
f 130 53 120 
f 111 87 85 
f 2 24 116 
f 88 44 101 
f 87 111 112 
f 125 89 112 
f 47 130 139 
f 114 90 89 
f 89 125 114 
f 103 91 90 
f 90 114 103 
f 104 92 91 
f 91 103 104 
f 129 93 92 
f 92 104 129 
f 99 118 94 
f 93 129 106 
f 107 95 106 
f 80 86 79 
f 108 96 95 
f 95 107 108 
f 1 58 9 
f 96 108 85 
f 97 119 34 
f 110 17 71 
f 9 45 136 
f 85 109 111 
f 100 15 16 
f 44 88 86 
f 136 78 101 
f 86 80 44 
f 119 97 102 
f 5 100 16 
f 127 103 114 
f 79 99 7 
f 128 104 103 
f 103 127 128 
f 105 59 123 
f 104 128 129 
f 142 106 129 
f 123 6 105 
f 131 107 106 
f 106 142 131 
f 132 108 107 
f 107 131 132 
f 109 85 108 
f 108 132 109 
f 33 5 77 
f 109 121 134 
f 134 111 109 
f 7 64 79 
f 84 112 111 
f 111 134 84 
f 10 137 51 
f 112 84 125 
f 126 114 125 
f 6 135 113 
f 40 81 115 
f 114 126 127 
f 7 94 122 
f 138 26 117 
f 117 82 100 
f 43 119 78 
f 86 2 118 
f 100 5 117 
f 42 34 119 
f 12 9 11 
f 120 105 6 
f 139 120 6 
f 121 109 132 
f 115 124 40 
f 77 16 124 
f 99 79 86 
f 123 34 25 
f 94 60 122 
f 18 40 124 
f 25 23 123 
f 39 125 84 
f 26 58 82 
f 27 126 125 
f 125 39 27 
f 110 127 126 
f 126 27 110 
f 140 128 127 
f 127 110 140 
f 141 129 128 
f 128 140 141 
f 23 77 115 
f 129 141 142 
f 143 131 142 
f 28 137 10 
f 144 132 131 
f 131 143 144 
f 69 63 47 
f 132 144 121 
f 98 134 121 
f 121 63 98 
f 124 29 18 
f 134 98 84 
f 136 11 9 
f 51 53 10 
f 58 1 14 
f 122 83 7 
f 102 78 119 
f 135 23 122 
f 130 47 3 
f 41 79 81 
f 71 140 110 
f 78 102 101 
f 50 141 140 
f 140 71 50 
f 28 142 141 
f 141 50 28 
f 3 143 142 
f 142 28 3 
f 47 144 143 
f 143 3 47 
f 63 121 144 
f 144 47 63 
